<mxfile host="Electron" modified="2024-03-12T22:44:20.945Z" agent="Mozilla/5.0 (Windows NT 10.0; Win64; x64) AppleWebKit/537.36 (KHTML, like Gecko) draw.io/22.0.2 Chrome/114.0.5735.289 Electron/25.8.4 Safari/537.36" etag="aJx5T6cPsYoCueeu2p8W" version="22.0.2" type="device" pages="4">
  <diagram id="29P2ZgknzGBPf_8tD3Vq" name="compilation">
    <mxGraphModel dx="1025" dy="854" grid="1" gridSize="10" guides="1" tooltips="1" connect="1" arrows="1" fold="1" page="1" pageScale="1" pageWidth="1600" pageHeight="900" background="#eeeeee" math="0" shadow="0">
      <root>
        <mxCell id="0" />
        <mxCell id="1" parent="0" />
        <mxCell id="OarAyq8D3bp2OKHomz_o-140" value="" style="whiteSpace=wrap;html=1;fillColor=#eeeedd;" parent="1" vertex="1">
          <mxGeometry x="880" y="1960" width="120" height="80" as="geometry" />
        </mxCell>
        <mxCell id="OarAyq8D3bp2OKHomz_o-138" value="" style="whiteSpace=wrap;html=1;fillColor=#eeeedd;" parent="1" vertex="1">
          <mxGeometry x="880" y="1840" width="120" height="80" as="geometry" />
        </mxCell>
        <mxCell id="OarAyq8D3bp2OKHomz_o-137" value="" style="whiteSpace=wrap;html=1;fillColor=#eeeedd;" parent="1" vertex="1">
          <mxGeometry x="880" y="1720" width="120" height="80" as="geometry" />
        </mxCell>
        <mxCell id="OarAyq8D3bp2OKHomz_o-136" value="" style="whiteSpace=wrap;html=1;fillColor=#eeeedd;" parent="1" vertex="1">
          <mxGeometry x="880" y="1600" width="120" height="80" as="geometry" />
        </mxCell>
        <mxCell id="OarAyq8D3bp2OKHomz_o-135" value="" style="whiteSpace=wrap;html=1;fillColor=#eeeedd;" parent="1" vertex="1">
          <mxGeometry x="880" y="1480" width="120" height="80" as="geometry" />
        </mxCell>
        <mxCell id="OarAyq8D3bp2OKHomz_o-134" value="" style="whiteSpace=wrap;html=1;fillColor=#eeeedd;" parent="1" vertex="1">
          <mxGeometry x="880" y="1360" width="120" height="80" as="geometry" />
        </mxCell>
        <mxCell id="OarAyq8D3bp2OKHomz_o-133" value="" style="whiteSpace=wrap;html=1;fillColor=#eeeedd;" parent="1" vertex="1">
          <mxGeometry x="880" y="1240" width="120" height="80" as="geometry" />
        </mxCell>
        <mxCell id="OarAyq8D3bp2OKHomz_o-132" value="" style="whiteSpace=wrap;html=1;fillColor=#eeeedd;" parent="1" vertex="1">
          <mxGeometry x="880" y="1120" width="120" height="80" as="geometry" />
        </mxCell>
        <mxCell id="OarAyq8D3bp2OKHomz_o-131" value="" style="whiteSpace=wrap;html=1;fillColor=#eeeedd;" parent="1" vertex="1">
          <mxGeometry x="880" y="1000" width="120" height="80" as="geometry" />
        </mxCell>
        <mxCell id="OarAyq8D3bp2OKHomz_o-130" value="" style="whiteSpace=wrap;html=1;fillColor=#eeeedd;" parent="1" vertex="1">
          <mxGeometry x="880" y="880" width="120" height="80" as="geometry" />
        </mxCell>
        <mxCell id="OarAyq8D3bp2OKHomz_o-129" value="" style="whiteSpace=wrap;html=1;fillColor=#eeeedd;" parent="1" vertex="1">
          <mxGeometry x="880" y="760" width="120" height="80" as="geometry" />
        </mxCell>
        <mxCell id="OarAyq8D3bp2OKHomz_o-128" value="" style="whiteSpace=wrap;html=1;fillColor=#eeeedd;" parent="1" vertex="1">
          <mxGeometry x="880" y="640" width="120" height="80" as="geometry" />
        </mxCell>
        <mxCell id="OarAyq8D3bp2OKHomz_o-127" value="" style="whiteSpace=wrap;html=1;fillColor=#eeeedd;" parent="1" vertex="1">
          <mxGeometry x="880" y="520" width="120" height="80" as="geometry" />
        </mxCell>
        <mxCell id="OarAyq8D3bp2OKHomz_o-126" value="" style="whiteSpace=wrap;html=1;fillColor=#eeeedd;" parent="1" vertex="1">
          <mxGeometry x="880" y="400" width="120" height="80" as="geometry" />
        </mxCell>
        <mxCell id="OarAyq8D3bp2OKHomz_o-125" value="" style="whiteSpace=wrap;html=1;fillColor=#eeeedd;" parent="1" vertex="1">
          <mxGeometry x="880" y="280" width="120" height="80" as="geometry" />
        </mxCell>
        <mxCell id="OarAyq8D3bp2OKHomz_o-124" value="" style="whiteSpace=wrap;html=1;fillColor=#eeeedd;" parent="1" vertex="1">
          <mxGeometry x="560" y="1000" width="120" height="80" as="geometry" />
        </mxCell>
        <mxCell id="OarAyq8D3bp2OKHomz_o-123" value="" style="whiteSpace=wrap;html=1;fillColor=#eeeedd;" parent="1" vertex="1">
          <mxGeometry x="560" y="880" width="120" height="80" as="geometry" />
        </mxCell>
        <mxCell id="OarAyq8D3bp2OKHomz_o-122" value="" style="whiteSpace=wrap;html=1;fillColor=#eeeedd;" parent="1" vertex="1">
          <mxGeometry x="560" y="760" width="120" height="80" as="geometry" />
        </mxCell>
        <mxCell id="OarAyq8D3bp2OKHomz_o-121" value="" style="whiteSpace=wrap;html=1;fillColor=#eeeedd;" parent="1" vertex="1">
          <mxGeometry x="280" y="520" width="120" height="80" as="geometry" />
        </mxCell>
        <mxCell id="OarAyq8D3bp2OKHomz_o-120" value="" style="whiteSpace=wrap;html=1;fillColor=#eeeedd;" parent="1" vertex="1">
          <mxGeometry x="280" y="400" width="120" height="80" as="geometry" />
        </mxCell>
        <mxCell id="OarAyq8D3bp2OKHomz_o-119" value="" style="whiteSpace=wrap;html=1;fillColor=#eeeedd;" parent="1" vertex="1">
          <mxGeometry x="280" y="280" width="120" height="80" as="geometry" />
        </mxCell>
        <mxCell id="OarAyq8D3bp2OKHomz_o-118" value="" style="whiteSpace=wrap;html=1;fillColor=#eeeedd;shadow=0;" parent="1" vertex="1">
          <mxGeometry x="280" y="160" width="120" height="80" as="geometry" />
        </mxCell>
        <mxCell id="OarAyq8D3bp2OKHomz_o-117" value="" style="whiteSpace=wrap;html=1;fillColor=#eeeedd;" parent="1" vertex="1">
          <mxGeometry x="80" y="400" width="120" height="80" as="geometry" />
        </mxCell>
        <mxCell id="OarAyq8D3bp2OKHomz_o-116" value="" style="whiteSpace=wrap;html=1;fillColor=#eeeedd;" parent="1" vertex="1">
          <mxGeometry x="80" y="280" width="120" height="80" as="geometry" />
        </mxCell>
        <mxCell id="OarAyq8D3bp2OKHomz_o-115" value="" style="whiteSpace=wrap;html=1;fillColor=#eeeedd;" parent="1" vertex="1">
          <mxGeometry x="80" y="520" width="120" height="80" as="geometry" />
        </mxCell>
        <mxCell id="OarAyq8D3bp2OKHomz_o-114" value="" style="whiteSpace=wrap;html=1;fillColor=#eeeedd;" parent="1" vertex="1">
          <mxGeometry x="80" y="640" width="120" height="80" as="geometry" />
        </mxCell>
        <mxCell id="OarAyq8D3bp2OKHomz_o-113" value="" style="whiteSpace=wrap;html=1;fillColor=#eeeedd;" parent="1" vertex="1">
          <mxGeometry x="80" y="760" width="120" height="80" as="geometry" />
        </mxCell>
        <mxCell id="OarAyq8D3bp2OKHomz_o-112" value="" style="whiteSpace=wrap;html=1;fillColor=#eeeedd;" parent="1" vertex="1">
          <mxGeometry x="80" y="1000" width="120" height="80" as="geometry" />
        </mxCell>
        <mxCell id="OarAyq8D3bp2OKHomz_o-111" value="" style="whiteSpace=wrap;html=1;fillColor=#eeeedd;" parent="1" vertex="1">
          <mxGeometry x="80" y="880" width="120" height="80" as="geometry" />
        </mxCell>
        <mxCell id="OarAyq8D3bp2OKHomz_o-95" value="" style="whiteSpace=wrap;html=1;fillColor=#eeeedd;" parent="1" vertex="1">
          <mxGeometry x="80" y="1120" width="120" height="80" as="geometry" />
        </mxCell>
        <mxCell id="UtF4rJLCFVSPQVDjFAe4-2" value="start application" style="whiteSpace=wrap;html=1;rounded=0;" parent="1" vertex="1">
          <mxGeometry x="80" y="40" width="120" height="80" as="geometry" />
        </mxCell>
        <mxCell id="UtF4rJLCFVSPQVDjFAe4-5" value="&amp;gt;0 arguments" style="rhombus;whiteSpace=wrap;html=1;direction=south;fontSize=11;fillColor=#FFFFCC;gradientColor=none;fillStyle=auto;strokeWidth=1;shadow=0;rounded=0;comic=0;labelBackgroundColor=none;labelBorderColor=none;spacingTop=0;spacing=20;spacingLeft=0;spacingRight=0;strokeColor=none;" parent="1" vertex="1">
          <mxGeometry x="80" y="280" width="120" height="80" as="geometry" />
        </mxCell>
        <mxCell id="UtF4rJLCFVSPQVDjFAe4-31" value="" style="edgeStyle=none;shape=connector;curved=0;rounded=0;orthogonalLoop=1;jettySize=auto;html=1;shadow=0;labelBackgroundColor=default;strokeColor=#00FF00;strokeWidth=3;align=center;verticalAlign=middle;fontFamily=Helvetica;fontSize=11;fontColor=default;endArrow=open;endFill=0;endSize=10;fillColor=#e1d5e7;" parent="1" target="UtF4rJLCFVSPQVDjFAe4-21" edge="1">
          <mxGeometry relative="1" as="geometry">
            <mxPoint x="141" y="600" as="sourcePoint" />
          </mxGeometry>
        </mxCell>
        <mxCell id="UtF4rJLCFVSPQVDjFAe4-7" value="&amp;gt;0 source files specified" style="rhombus;fontFamily=Helvetica;fontSize=11;fontColor=default;gradientColor=none;fillStyle=auto;fillColor=#FFFFCC;strokeWidth=1;shadow=0;rounded=0;perimeterSpacing=0;overflow=visible;noLabel=0;portConstraintRotation=0;portConstraint=none;perimeter=rhombusPerimeter;snapToPoint=0;fixDash=0;container=0;dropTarget=0;collapsible=0;editable=1;movable=1;resizable=1;rotatable=1;deletable=1;locked=0;connectable=1;expand=1;recursiveResize=1;backgroundOutline=0;movableLabel=0;autosize=0;fixedWidth=0;resizeHeight=0;treeFolding=0;enumerate=0;comic=0;labelPosition=center;verticalLabelPosition=middle;align=center;verticalAlign=middle;labelBackgroundColor=none;labelBorderColor=none;whiteSpace=wrap;html=1;spacingTop=0;spacing=20;spacingLeft=0;spacingRight=0;horizontal=1;textDirection=ltr;direction=west;flipH=0;flipV=0;strokeColor=#000000;" parent="1" vertex="1">
          <mxGeometry x="80" y="520" width="120" height="80" as="geometry">
            <mxRectangle x="160" y="680" width="150" height="30" as="alternateBounds" />
          </mxGeometry>
        </mxCell>
        <mxCell id="UtF4rJLCFVSPQVDjFAe4-10" value="" style="edgeStyle=none;orthogonalLoop=1;jettySize=auto;html=1;rounded=0;shadow=0;labelBackgroundColor=default;strokeColor=#000000;strokeWidth=3;align=center;verticalAlign=middle;fontFamily=Helvetica;fontSize=11;fontColor=default;shape=connector;curved=0;endArrow=open;endFill=0;endSize=10;fillColor=#e1d5e7;" parent="1" source="UtF4rJLCFVSPQVDjFAe4-2" edge="1">
          <mxGeometry width="80" relative="1" as="geometry">
            <mxPoint x="151" y="270" as="sourcePoint" />
            <mxPoint x="141" y="160" as="targetPoint" />
            <Array as="points" />
          </mxGeometry>
        </mxCell>
        <mxCell id="UtF4rJLCFVSPQVDjFAe4-11" value="" style="edgeStyle=none;orthogonalLoop=1;jettySize=auto;html=1;rounded=0;shadow=0;labelBackgroundColor=default;strokeColor=#00FF00;strokeWidth=3;align=center;verticalAlign=middle;fontFamily=Helvetica;fontSize=11;fontColor=default;shape=connector;curved=0;endArrow=open;endFill=0;endSize=10;fillColor=#e1d5e7;" parent="1" source="UtF4rJLCFVSPQVDjFAe4-5" edge="1">
          <mxGeometry width="80" relative="1" as="geometry">
            <mxPoint x="121" y="380" as="sourcePoint" />
            <mxPoint x="141" y="400" as="targetPoint" />
            <Array as="points" />
          </mxGeometry>
        </mxCell>
        <mxCell id="UtF4rJLCFVSPQVDjFAe4-29" value="" style="edgeStyle=none;shape=connector;curved=0;rounded=0;orthogonalLoop=1;jettySize=auto;html=1;shadow=0;labelBackgroundColor=default;strokeColor=#00FF00;strokeWidth=3;align=center;verticalAlign=middle;fontFamily=Helvetica;fontSize=11;fontColor=default;endArrow=open;endFill=0;endSize=10;fillColor=#e1d5e7;gradientColor=none;fillStyle=auto;comic=0;labelBorderColor=none;spacingTop=0;spacing=10;spacingLeft=0;spacingRight=0;" parent="1" source="UtF4rJLCFVSPQVDjFAe4-12" target="UtF4rJLCFVSPQVDjFAe4-24" edge="1">
          <mxGeometry relative="1" as="geometry" />
        </mxCell>
        <mxCell id="UtF4rJLCFVSPQVDjFAe4-12" value="target specified" style="rhombus;whiteSpace=wrap;html=1;fontFamily=Helvetica;fontSize=11;fontColor=default;fillColor=#FFFFCC;gradientColor=none;fillStyle=auto;strokeWidth=1;shadow=0;rounded=0;comic=0;labelBackgroundColor=none;labelBorderColor=none;spacingTop=0;spacing=20;spacingLeft=0;spacingRight=0;strokeColor=#000000;" parent="1" vertex="1">
          <mxGeometry x="80" y="760" width="120" height="80" as="geometry" />
        </mxCell>
        <mxCell id="UtF4rJLCFVSPQVDjFAe4-14" value="output name specified" style="rhombus;whiteSpace=wrap;html=1;fontFamily=Helvetica;fontSize=11;fontColor=default;fillColor=#FFFFCC;gradientColor=none;fillStyle=auto;strokeWidth=1;shadow=0;rounded=0;comic=0;labelBackgroundColor=none;labelBorderColor=none;spacingTop=0;spacing=20;spacingLeft=0;spacingRight=0;strokeColor=#000000;" parent="1" vertex="1">
          <mxGeometry x="80" y="1000" width="120" height="80" as="geometry" />
        </mxCell>
        <mxCell id="UtF4rJLCFVSPQVDjFAe4-30" value="" style="edgeStyle=none;shape=connector;curved=0;rounded=0;orthogonalLoop=1;jettySize=auto;html=1;shadow=0;labelBackgroundColor=default;strokeColor=#00FF00;strokeWidth=3;align=center;verticalAlign=middle;fontFamily=Helvetica;fontSize=11;fontColor=default;endArrow=open;endFill=0;endSize=10;fillColor=#e1d5e7;" parent="1" source="UtF4rJLCFVSPQVDjFAe4-21" target="UtF4rJLCFVSPQVDjFAe4-12" edge="1">
          <mxGeometry relative="1" as="geometry" />
        </mxCell>
        <mxCell id="UtF4rJLCFVSPQVDjFAe4-21" value="source files exist" style="rhombus;whiteSpace=wrap;html=1;fontFamily=Helvetica;fontSize=11;fontColor=default;fillColor=#FFFFCC;gradientColor=none;fillStyle=auto;strokeWidth=1;shadow=0;rounded=0;comic=0;labelBackgroundColor=none;labelBorderColor=none;spacingTop=0;spacing=20;spacingLeft=0;spacingRight=0;strokeColor=#000000;" parent="1" vertex="1">
          <mxGeometry x="80" y="640" width="120" height="80" as="geometry" />
        </mxCell>
        <mxCell id="UtF4rJLCFVSPQVDjFAe4-27" value="" style="edgeStyle=none;shape=connector;curved=0;rounded=0;orthogonalLoop=1;jettySize=auto;html=1;shadow=0;labelBackgroundColor=default;strokeColor=#00FF00;strokeWidth=3;align=center;verticalAlign=middle;fontFamily=Helvetica;fontSize=11;fontColor=default;endArrow=open;endFill=0;endSize=10;fillColor=#e1d5e7;gradientColor=none;fillStyle=auto;comic=0;labelBorderColor=none;spacingTop=0;spacing=10;spacingLeft=0;spacingRight=0;" parent="1" source="UtF4rJLCFVSPQVDjFAe4-24" target="UtF4rJLCFVSPQVDjFAe4-14" edge="1">
          <mxGeometry relative="1" as="geometry" />
        </mxCell>
        <mxCell id="UtF4rJLCFVSPQVDjFAe4-24" value="target exists" style="rhombus;whiteSpace=wrap;html=1;fontFamily=Helvetica;fontSize=11;fontColor=default;fillColor=#FFFFCC;gradientColor=none;fillStyle=auto;strokeWidth=1;shadow=0;rounded=0;comic=0;labelBackgroundColor=none;labelBorderColor=none;spacingTop=0;spacing=20;spacingLeft=0;spacingRight=0;strokeColor=#000000;" parent="1" vertex="1">
          <mxGeometry x="80" y="880" width="120" height="80" as="geometry" />
        </mxCell>
        <mxCell id="olNX-A_yrcxHF1Cur9AX-7" value="" style="edgeStyle=none;shape=connector;curved=0;rounded=0;orthogonalLoop=1;jettySize=auto;html=1;shadow=0;labelBackgroundColor=default;strokeColor=#00FF00;strokeWidth=3;align=center;verticalAlign=middle;fontFamily=Helvetica;fontSize=11;fontColor=default;endArrow=open;endFill=0;endSize=10;fillColor=#e1d5e7;gradientColor=none;fillStyle=auto;comic=0;labelBorderColor=none;spacingTop=0;spacing=10;spacingLeft=0;spacingRight=0;" parent="1" source="UtF4rJLCFVSPQVDjFAe4-14" target="olNX-A_yrcxHF1Cur9AX-4" edge="1">
          <mxGeometry relative="1" as="geometry">
            <mxPoint x="201" y="1100" as="sourcePoint" />
          </mxGeometry>
        </mxCell>
        <mxCell id="olNX-A_yrcxHF1Cur9AX-4" value="valid output name" style="rhombus;whiteSpace=wrap;html=1;fontFamily=Helvetica;fontSize=11;fontColor=default;fillColor=#FFFFCC;gradientColor=none;fillStyle=auto;strokeWidth=1;shadow=0;rounded=0;comic=0;labelBackgroundColor=none;labelBorderColor=none;spacingTop=0;spacing=20;spacingLeft=0;spacingRight=0;strokeColor=#000000;allowArrows=1;" parent="1" vertex="1">
          <mxGeometry x="80" y="1120" width="120" height="80" as="geometry" />
        </mxCell>
        <mxCell id="olNX-A_yrcxHF1Cur9AX-8" value="" style="edgeStyle=none;shape=connector;curved=0;rounded=0;orthogonalLoop=1;jettySize=auto;html=1;shadow=0;labelBackgroundColor=default;strokeColor=#00FF00;strokeWidth=3;align=center;verticalAlign=middle;fontFamily=Helvetica;fontSize=11;fontColor=default;endArrow=open;endFill=0;endSize=10;fillColor=#e1d5e7;" parent="1" source="olNX-A_yrcxHF1Cur9AX-9" target="UtF4rJLCFVSPQVDjFAe4-7" edge="1">
          <mxGeometry relative="1" as="geometry">
            <mxPoint x="140.8" y="480" as="sourcePoint" />
            <mxPoint x="140.8" y="520" as="targetPoint" />
          </mxGeometry>
        </mxCell>
        <mxCell id="olNX-A_yrcxHF1Cur9AX-9" value="no invalid text in source file specification" style="rhombus;fontFamily=Helvetica;fontSize=11;fontColor=default;gradientColor=none;fillStyle=auto;fillColor=#FFFFCC;strokeWidth=1;shadow=0;rounded=0;perimeterSpacing=0;overflow=visible;noLabel=0;portConstraintRotation=0;portConstraint=none;perimeter=rhombusPerimeter;snapToPoint=0;fixDash=0;container=0;dropTarget=0;collapsible=0;editable=1;movable=1;resizable=1;rotatable=1;deletable=1;locked=0;connectable=1;expand=1;recursiveResize=1;backgroundOutline=0;movableLabel=0;autosize=0;fixedWidth=0;resizeHeight=0;treeFolding=0;enumerate=0;comic=0;labelPosition=center;verticalLabelPosition=middle;align=center;verticalAlign=middle;labelBackgroundColor=none;labelBorderColor=none;whiteSpace=wrap;html=1;spacingTop=0;spacing=20;spacingLeft=0;spacingRight=0;horizontal=1;textDirection=ltr;direction=west;flipH=0;flipV=0;strokeColor=#000000;" parent="1" vertex="1">
          <mxGeometry x="80" y="400" width="120" height="80" as="geometry">
            <mxRectangle x="160" y="680" width="150" height="30" as="alternateBounds" />
          </mxGeometry>
        </mxCell>
        <mxCell id="olNX-A_yrcxHF1Cur9AX-20" value="" style="edgeStyle=orthogonalEdgeStyle;shape=connector;rounded=0;orthogonalLoop=1;jettySize=auto;html=1;shadow=0;labelBackgroundColor=default;strokeColor=#00FF00;strokeWidth=3;align=center;verticalAlign=middle;fontFamily=Helvetica;fontSize=11;fontColor=default;endArrow=open;endFill=0;endSize=10;fillColor=#e1d5e7;gradientColor=none;fillStyle=auto;comic=0;labelBorderColor=none;spacingTop=0;spacing=10;spacingLeft=0;spacingRight=0;" parent="1" source="olNX-A_yrcxHF1Cur9AX-4" target="OarAyq8D3bp2OKHomz_o-82" edge="1">
          <mxGeometry relative="1" as="geometry">
            <mxPoint x="140.47000000000003" y="1200" as="sourcePoint" />
            <mxPoint x="280" y="200" as="targetPoint" />
            <Array as="points">
              <mxPoint x="220" y="1160" />
              <mxPoint x="220" y="200" />
            </Array>
          </mxGeometry>
        </mxCell>
        <mxCell id="olNX-A_yrcxHF1Cur9AX-23" value="enter &quot;main&quot; function" style="whiteSpace=wrap;html=1;rounded=0;" parent="1" vertex="1">
          <mxGeometry x="80" y="160" width="120" height="80" as="geometry" />
        </mxCell>
        <mxCell id="olNX-A_yrcxHF1Cur9AX-24" value="" style="edgeStyle=none;orthogonalLoop=1;jettySize=auto;html=1;rounded=0;shadow=0;labelBackgroundColor=default;strokeColor=#000000;strokeWidth=3;align=center;verticalAlign=middle;fontFamily=Helvetica;fontSize=11;fontColor=default;shape=connector;curved=0;endArrow=open;endFill=0;endSize=10;fillColor=#e1d5e7;" parent="1" source="olNX-A_yrcxHF1Cur9AX-23" target="UtF4rJLCFVSPQVDjFAe4-5" edge="1">
          <mxGeometry width="80" relative="1" as="geometry">
            <mxPoint x="140.47000000000003" y="240" as="sourcePoint" />
            <mxPoint x="140.47000000000003" y="280" as="targetPoint" />
            <Array as="points" />
          </mxGeometry>
        </mxCell>
        <mxCell id="olNX-A_yrcxHF1Cur9AX-31" value="invalid token sequence" style="rhombus;whiteSpace=wrap;html=1;direction=south;fontSize=11;fillColor=#FFFFCC;gradientColor=none;fillStyle=auto;strokeWidth=1;shadow=0;rounded=0;comic=0;labelBackgroundColor=none;labelBorderColor=none;spacingTop=0;spacing=20;spacingLeft=0;spacingRight=0;strokeColor=none;" parent="1" vertex="1">
          <mxGeometry x="880" y="400" width="120" height="80" as="geometry" />
        </mxCell>
        <mxCell id="olNX-A_yrcxHF1Cur9AX-40" value="" style="edgeStyle=orthogonalEdgeStyle;orthogonalLoop=1;jettySize=auto;html=1;rounded=0;shadow=0;labelBackgroundColor=default;strokeColor=#000000;strokeWidth=3;align=center;verticalAlign=middle;fontFamily=Helvetica;fontSize=11;fontColor=default;shape=connector;endArrow=open;endFill=0;endSize=10;fillColor=#e1d5e7;" parent="1" source="olNX-A_yrcxHF1Cur9AX-41" target="OarAyq8D3bp2OKHomz_o-18" edge="1">
          <mxGeometry width="80" relative="1" as="geometry">
            <mxPoint x="621.0000000000002" y="1200" as="sourcePoint" />
            <mxPoint x="1020" y="250" as="targetPoint" />
            <Array as="points">
              <mxPoint x="820" y="1280" />
              <mxPoint x="820" y="250" />
              <mxPoint x="940" y="250" />
            </Array>
          </mxGeometry>
        </mxCell>
        <mxCell id="olNX-A_yrcxHF1Cur9AX-41" value="push token to token stack" style="whiteSpace=wrap;html=1;" parent="1" vertex="1">
          <mxGeometry x="560" y="1240" width="120" height="80" as="geometry" />
        </mxCell>
        <mxCell id="olNX-A_yrcxHF1Cur9AX-42" value="" style="edgeStyle=none;orthogonalLoop=1;jettySize=auto;html=1;rounded=0;shadow=0;labelBackgroundColor=default;strokeColor=#FF0000;strokeWidth=3;align=center;verticalAlign=middle;fontFamily=Helvetica;fontSize=11;fontColor=default;shape=connector;curved=0;endArrow=open;endFill=0;endSize=10;fillColor=#e1d5e7;" parent="1" source="olNX-A_yrcxHF1Cur9AX-31" target="OarAyq8D3bp2OKHomz_o-7" edge="1">
          <mxGeometry width="80" relative="1" as="geometry">
            <mxPoint x="940.5700000000002" y="480" as="sourcePoint" />
            <mxPoint x="941" y="520" as="targetPoint" />
            <Array as="points" />
          </mxGeometry>
        </mxCell>
        <mxCell id="olNX-A_yrcxHF1Cur9AX-48" value="" style="edgeStyle=elbowEdgeStyle;orthogonalLoop=1;jettySize=auto;html=1;rounded=0;shadow=0;labelBackgroundColor=default;strokeColor=#00FF00;strokeWidth=3;align=center;verticalAlign=middle;fontFamily=Helvetica;fontSize=11;fontColor=default;shape=connector;endArrow=open;endFill=0;endSize=10;fillColor=#e1d5e7;jumpStyle=none;startFill=0;perimeterSpacing=0;fixDash=0;snapToPoint=0;anchorPointDirection=1;editable=1;movable=1;resizable=1;rotatable=1;deletable=1;locked=0;connectable=1;noJump=0;flowAnimation=0;ignoreEdge=0;orthogonal=0;enumerate=0;comic=0;" parent="1" source="OarAyq8D3bp2OKHomz_o-85" target="-47ig_28nj8kp7CaxMoa-22" edge="1">
          <mxGeometry width="80" relative="1" as="geometry">
            <mxPoint x="600" y="320" as="sourcePoint" />
            <mxPoint x="631" y="320" as="targetPoint" />
            <Array as="points" />
          </mxGeometry>
        </mxCell>
        <mxCell id="-47ig_28nj8kp7CaxMoa-2" value="valid char sequence" style="rhombus;whiteSpace=wrap;html=1;direction=south;fontSize=11;fillColor=#FFFFCC;gradientColor=none;fillStyle=auto;strokeWidth=1;shadow=0;rounded=0;comic=0;labelBackgroundColor=none;labelBorderColor=none;spacingTop=0;spacing=20;spacingLeft=0;spacingRight=0;strokeColor=none;overflow=visible;" parent="1" vertex="1">
          <mxGeometry x="560" y="760" width="120" height="80" as="geometry" />
        </mxCell>
        <mxCell id="-47ig_28nj8kp7CaxMoa-4" value="" style="edgeStyle=none;orthogonalLoop=1;jettySize=auto;html=1;rounded=0;shadow=0;labelBackgroundColor=default;strokeColor=#00FF00;strokeWidth=3;align=center;verticalAlign=middle;fontFamily=Helvetica;fontSize=11;fontColor=default;shape=connector;curved=0;endArrow=open;endFill=0;endSize=10;fillColor=#e1d5e7;" parent="1" source="-47ig_28nj8kp7CaxMoa-2" target="-47ig_28nj8kp7CaxMoa-8" edge="1">
          <mxGeometry width="80" relative="1" as="geometry">
            <mxPoint x="731" y="1080" as="sourcePoint" />
            <mxPoint x="621" y="880" as="targetPoint" />
            <Array as="points" />
          </mxGeometry>
        </mxCell>
        <mxCell id="-47ig_28nj8kp7CaxMoa-8" value="token has ended with character signaling beginning/end of current or next token" style="rhombus;whiteSpace=wrap;html=1;direction=south;fontSize=11;fillColor=#FFFFCC;gradientColor=none;fillStyle=auto;strokeWidth=1;shadow=0;rounded=0;comic=0;labelBackgroundColor=none;labelBorderColor=none;spacingTop=0;spacing=20;spacingLeft=0;spacingRight=0;strokeColor=none;horizontal=1;" parent="1" vertex="1">
          <mxGeometry x="560" y="880" width="120" height="80" as="geometry" />
        </mxCell>
        <mxCell id="-47ig_28nj8kp7CaxMoa-10" value="read chars from file, write into buffer (string)" style="spacing=20;fontSize=11;snapToPoint=0;fixDash=0;container=0;metaEdit=0;backgroundOutline=0;autosize=0;movableLabel=0;fixedWidth=0;absoluteArcSize=0;imageAspect=1;overflow=visible;whiteSpace=wrap;html=1;perimeter=rectanglePerimeter;dropTarget=0;connectable=1;allowArrows=1;portConstraintRotation=0;direction=south;arcSize=12;glass=0;shadow=0;fillStyle=auto;gradientColor=none;flipH=1;flipV=0;" parent="1" vertex="1">
          <mxGeometry x="560" y="400" width="120" height="80" as="geometry" />
        </mxCell>
        <mxCell id="-47ig_28nj8kp7CaxMoa-11" value="" style="edgeStyle=none;orthogonalLoop=1;jettySize=auto;html=1;rounded=0;shadow=0;labelBackgroundColor=default;strokeColor=#000000;strokeWidth=3;align=center;verticalAlign=middle;fontFamily=Helvetica;fontSize=11;fontColor=default;shape=connector;curved=0;endArrow=open;endFill=0;endSize=10;fillColor=#e1d5e7;" parent="1" source="-47ig_28nj8kp7CaxMoa-10" target="-47ig_28nj8kp7CaxMoa-17" edge="1">
          <mxGeometry width="80" relative="1" as="geometry">
            <mxPoint x="621" y="500" as="sourcePoint" />
            <mxPoint x="620" y="520" as="targetPoint" />
            <Array as="points" />
          </mxGeometry>
        </mxCell>
        <mxCell id="-47ig_28nj8kp7CaxMoa-17" value="read char from buffer" style="spacing=20;fontSize=11;snapToPoint=0;fixDash=0;container=0;metaEdit=0;backgroundOutline=0;autosize=0;movableLabel=0;fixedWidth=0;absoluteArcSize=0;imageAspect=1;overflow=visible;whiteSpace=wrap;html=1;perimeter=rectanglePerimeter;dropTarget=0;connectable=1;allowArrows=1;portConstraintRotation=0;direction=south;arcSize=12;glass=0;shadow=0;fillStyle=auto;gradientColor=none;flipH=1;flipV=0;" parent="1" vertex="1">
          <mxGeometry x="560" y="520" width="120" height="80" as="geometry" />
        </mxCell>
        <mxCell id="-47ig_28nj8kp7CaxMoa-18" value="" style="edgeStyle=none;orthogonalLoop=1;jettySize=auto;html=1;rounded=0;shadow=0;labelBackgroundColor=default;strokeColor=#000000;strokeWidth=3;align=center;verticalAlign=middle;fontFamily=Helvetica;fontSize=11;fontColor=default;shape=connector;curved=0;endArrow=open;endFill=0;endSize=10;fillColor=#e1d5e7;" parent="1" source="-47ig_28nj8kp7CaxMoa-17" target="-47ig_28nj8kp7CaxMoa-21" edge="1">
          <mxGeometry width="80" relative="1" as="geometry">
            <mxPoint x="621.57" y="600" as="sourcePoint" />
            <mxPoint x="621" y="640" as="targetPoint" />
            <Array as="points" />
          </mxGeometry>
        </mxCell>
        <mxCell id="-47ig_28nj8kp7CaxMoa-21" value="update bool state &quot;reached end of char buffer&quot;" style="spacing=20;fontSize=11;snapToPoint=0;fixDash=0;container=0;metaEdit=0;backgroundOutline=0;autosize=0;movableLabel=0;fixedWidth=0;absoluteArcSize=0;imageAspect=1;overflow=visible;whiteSpace=wrap;html=1;perimeter=rectanglePerimeter;dropTarget=0;connectable=1;allowArrows=1;portConstraintRotation=0;direction=south;arcSize=12;glass=0;shadow=0;fillStyle=auto;gradientColor=none;flipH=1;flipV=0;" parent="1" vertex="1">
          <mxGeometry x="560" y="640" width="120" height="80" as="geometry" />
        </mxCell>
        <mxCell id="-47ig_28nj8kp7CaxMoa-22" value="current token&amp;nbsp; is finished" style="rhombus;whiteSpace=wrap;html=1;direction=south;fontSize=11;fillColor=#FFFFCC;gradientColor=none;fillStyle=auto;strokeWidth=1;shadow=0;rounded=0;comic=0;labelBackgroundColor=none;labelBorderColor=none;spacingTop=0;spacing=20;spacingLeft=0;spacingRight=0;strokeColor=none;" parent="1" vertex="1">
          <mxGeometry x="280" y="400" width="120" height="80" as="geometry" />
        </mxCell>
        <mxCell id="-47ig_28nj8kp7CaxMoa-23" value="valid end to a token sequence" style="rhombus;whiteSpace=wrap;html=1;direction=south;fontSize=11;fillColor=#FFFFCC;gradientColor=none;fillStyle=auto;strokeWidth=1;shadow=0;rounded=0;comic=0;labelBackgroundColor=none;labelBorderColor=none;spacingTop=0;spacing=20;spacingLeft=0;spacingRight=0;strokeColor=none;" parent="1" vertex="1">
          <mxGeometry x="280" y="520" width="120" height="80" as="geometry" />
        </mxCell>
        <mxCell id="-47ig_28nj8kp7CaxMoa-24" value="" style="edgeStyle=none;orthogonalLoop=1;jettySize=auto;html=1;rounded=0;shadow=0;labelBackgroundColor=default;strokeColor=#00FF00;strokeWidth=3;align=center;verticalAlign=middle;fontFamily=Helvetica;fontSize=11;fontColor=default;shape=connector;curved=0;endArrow=open;endFill=0;endSize=10;fillColor=#e1d5e7;entryX=0;entryY=0.5;entryDx=0;entryDy=0;" parent="1" source="-47ig_28nj8kp7CaxMoa-22" target="-47ig_28nj8kp7CaxMoa-23" edge="1">
          <mxGeometry width="80" relative="1" as="geometry">
            <mxPoint x="700.6" y="360" as="sourcePoint" />
            <mxPoint x="380" y="500" as="targetPoint" />
            <Array as="points" />
          </mxGeometry>
        </mxCell>
        <mxCell id="-47ig_28nj8kp7CaxMoa-25" value="" style="edgeStyle=orthogonalEdgeStyle;orthogonalLoop=1;jettySize=auto;html=1;rounded=0;shadow=0;labelBackgroundColor=default;strokeColor=#00FF00;strokeWidth=3;align=center;verticalAlign=middle;fontFamily=Helvetica;fontSize=11;fontColor=default;shape=connector;endArrow=open;endFill=0;endSize=10;fillColor=#e1d5e7;" parent="1" source="-47ig_28nj8kp7CaxMoa-23" target="OarAyq8D3bp2OKHomz_o-80" edge="1">
          <mxGeometry width="80" relative="1" as="geometry">
            <mxPoint x="700.6" y="480" as="sourcePoint" />
            <mxPoint x="480" y="270" as="targetPoint" />
          </mxGeometry>
        </mxCell>
        <mxCell id="-47ig_28nj8kp7CaxMoa-33" value="" style="edgeStyle=orthogonalEdgeStyle;orthogonalLoop=1;jettySize=auto;html=1;rounded=0;shadow=0;labelBackgroundColor=default;strokeColor=#00FF00;strokeWidth=3;align=center;verticalAlign=middle;fontFamily=Helvetica;fontSize=11;fontColor=default;shape=connector;endArrow=open;endFill=0;endSize=10;fillColor=#e1d5e7;" parent="1" source="-47ig_28nj8kp7CaxMoa-8" target="olNX-A_yrcxHF1Cur9AX-41" edge="1">
          <mxGeometry width="80" relative="1" as="geometry">
            <mxPoint x="620.57" y="970" as="sourcePoint" />
            <mxPoint x="621" y="1000" as="targetPoint" />
            <Array as="points">
              <mxPoint x="530" y="920" />
              <mxPoint x="530" y="1280" />
            </Array>
          </mxGeometry>
        </mxCell>
        <mxCell id="-47ig_28nj8kp7CaxMoa-34" value="token has ended in some other way" style="rhombus;whiteSpace=wrap;html=1;direction=south;fontSize=11;fillColor=#FFFFCC;gradientColor=none;fillStyle=auto;strokeWidth=1;shadow=0;rounded=0;comic=0;labelBackgroundColor=none;labelBorderColor=none;spacingTop=0;spacing=20;spacingLeft=0;spacingRight=0;strokeColor=none;" parent="1" vertex="1">
          <mxGeometry x="560" y="1000" width="120" height="80" as="geometry" />
        </mxCell>
        <mxCell id="-47ig_28nj8kp7CaxMoa-35" value="" style="edgeStyle=none;orthogonalLoop=1;jettySize=auto;html=1;rounded=0;shadow=0;labelBackgroundColor=default;strokeColor=#00FF00;strokeWidth=3;align=center;verticalAlign=middle;fontFamily=Helvetica;fontSize=11;fontColor=default;shape=connector;curved=0;endArrow=open;endFill=0;endSize=10;fillColor=#e1d5e7;" parent="1" source="-47ig_28nj8kp7CaxMoa-34" target="-47ig_28nj8kp7CaxMoa-38" edge="1">
          <mxGeometry width="80" relative="1" as="geometry">
            <mxPoint x="620.66" y="1080" as="sourcePoint" />
            <mxPoint x="621" y="1120" as="targetPoint" />
            <Array as="points" />
          </mxGeometry>
        </mxCell>
        <mxCell id="-47ig_28nj8kp7CaxMoa-38" value="push char to token&#39;s string" style="whiteSpace=wrap;html=1;" parent="1" vertex="1">
          <mxGeometry x="560" y="1120" width="120" height="80" as="geometry" />
        </mxCell>
        <mxCell id="-47ig_28nj8kp7CaxMoa-40" value="" style="verticalLabelPosition=bottom;verticalAlign=top;html=1;shape=mxgraph.basic.no_symbol;fillColor=#FF0000;strokeColor=#000F0E;strokeWidth=3;perimeterSpacing=0;" parent="1" vertex="1">
          <mxGeometry x="520" y="780" width="40" height="40" as="geometry" />
        </mxCell>
        <mxCell id="-47ig_28nj8kp7CaxMoa-41" value="" style="verticalLabelPosition=bottom;verticalAlign=top;html=1;shape=mxgraph.basic.no_symbol;fillColor=#FF0000;strokeColor=#000F0E;strokeWidth=3;perimeterSpacing=0;" parent="1" vertex="1">
          <mxGeometry x="240" y="420" width="40" height="40" as="geometry" />
        </mxCell>
        <mxCell id="-47ig_28nj8kp7CaxMoa-42" value="" style="verticalLabelPosition=bottom;verticalAlign=top;html=1;shape=mxgraph.basic.no_symbol;fillColor=#FF0000;strokeColor=#000F0E;strokeWidth=3;perimeterSpacing=0;" parent="1" vertex="1">
          <mxGeometry x="240" y="540" width="40" height="40" as="geometry" />
        </mxCell>
        <mxCell id="-47ig_28nj8kp7CaxMoa-56" value="" style="verticalLabelPosition=bottom;verticalAlign=top;html=1;shape=mxgraph.basic.no_symbol;fillColor=#FF0000;strokeColor=#000F0E;strokeWidth=3;perimeterSpacing=0;" parent="1" vertex="1">
          <mxGeometry x="40" y="300" width="40" height="40" as="geometry" />
        </mxCell>
        <mxCell id="-47ig_28nj8kp7CaxMoa-57" value="" style="verticalLabelPosition=bottom;verticalAlign=top;html=1;shape=mxgraph.basic.no_symbol;fillColor=#FF0000;strokeColor=#000F0E;strokeWidth=3;perimeterSpacing=0;" parent="1" vertex="1">
          <mxGeometry x="40" y="420" width="40" height="40" as="geometry" />
        </mxCell>
        <mxCell id="-47ig_28nj8kp7CaxMoa-58" value="" style="verticalLabelPosition=bottom;verticalAlign=top;html=1;shape=mxgraph.basic.no_symbol;fillColor=#FF0000;strokeColor=#000F0E;strokeWidth=3;perimeterSpacing=0;" parent="1" vertex="1">
          <mxGeometry x="40" y="540" width="40" height="40" as="geometry" />
        </mxCell>
        <mxCell id="-47ig_28nj8kp7CaxMoa-59" value="" style="verticalLabelPosition=bottom;verticalAlign=top;html=1;shape=mxgraph.basic.no_symbol;fillColor=#FF0000;strokeColor=#000F0E;strokeWidth=3;perimeterSpacing=0;" parent="1" vertex="1">
          <mxGeometry x="40" y="660" width="40" height="40" as="geometry" />
        </mxCell>
        <mxCell id="-47ig_28nj8kp7CaxMoa-60" value="" style="verticalLabelPosition=bottom;verticalAlign=top;html=1;shape=mxgraph.basic.no_symbol;fillColor=#FF0000;strokeColor=#000F0E;strokeWidth=3;perimeterSpacing=0;" parent="1" vertex="1">
          <mxGeometry x="40" y="780" width="40" height="40" as="geometry" />
        </mxCell>
        <mxCell id="-47ig_28nj8kp7CaxMoa-61" value="" style="verticalLabelPosition=bottom;verticalAlign=top;html=1;shape=mxgraph.basic.no_symbol;fillColor=#FF0000;strokeColor=#000F0E;strokeWidth=3;perimeterSpacing=0;" parent="1" vertex="1">
          <mxGeometry x="40" y="900" width="40" height="40" as="geometry" />
        </mxCell>
        <mxCell id="-47ig_28nj8kp7CaxMoa-62" value="" style="verticalLabelPosition=bottom;verticalAlign=top;html=1;shape=mxgraph.basic.no_symbol;fillColor=#FF0000;strokeColor=#000F0E;strokeWidth=3;perimeterSpacing=0;" parent="1" vertex="1">
          <mxGeometry x="40" y="1020" width="40" height="40" as="geometry" />
        </mxCell>
        <mxCell id="-47ig_28nj8kp7CaxMoa-63" value="" style="verticalLabelPosition=bottom;verticalAlign=top;html=1;shape=mxgraph.basic.no_symbol;fillColor=#FF0000;strokeColor=#000F0E;strokeWidth=3;perimeterSpacing=0;" parent="1" vertex="1">
          <mxGeometry x="40" y="1140" width="40" height="40" as="geometry" />
        </mxCell>
        <mxCell id="-47ig_28nj8kp7CaxMoa-64" value="" style="edgeStyle=none;orthogonalLoop=1;jettySize=auto;html=1;rounded=0;shadow=0;labelBackgroundColor=default;strokeColor=#000000;strokeWidth=3;align=center;verticalAlign=middle;fontFamily=Helvetica;fontSize=11;fontColor=default;shape=connector;curved=0;endArrow=open;endFill=0;endSize=10;fillColor=#e1d5e7;" parent="1" source="-47ig_28nj8kp7CaxMoa-21" target="-47ig_28nj8kp7CaxMoa-2" edge="1">
          <mxGeometry width="80" relative="1" as="geometry">
            <mxPoint x="620.41" y="720" as="sourcePoint" />
            <mxPoint x="620.41" y="760" as="targetPoint" />
            <Array as="points" />
          </mxGeometry>
        </mxCell>
        <mxCell id="OarAyq8D3bp2OKHomz_o-2" value="redefined token" style="rhombus;whiteSpace=wrap;html=1;direction=south;fontSize=11;fillColor=#FFFFCC;gradientColor=none;fillStyle=auto;strokeWidth=1;shadow=0;rounded=0;comic=0;labelBackgroundColor=none;labelBorderColor=none;spacingTop=0;spacing=20;spacingLeft=0;spacingRight=0;strokeColor=none;" parent="1" vertex="1">
          <mxGeometry x="880" y="1000" width="120" height="80" as="geometry" />
        </mxCell>
        <mxCell id="OarAyq8D3bp2OKHomz_o-6" value="" style="edgeStyle=none;orthogonalLoop=1;jettySize=auto;html=1;rounded=0;shadow=0;labelBackgroundColor=default;strokeColor=#FF0000;strokeWidth=3;align=center;verticalAlign=middle;fontFamily=Helvetica;fontSize=11;fontColor=default;shape=connector;curved=0;endArrow=open;endFill=0;endSize=10;fillColor=#e1d5e7;" parent="1" source="OarAyq8D3bp2OKHomz_o-2" target="OarAyq8D3bp2OKHomz_o-35" edge="1">
          <mxGeometry width="80" relative="1" as="geometry">
            <mxPoint x="940.4100000000001" y="1200.33" as="sourcePoint" />
            <mxPoint x="940" y="1120.33" as="targetPoint" />
            <Array as="points" />
          </mxGeometry>
        </mxCell>
        <mxCell id="OarAyq8D3bp2OKHomz_o-7" value="incompatible assignment" style="rhombus;whiteSpace=wrap;html=1;direction=south;fontSize=11;fillColor=#FFFFCC;gradientColor=none;fillStyle=auto;strokeWidth=1;shadow=0;rounded=0;comic=0;labelBackgroundColor=none;labelBorderColor=none;spacingTop=0;spacing=20;spacingLeft=0;spacingRight=0;strokeColor=none;" parent="1" vertex="1">
          <mxGeometry x="880" y="520" width="120" height="80" as="geometry" />
        </mxCell>
        <mxCell id="OarAyq8D3bp2OKHomz_o-10" value="overflow or underflow guaranteed" style="rhombus;whiteSpace=wrap;html=1;direction=south;fontSize=11;fillColor=#FFFFCC;gradientColor=none;fillStyle=auto;strokeWidth=1;shadow=0;rounded=0;comic=0;labelBackgroundColor=none;labelBorderColor=none;spacingTop=0;spacing=20;spacingLeft=0;spacingRight=0;strokeColor=none;" parent="1" vertex="1">
          <mxGeometry x="880" y="640" width="120" height="80" as="geometry" />
        </mxCell>
        <mxCell id="OarAyq8D3bp2OKHomz_o-11" value="" style="edgeStyle=none;orthogonalLoop=1;jettySize=auto;html=1;rounded=0;shadow=0;labelBackgroundColor=default;strokeColor=#FF0000;strokeWidth=3;align=center;verticalAlign=middle;fontFamily=Helvetica;fontSize=11;fontColor=default;shape=connector;curved=0;endArrow=open;endFill=0;endSize=10;fillColor=#e1d5e7;" parent="1" source="OarAyq8D3bp2OKHomz_o-10" target="OarAyq8D3bp2OKHomz_o-13" edge="1">
          <mxGeometry width="80" relative="1" as="geometry">
            <mxPoint x="940.5700000000002" y="720" as="sourcePoint" />
            <mxPoint x="941" y="760" as="targetPoint" />
            <Array as="points" />
          </mxGeometry>
        </mxCell>
        <mxCell id="OarAyq8D3bp2OKHomz_o-13" value="overflow or underflow possible" style="rhombus;whiteSpace=wrap;html=1;direction=south;fontSize=11;fillColor=#FFFFCC;gradientColor=none;fillStyle=auto;strokeWidth=1;shadow=0;rounded=0;comic=0;labelBackgroundColor=none;labelBorderColor=none;spacingTop=0;spacing=20;spacingLeft=0;spacingRight=0;strokeColor=none;" parent="1" vertex="1">
          <mxGeometry x="880" y="760" width="120" height="80" as="geometry" />
        </mxCell>
        <mxCell id="OarAyq8D3bp2OKHomz_o-14" value="" style="edgeStyle=none;orthogonalLoop=1;jettySize=auto;html=1;rounded=0;shadow=0;labelBackgroundColor=default;strokeColor=#FF0000;strokeWidth=3;align=center;verticalAlign=middle;fontFamily=Helvetica;fontSize=11;fontColor=default;shape=connector;curved=0;endArrow=open;endFill=0;endSize=10;fillColor=#e1d5e7;" parent="1" source="OarAyq8D3bp2OKHomz_o-13" target="OarAyq8D3bp2OKHomz_o-23" edge="1">
          <mxGeometry width="80" relative="1" as="geometry">
            <mxPoint x="940.5700000000002" y="840" as="sourcePoint" />
            <mxPoint x="941" y="880" as="targetPoint" />
            <Array as="points" />
          </mxGeometry>
        </mxCell>
        <mxCell id="OarAyq8D3bp2OKHomz_o-18" value="token sequence contains undefined token" style="rhombus;whiteSpace=wrap;html=1;direction=south;fontSize=11;fillColor=#FFFFCC;gradientColor=none;fillStyle=auto;strokeWidth=1;shadow=0;rounded=0;comic=0;labelBackgroundColor=none;labelBorderColor=none;spacingTop=0;spacing=20;spacingLeft=0;spacingRight=0;strokeColor=none;" parent="1" vertex="1">
          <mxGeometry x="880" y="280" width="120" height="80" as="geometry" />
        </mxCell>
        <mxCell id="OarAyq8D3bp2OKHomz_o-19" value="" style="verticalLabelPosition=bottom;verticalAlign=top;html=1;shape=mxgraph.basic.no_symbol;fillColor=#00FF00;strokeColor=#000F0E;strokeWidth=3;perimeterSpacing=0;" parent="1" vertex="1">
          <mxGeometry x="840" y="420" width="40" height="40" as="geometry" />
        </mxCell>
        <mxCell id="OarAyq8D3bp2OKHomz_o-20" value="" style="edgeStyle=none;orthogonalLoop=1;jettySize=auto;html=1;rounded=0;shadow=0;labelBackgroundColor=default;strokeColor=#FF0000;strokeWidth=3;align=center;verticalAlign=middle;fontFamily=Helvetica;fontSize=11;fontColor=default;shape=connector;curved=0;endArrow=open;endFill=0;endSize=10;fillColor=#e1d5e7;" parent="1" source="OarAyq8D3bp2OKHomz_o-18" target="olNX-A_yrcxHF1Cur9AX-31" edge="1">
          <mxGeometry width="80" relative="1" as="geometry">
            <mxPoint x="940.52" y="370" as="sourcePoint" />
            <mxPoint x="940.52" y="410" as="targetPoint" />
            <Array as="points" />
          </mxGeometry>
        </mxCell>
        <mxCell id="OarAyq8D3bp2OKHomz_o-21" value="" style="verticalLabelPosition=bottom;verticalAlign=top;html=1;shape=mxgraph.basic.no_symbol;fillColor=#00FF00;strokeColor=#000F0E;strokeWidth=3;perimeterSpacing=0;" parent="1" vertex="1">
          <mxGeometry x="840" y="540" width="40" height="40" as="geometry" />
        </mxCell>
        <mxCell id="OarAyq8D3bp2OKHomz_o-23" value="redefined keyword" style="rhombus;whiteSpace=wrap;html=1;direction=south;fontSize=11;fillColor=#FFFFCC;gradientColor=none;fillStyle=auto;strokeWidth=1;shadow=0;rounded=0;comic=0;labelBackgroundColor=none;labelBorderColor=none;spacingTop=0;spacing=20;spacingLeft=0;spacingRight=0;strokeColor=none;" parent="1" vertex="1">
          <mxGeometry x="880" y="880" width="120" height="80" as="geometry" />
        </mxCell>
        <mxCell id="OarAyq8D3bp2OKHomz_o-25" value="" style="edgeStyle=none;orthogonalLoop=1;jettySize=auto;html=1;rounded=0;shadow=0;labelBackgroundColor=default;strokeColor=#FF0000;strokeWidth=3;align=center;verticalAlign=middle;fontFamily=Helvetica;fontSize=11;fontColor=default;shape=connector;curved=0;endArrow=open;endFill=0;endSize=10;fillColor=#e1d5e7;" parent="1" source="OarAyq8D3bp2OKHomz_o-23" target="OarAyq8D3bp2OKHomz_o-2" edge="1">
          <mxGeometry width="80" relative="1" as="geometry">
            <mxPoint x="940.504132231405" y="999.9994214876033" as="sourcePoint" />
            <mxPoint x="940" y="1040.33" as="targetPoint" />
            <Array as="points" />
          </mxGeometry>
        </mxCell>
        <mxCell id="OarAyq8D3bp2OKHomz_o-30" value="" style="verticalLabelPosition=bottom;verticalAlign=top;html=1;shape=mxgraph.basic.no_symbol;fillColor=#00FF00;strokeColor=#000F0E;strokeWidth=3;perimeterSpacing=0;" parent="1" vertex="1">
          <mxGeometry x="840" y="300" width="40" height="40" as="geometry" />
        </mxCell>
        <mxCell id="OarAyq8D3bp2OKHomz_o-31" value="" style="verticalLabelPosition=bottom;verticalAlign=top;html=1;shape=mxgraph.basic.no_symbol;fillColor=#00FF00;strokeColor=#000F0E;strokeWidth=3;perimeterSpacing=0;" parent="1" vertex="1">
          <mxGeometry x="840" y="660" width="40" height="40" as="geometry" />
        </mxCell>
        <mxCell id="OarAyq8D3bp2OKHomz_o-32" value="" style="edgeStyle=none;orthogonalLoop=1;jettySize=auto;html=1;rounded=0;shadow=0;labelBackgroundColor=default;strokeColor=#FF0000;strokeWidth=3;align=center;verticalAlign=middle;fontFamily=Helvetica;fontSize=11;fontColor=default;shape=connector;curved=0;endArrow=open;endFill=0;endSize=10;fillColor=#e1d5e7;" parent="1" source="OarAyq8D3bp2OKHomz_o-7" target="OarAyq8D3bp2OKHomz_o-10" edge="1">
          <mxGeometry width="80" relative="1" as="geometry">
            <mxPoint x="940.8600000000001" y="600" as="sourcePoint" />
            <mxPoint x="940.8600000000001" y="640" as="targetPoint" />
            <Array as="points" />
          </mxGeometry>
        </mxCell>
        <mxCell id="OarAyq8D3bp2OKHomz_o-33" value="" style="verticalLabelPosition=bottom;verticalAlign=top;html=1;shape=mxgraph.basic.no_symbol;fillColor=#00FF00;strokeColor=#000F0E;strokeWidth=3;perimeterSpacing=0;" parent="1" vertex="1">
          <mxGeometry x="840" y="900" width="40" height="40" as="geometry" />
        </mxCell>
        <mxCell id="OarAyq8D3bp2OKHomz_o-34" value="" style="whiteSpace=wrap;html=1;shape=mxgraph.basic.oval_callout;fillColor=#00FF00;strokeWidth=3;perimeterSpacing=0;" parent="1" vertex="1">
          <mxGeometry x="840" y="1020" width="40" height="40" as="geometry" />
        </mxCell>
        <mxCell id="OarAyq8D3bp2OKHomz_o-35" value="expression uses output of void function" style="rhombus;whiteSpace=wrap;html=1;direction=south;fontSize=11;fillColor=#FFFFCC;gradientColor=none;fillStyle=auto;strokeWidth=1;shadow=0;rounded=0;comic=0;labelBackgroundColor=none;labelBorderColor=none;spacingTop=0;spacing=20;spacingLeft=0;spacingRight=0;strokeColor=none;" parent="1" vertex="1">
          <mxGeometry x="880" y="1120" width="120" height="80" as="geometry" />
        </mxCell>
        <mxCell id="OarAyq8D3bp2OKHomz_o-36" value="" style="edgeStyle=none;orthogonalLoop=1;jettySize=auto;html=1;rounded=0;shadow=0;labelBackgroundColor=default;strokeColor=#FF0000;strokeWidth=3;align=center;verticalAlign=middle;fontFamily=Helvetica;fontSize=11;fontColor=default;shape=connector;curved=0;endArrow=open;endFill=0;endSize=10;fillColor=#e1d5e7;" parent="1" source="OarAyq8D3bp2OKHomz_o-35" target="OarAyq8D3bp2OKHomz_o-47" edge="1">
          <mxGeometry width="80" relative="1" as="geometry">
            <mxPoint x="940.5799999999999" y="1209.67" as="sourcePoint" />
            <mxPoint x="941" y="1240" as="targetPoint" />
            <Array as="points" />
          </mxGeometry>
        </mxCell>
        <mxCell id="OarAyq8D3bp2OKHomz_o-38" value="" style="whiteSpace=wrap;html=1;shape=mxgraph.basic.oval_callout;fillColor=#00FF00;strokeWidth=3;perimeterSpacing=0;" parent="1" vertex="1">
          <mxGeometry x="840" y="1120" width="40" height="40" as="geometry" />
        </mxCell>
        <mxCell id="OarAyq8D3bp2OKHomz_o-41" value="either assume return = 0 &amp;amp; warn, or error" style="whiteSpace=wrap;html=1;shape=mxgraph.basic.cloud_rect;fillColor=#FF99FF;" parent="1" vertex="1">
          <mxGeometry x="1000" y="1120" width="120" height="80" as="geometry" />
        </mxCell>
        <mxCell id="OarAyq8D3bp2OKHomz_o-46" value="" style="verticalLabelPosition=bottom;verticalAlign=top;html=1;shape=mxgraph.basic.no_symbol;fillColor=#00FF00;strokeColor=#000F0E;strokeWidth=3;perimeterSpacing=0;" parent="1" vertex="1">
          <mxGeometry x="840" y="1160" width="40" height="40" as="geometry" />
        </mxCell>
        <mxCell id="OarAyq8D3bp2OKHomz_o-47" value="cannot determine which implementation of overloaded function to use" style="rhombus;whiteSpace=wrap;html=1;direction=south;fontSize=11;fillColor=#FFFFCC;gradientColor=none;fillStyle=auto;strokeWidth=1;shadow=0;rounded=0;comic=0;labelBackgroundColor=none;labelBorderColor=none;spacingTop=0;spacing=20;spacingLeft=0;spacingRight=0;strokeColor=none;" parent="1" vertex="1">
          <mxGeometry x="880" y="1240" width="120" height="80" as="geometry" />
        </mxCell>
        <mxCell id="OarAyq8D3bp2OKHomz_o-48" value="" style="verticalLabelPosition=bottom;verticalAlign=top;html=1;shape=mxgraph.basic.no_symbol;fillColor=#00FF00;strokeColor=#000F0E;strokeWidth=3;perimeterSpacing=0;" parent="1" vertex="1">
          <mxGeometry x="840" y="1280" width="40" height="40" as="geometry" />
        </mxCell>
        <mxCell id="OarAyq8D3bp2OKHomz_o-50" value="" style="whiteSpace=wrap;html=1;shape=mxgraph.basic.oval_callout;fillColor=#00FF00;strokeWidth=3;perimeterSpacing=0;" parent="1" vertex="1">
          <mxGeometry x="840" y="1240" width="40" height="40" as="geometry" />
        </mxCell>
        <mxCell id="OarAyq8D3bp2OKHomz_o-51" value="either assume first definition &amp;amp; warn, or error" style="whiteSpace=wrap;html=1;shape=mxgraph.basic.cloud_rect;fillColor=#FF99FF;" parent="1" vertex="1">
          <mxGeometry x="1000" y="1240" width="120" height="80" as="geometry" />
        </mxCell>
        <mxCell id="OarAyq8D3bp2OKHomz_o-52" value="" style="edgeStyle=none;orthogonalLoop=1;jettySize=auto;html=1;rounded=0;shadow=0;labelBackgroundColor=default;strokeColor=#FF0000;strokeWidth=3;align=center;verticalAlign=middle;fontFamily=Helvetica;fontSize=11;fontColor=default;shape=connector;curved=0;endArrow=open;endFill=0;endSize=10;fillColor=#e1d5e7;" parent="1" source="OarAyq8D3bp2OKHomz_o-47" target="OarAyq8D3bp2OKHomz_o-53" edge="1">
          <mxGeometry width="80" relative="1" as="geometry">
            <mxPoint x="940.5" y="1320" as="sourcePoint" />
            <mxPoint x="940" y="1360" as="targetPoint" />
            <Array as="points" />
          </mxGeometry>
        </mxCell>
        <mxCell id="OarAyq8D3bp2OKHomz_o-53" value="declaring something in standard namespace" style="rhombus;whiteSpace=wrap;html=1;direction=south;fontSize=11;fillColor=#FFFFCC;gradientColor=none;fillStyle=auto;strokeWidth=1;shadow=0;rounded=0;comic=0;labelBackgroundColor=none;labelBorderColor=none;spacingTop=0;spacing=20;spacingLeft=0;spacingRight=0;strokeColor=none;" parent="1" vertex="1">
          <mxGeometry x="880" y="1360" width="120" height="80" as="geometry" />
        </mxCell>
        <mxCell id="OarAyq8D3bp2OKHomz_o-54" value="" style="whiteSpace=wrap;html=1;shape=mxgraph.basic.oval_callout;fillColor=#00FF00;strokeWidth=3;perimeterSpacing=0;" parent="1" vertex="1">
          <mxGeometry x="840" y="1380" width="40" height="40" as="geometry" />
        </mxCell>
        <mxCell id="OarAyq8D3bp2OKHomz_o-55" value="" style="edgeStyle=none;orthogonalLoop=1;jettySize=auto;html=1;rounded=0;shadow=0;labelBackgroundColor=default;strokeColor=#FF0000;strokeWidth=3;align=center;verticalAlign=middle;fontFamily=Helvetica;fontSize=11;fontColor=default;shape=connector;curved=0;endArrow=open;endFill=0;endSize=10;fillColor=#e1d5e7;" parent="1" source="OarAyq8D3bp2OKHomz_o-53" target="OarAyq8D3bp2OKHomz_o-58" edge="1">
          <mxGeometry width="80" relative="1" as="geometry">
            <mxPoint x="939.5" y="1450" as="sourcePoint" />
            <mxPoint x="940" y="1480" as="targetPoint" />
            <Array as="points" />
          </mxGeometry>
        </mxCell>
        <mxCell id="OarAyq8D3bp2OKHomz_o-56" value="" style="whiteSpace=wrap;html=1;shape=mxgraph.basic.oval_callout;fillColor=#00FF00;strokeWidth=3;perimeterSpacing=0;" parent="1" vertex="1">
          <mxGeometry x="840" y="780" width="40" height="40" as="geometry" />
        </mxCell>
        <mxCell id="OarAyq8D3bp2OKHomz_o-57" value="example int -&amp;gt; float, signed -&amp;gt; unsigned, void -&amp;gt; anything" style="whiteSpace=wrap;html=1;shape=mxgraph.basic.cloud_rect;fillColor=#FF99FF;" parent="1" vertex="1">
          <mxGeometry x="1000" y="520" width="120" height="80" as="geometry" />
        </mxCell>
        <mxCell id="OarAyq8D3bp2OKHomz_o-58" value="non-explicit recursion" style="rhombus;whiteSpace=wrap;html=1;direction=south;fontSize=11;fillColor=#FFFFCC;gradientColor=none;fillStyle=auto;strokeWidth=1;shadow=0;rounded=0;comic=0;labelBackgroundColor=none;labelBorderColor=none;spacingTop=0;spacing=20;spacingLeft=0;spacingRight=0;strokeColor=none;" parent="1" vertex="1">
          <mxGeometry x="880" y="1480" width="120" height="80" as="geometry" />
        </mxCell>
        <mxCell id="OarAyq8D3bp2OKHomz_o-59" value="" style="whiteSpace=wrap;html=1;shape=mxgraph.basic.oval_callout;fillColor=#00FF00;strokeWidth=3;perimeterSpacing=0;" parent="1" vertex="1">
          <mxGeometry x="840" y="1500" width="40" height="40" as="geometry" />
        </mxCell>
        <mxCell id="OarAyq8D3bp2OKHomz_o-60" value="" style="edgeStyle=none;orthogonalLoop=1;jettySize=auto;html=1;rounded=0;shadow=0;labelBackgroundColor=default;strokeColor=#FF0000;strokeWidth=3;align=center;verticalAlign=middle;fontFamily=Helvetica;fontSize=11;fontColor=default;shape=connector;curved=0;endArrow=open;endFill=0;endSize=10;fillColor=#e1d5e7;" parent="1" source="OarAyq8D3bp2OKHomz_o-58" target="OarAyq8D3bp2OKHomz_o-61" edge="1">
          <mxGeometry width="80" relative="1" as="geometry">
            <mxPoint x="939.5" y="1570" as="sourcePoint" />
            <mxPoint x="940" y="1600" as="targetPoint" />
            <Array as="points" />
          </mxGeometry>
        </mxCell>
        <mxCell id="OarAyq8D3bp2OKHomz_o-61" value="using unassigned memory" style="rhombus;whiteSpace=wrap;html=1;direction=south;fontSize=11;fillColor=#FFFFCC;gradientColor=none;fillStyle=auto;strokeWidth=1;shadow=0;rounded=0;comic=0;labelBackgroundColor=none;labelBorderColor=none;spacingTop=0;spacing=20;spacingLeft=0;spacingRight=0;strokeColor=none;" parent="1" vertex="1">
          <mxGeometry x="880" y="1600" width="120" height="80" as="geometry" />
        </mxCell>
        <mxCell id="OarAyq8D3bp2OKHomz_o-63" value="" style="verticalLabelPosition=bottom;verticalAlign=top;html=1;shape=mxgraph.basic.no_symbol;fillColor=#00FF00;strokeColor=#000F0E;strokeWidth=3;perimeterSpacing=0;" parent="1" vertex="1">
          <mxGeometry x="840" y="1640" width="40" height="40" as="geometry" />
        </mxCell>
        <mxCell id="OarAyq8D3bp2OKHomz_o-64" value="" style="whiteSpace=wrap;html=1;shape=mxgraph.basic.oval_callout;fillColor=#00FF00;strokeWidth=3;perimeterSpacing=0;" parent="1" vertex="1">
          <mxGeometry x="840" y="1600" width="40" height="40" as="geometry" />
        </mxCell>
        <mxCell id="OarAyq8D3bp2OKHomz_o-65" value="" style="edgeStyle=none;orthogonalLoop=1;jettySize=auto;html=1;rounded=0;shadow=0;labelBackgroundColor=default;strokeColor=#FF0000;strokeWidth=3;align=center;verticalAlign=middle;fontFamily=Helvetica;fontSize=11;fontColor=default;shape=connector;curved=0;endArrow=open;endFill=0;endSize=10;fillColor=#e1d5e7;" parent="1" source="OarAyq8D3bp2OKHomz_o-61" target="OarAyq8D3bp2OKHomz_o-66" edge="1">
          <mxGeometry width="80" relative="1" as="geometry">
            <mxPoint x="940" y="1680" as="sourcePoint" />
            <mxPoint x="940" y="1720" as="targetPoint" />
            <Array as="points" />
          </mxGeometry>
        </mxCell>
        <mxCell id="OarAyq8D3bp2OKHomz_o-66" value="memory not freed &amp;amp;&amp;amp; scope doesn&#39;t have destructor" style="rhombus;whiteSpace=wrap;html=1;direction=south;fontSize=11;fillColor=#FFFFCC;gradientColor=none;fillStyle=auto;strokeWidth=1;shadow=0;rounded=0;comic=0;labelBackgroundColor=none;labelBorderColor=none;spacingTop=0;spacing=20;spacingLeft=0;spacingRight=0;strokeColor=none;" parent="1" vertex="1">
          <mxGeometry x="880" y="1720" width="120" height="80" as="geometry" />
        </mxCell>
        <mxCell id="OarAyq8D3bp2OKHomz_o-67" value="" style="verticalLabelPosition=bottom;verticalAlign=top;html=1;shape=mxgraph.basic.no_symbol;fillColor=#00FF00;strokeColor=#000F0E;strokeWidth=3;perimeterSpacing=0;" parent="1" vertex="1">
          <mxGeometry x="840" y="1760" width="40" height="40" as="geometry" />
        </mxCell>
        <mxCell id="OarAyq8D3bp2OKHomz_o-68" value="" style="whiteSpace=wrap;html=1;shape=mxgraph.basic.oval_callout;fillColor=#00FF00;strokeWidth=3;perimeterSpacing=0;" parent="1" vertex="1">
          <mxGeometry x="840" y="1720" width="40" height="40" as="geometry" />
        </mxCell>
        <mxCell id="OarAyq8D3bp2OKHomz_o-69" value="" style="edgeStyle=none;orthogonalLoop=1;jettySize=auto;html=1;rounded=0;shadow=0;labelBackgroundColor=default;strokeColor=#FF0000;strokeWidth=3;align=center;verticalAlign=middle;fontFamily=Helvetica;fontSize=11;fontColor=default;shape=connector;curved=0;endArrow=open;endFill=0;endSize=10;fillColor=#e1d5e7;" parent="1" source="OarAyq8D3bp2OKHomz_o-66" target="OarAyq8D3bp2OKHomz_o-70" edge="1">
          <mxGeometry width="80" relative="1" as="geometry">
            <mxPoint x="939.5699999999999" y="1800" as="sourcePoint" />
            <mxPoint x="940" y="1840" as="targetPoint" />
            <Array as="points" />
          </mxGeometry>
        </mxCell>
        <mxCell id="OarAyq8D3bp2OKHomz_o-70" value="consecutive unconditional immediate assignments" style="rhombus;whiteSpace=wrap;html=1;direction=south;fontSize=11;fillColor=#FFFFCC;gradientColor=none;fillStyle=auto;strokeWidth=1;shadow=0;rounded=0;comic=0;labelBackgroundColor=none;labelBorderColor=none;spacingTop=0;spacing=20;spacingLeft=0;spacingRight=0;strokeColor=none;" parent="1" vertex="1">
          <mxGeometry x="880" y="1840" width="120" height="80" as="geometry" />
        </mxCell>
        <mxCell id="OarAyq8D3bp2OKHomz_o-71" value="" style="edgeStyle=none;orthogonalLoop=1;jettySize=auto;html=1;rounded=0;shadow=0;labelBackgroundColor=default;strokeColor=#FF0000;strokeWidth=3;align=center;verticalAlign=middle;fontFamily=Helvetica;fontSize=11;fontColor=default;shape=connector;curved=0;endArrow=open;endFill=0;endSize=10;fillColor=#e1d5e7;" parent="1" source="OarAyq8D3bp2OKHomz_o-70" target="OarAyq8D3bp2OKHomz_o-73" edge="1">
          <mxGeometry width="80" relative="1" as="geometry">
            <mxPoint x="939.5699999999999" y="1920" as="sourcePoint" />
            <mxPoint x="940" y="1960" as="targetPoint" />
            <Array as="points" />
          </mxGeometry>
        </mxCell>
        <mxCell id="OarAyq8D3bp2OKHomz_o-72" value="" style="whiteSpace=wrap;html=1;shape=mxgraph.basic.oval_callout;fillColor=#00FF00;strokeWidth=3;perimeterSpacing=0;" parent="1" vertex="1">
          <mxGeometry x="840" y="1860" width="40" height="40" as="geometry" />
        </mxCell>
        <mxCell id="OarAyq8D3bp2OKHomz_o-73" value="needless conditional expression" style="rhombus;whiteSpace=wrap;html=1;direction=south;fontSize=11;fillColor=#FFFFCC;gradientColor=none;fillStyle=auto;strokeWidth=1;shadow=0;rounded=0;comic=0;labelBackgroundColor=none;labelBorderColor=none;spacingTop=0;spacing=20;spacingLeft=0;spacingRight=0;strokeColor=none;" parent="1" vertex="1">
          <mxGeometry x="880" y="1960" width="120" height="80" as="geometry" />
        </mxCell>
        <mxCell id="OarAyq8D3bp2OKHomz_o-74" value="" style="edgeStyle=none;orthogonalLoop=1;jettySize=auto;html=1;rounded=0;shadow=0;labelBackgroundColor=default;strokeColor=#FF0000;strokeWidth=3;align=center;verticalAlign=middle;fontFamily=Helvetica;fontSize=11;fontColor=default;shape=connector;curved=0;endArrow=open;endFill=0;endSize=10;fillColor=#e1d5e7;" parent="1" source="OarAyq8D3bp2OKHomz_o-73" edge="1">
          <mxGeometry width="80" relative="1" as="geometry">
            <mxPoint x="939.5699999999999" y="2040" as="sourcePoint" />
            <mxPoint x="940" y="2080" as="targetPoint" />
            <Array as="points" />
          </mxGeometry>
        </mxCell>
        <mxCell id="OarAyq8D3bp2OKHomz_o-75" value="" style="whiteSpace=wrap;html=1;shape=mxgraph.basic.oval_callout;fillColor=#00FF00;strokeWidth=3;perimeterSpacing=0;" parent="1" vertex="1">
          <mxGeometry x="840" y="1980" width="40" height="40" as="geometry" />
        </mxCell>
        <mxCell id="OarAyq8D3bp2OKHomz_o-76" value="all branches have same result, or something like &quot;if (true) {true} else {false}" style="whiteSpace=wrap;html=1;shape=mxgraph.basic.cloud_rect;fillColor=#FF99FF;" parent="1" vertex="1">
          <mxGeometry x="1000" y="1960" width="120" height="80" as="geometry" />
        </mxCell>
        <mxCell id="OarAyq8D3bp2OKHomz_o-77" value="a = 1, a = 2, a = 3...&lt;br&gt;can ignore all but last" style="whiteSpace=wrap;html=1;shape=mxgraph.basic.cloud_rect;fillColor=#FF99FF;" parent="1" vertex="1">
          <mxGeometry x="1000" y="1840" width="120" height="80" as="geometry" />
        </mxCell>
        <mxCell id="OarAyq8D3bp2OKHomz_o-80" value="open next file" style="spacing=20;fontSize=11;snapToPoint=0;fixDash=0;container=0;metaEdit=0;backgroundOutline=0;autosize=0;movableLabel=0;fixedWidth=0;absoluteArcSize=0;imageAspect=1;overflow=visible;whiteSpace=wrap;html=1;perimeter=rectanglePerimeter;dropTarget=0;connectable=1;allowArrows=1;portConstraintRotation=0;direction=south;arcSize=12;glass=0;shadow=0;fillStyle=auto;gradientColor=none;flipH=1;flipV=0;" parent="1" vertex="1">
          <mxGeometry x="440" y="280" width="120" height="80" as="geometry" />
        </mxCell>
        <mxCell id="OarAyq8D3bp2OKHomz_o-82" value="yet to open first source file" style="rhombus;whiteSpace=wrap;html=1;direction=south;fontSize=11;fillColor=#FFFFCC;gradientColor=none;fillStyle=auto;strokeWidth=1;shadow=0;rounded=0;comic=0;labelBackgroundColor=none;labelBorderColor=none;spacingTop=0;spacing=20;spacingLeft=0;spacingRight=0;strokeColor=none;" parent="1" vertex="1">
          <mxGeometry x="280" y="160" width="120" height="80" as="geometry" />
        </mxCell>
        <mxCell id="OarAyq8D3bp2OKHomz_o-84" value="" style="edgeStyle=elbowEdgeStyle;orthogonalLoop=1;jettySize=auto;html=1;rounded=0;shadow=0;labelBackgroundColor=default;strokeColor=#FF0000;strokeWidth=3;align=center;verticalAlign=middle;fontFamily=Helvetica;fontSize=11;fontColor=default;shape=connector;endArrow=open;endFill=0;endSize=10;fillColor=#e1d5e7;jumpStyle=none;startFill=0;perimeterSpacing=0;fixDash=0;snapToPoint=0;anchorPointDirection=1;editable=1;movable=1;resizable=1;rotatable=1;deletable=1;locked=0;connectable=1;noJump=0;flowAnimation=0;ignoreEdge=0;orthogonal=0;enumerate=0;comic=0;" parent="1" source="OarAyq8D3bp2OKHomz_o-82" target="OarAyq8D3bp2OKHomz_o-85" edge="1">
          <mxGeometry width="80" relative="1" as="geometry">
            <mxPoint x="340" y="240" as="sourcePoint" />
            <mxPoint x="340" y="280" as="targetPoint" />
            <Array as="points" />
          </mxGeometry>
        </mxCell>
        <mxCell id="OarAyq8D3bp2OKHomz_o-85" value="reached end of file" style="rhombus;whiteSpace=wrap;html=1;direction=south;fontSize=11;fillColor=#FFFFCC;gradientColor=none;fillStyle=auto;strokeWidth=1;shadow=0;rounded=0;comic=0;labelBackgroundColor=none;labelBorderColor=none;spacingTop=0;spacing=20;spacingLeft=0;spacingRight=0;strokeColor=none;" parent="1" vertex="1">
          <mxGeometry x="280" y="280" width="120" height="80" as="geometry" />
        </mxCell>
        <mxCell id="OarAyq8D3bp2OKHomz_o-87" value="" style="edgeStyle=elbowEdgeStyle;orthogonalLoop=1;jettySize=auto;html=1;rounded=0;shadow=0;labelBackgroundColor=default;strokeColor=#00FF00;strokeWidth=3;align=center;verticalAlign=middle;fontFamily=Helvetica;fontSize=11;fontColor=default;shape=connector;endArrow=open;endFill=0;endSize=10;fillColor=#e1d5e7;jumpStyle=none;startFill=0;perimeterSpacing=0;fixDash=0;snapToPoint=0;anchorPointDirection=1;editable=1;movable=1;resizable=1;rotatable=1;deletable=1;locked=0;connectable=1;noJump=0;flowAnimation=0;ignoreEdge=0;orthogonal=0;enumerate=0;comic=0;" parent="1" source="OarAyq8D3bp2OKHomz_o-82" target="OarAyq8D3bp2OKHomz_o-88" edge="1">
          <mxGeometry width="80" relative="1" as="geometry">
            <mxPoint x="520" y="200" as="sourcePoint" />
            <mxPoint x="450" y="200" as="targetPoint" />
            <Array as="points" />
          </mxGeometry>
        </mxCell>
        <mxCell id="OarAyq8D3bp2OKHomz_o-88" value="open first file" style="spacing=20;fontSize=11;snapToPoint=0;fixDash=0;container=0;metaEdit=0;backgroundOutline=0;autosize=0;movableLabel=0;fixedWidth=0;absoluteArcSize=0;imageAspect=1;overflow=visible;whiteSpace=wrap;html=1;perimeter=rectanglePerimeter;dropTarget=0;connectable=1;allowArrows=1;portConstraintRotation=0;direction=south;arcSize=12;glass=0;shadow=0;fillStyle=auto;gradientColor=none;flipH=1;flipV=0;" parent="1" vertex="1">
          <mxGeometry x="440" y="160" width="120" height="80" as="geometry" />
        </mxCell>
        <mxCell id="OarAyq8D3bp2OKHomz_o-89" value="" style="edgeStyle=orthogonalEdgeStyle;orthogonalLoop=1;jettySize=auto;html=1;rounded=0;shadow=0;labelBackgroundColor=default;strokeColor=#000F0E;strokeWidth=3;align=center;verticalAlign=middle;fontFamily=Helvetica;fontSize=11;fontColor=default;shape=connector;endArrow=open;endFill=0;endSize=10;fillColor=#e1d5e7;" parent="1" source="OarAyq8D3bp2OKHomz_o-80" target="-47ig_28nj8kp7CaxMoa-10" edge="1">
          <mxGeometry width="80" relative="1" as="geometry">
            <mxPoint x="660" y="310" as="sourcePoint" />
            <mxPoint x="760" y="110" as="targetPoint" />
            <Array as="points">
              <mxPoint x="620" y="320" />
            </Array>
          </mxGeometry>
        </mxCell>
        <mxCell id="OarAyq8D3bp2OKHomz_o-90" value="" style="edgeStyle=orthogonalEdgeStyle;orthogonalLoop=1;jettySize=auto;html=1;rounded=0;shadow=0;labelBackgroundColor=default;strokeColor=#000F0E;strokeWidth=3;align=center;verticalAlign=middle;fontFamily=Helvetica;fontSize=11;fontColor=default;shape=connector;endArrow=open;endFill=0;endSize=10;fillColor=#e1d5e7;" parent="1" target="-47ig_28nj8kp7CaxMoa-10" edge="1">
          <mxGeometry width="80" relative="1" as="geometry">
            <mxPoint x="560" y="200" as="sourcePoint" />
            <mxPoint x="620" y="280" as="targetPoint" />
            <Array as="points">
              <mxPoint x="620" y="200" />
            </Array>
          </mxGeometry>
        </mxCell>
        <mxCell id="OarAyq8D3bp2OKHomz_o-91" value="eol &#39;;&#39; || newline &#39;\n&#39; ||&amp;nbsp;space &#39; &#39; ||&amp;nbsp;tab &#39;\t&#39; ||&amp;nbsp;&lt;br&gt;parentheses &#39;(&#39; &#39;)&#39; ||&amp;nbsp; end of file || etc." style="whiteSpace=wrap;html=1;shape=mxgraph.basic.cloud_rect;fillColor=#FF99FF;" parent="1" vertex="1">
          <mxGeometry x="680" y="880" width="120" height="80" as="geometry" />
        </mxCell>
        <mxCell id="OarAyq8D3bp2OKHomz_o-92" value="" style="edgeStyle=none;orthogonalLoop=1;jettySize=auto;html=1;rounded=0;shadow=0;labelBackgroundColor=default;strokeColor=#FF0000;strokeWidth=3;align=center;verticalAlign=middle;fontFamily=Helvetica;fontSize=11;fontColor=default;shape=connector;curved=0;endArrow=open;endFill=0;endSize=10;fillColor=#e1d5e7;" parent="1" source="-47ig_28nj8kp7CaxMoa-8" target="-47ig_28nj8kp7CaxMoa-34" edge="1">
          <mxGeometry width="80" relative="1" as="geometry">
            <mxPoint x="610" y="979.29" as="sourcePoint" />
            <mxPoint x="651" y="979.29" as="targetPoint" />
            <Array as="points" />
          </mxGeometry>
        </mxCell>
        <mxCell id="OarAyq8D3bp2OKHomz_o-93" value="" style="edgeStyle=orthogonalEdgeStyle;orthogonalLoop=1;jettySize=auto;html=1;rounded=0;shadow=0;labelBackgroundColor=default;strokeColor=#FF0000;strokeWidth=3;align=center;verticalAlign=middle;fontFamily=Helvetica;fontSize=11;fontColor=default;shape=connector;endArrow=open;endFill=0;endSize=10;fillColor=#e1d5e7;" parent="1" source="-47ig_28nj8kp7CaxMoa-34" target="-47ig_28nj8kp7CaxMoa-17" edge="1">
          <mxGeometry width="80" relative="1" as="geometry">
            <mxPoint x="730" y="1030" as="sourcePoint" />
            <mxPoint x="720" y="1040" as="targetPoint" />
            <Array as="points">
              <mxPoint x="710" y="1040" />
              <mxPoint x="710" y="560" />
            </Array>
          </mxGeometry>
        </mxCell>
        <mxCell id="-47ig_28nj8kp7CaxMoa-16" value="" style="edgeStyle=orthogonalEdgeStyle;orthogonalLoop=1;jettySize=auto;html=1;rounded=0;shadow=0;labelBackgroundColor=default;strokeColor=#FF0000;strokeWidth=3;align=center;verticalAlign=middle;fontFamily=Helvetica;fontSize=11;fontColor=default;shape=connector;endArrow=open;endFill=0;endSize=10;fillColor=#e1d5e7;" parent="1" source="OarAyq8D3bp2OKHomz_o-123" target="-47ig_28nj8kp7CaxMoa-17" edge="1">
          <mxGeometry width="80" relative="1" as="geometry">
            <mxPoint x="680" y="920" as="sourcePoint" />
            <mxPoint x="731" y="540" as="targetPoint" />
            <Array as="points">
              <mxPoint x="710" y="890" />
              <mxPoint x="710" y="560" />
            </Array>
          </mxGeometry>
        </mxCell>
        <mxCell id="R6Z1yb6CXLKJlxrgktv8-9" style="rounded=0;orthogonalLoop=0;jettySize=auto;html=1;endArrow=none;endFill=0;strokeColor=none;startFill=0;anchorPointDirection=0;backgroundOutline=0;bendable=0;deletable=0;flowAnimation=0;" parent="1" edge="1">
          <mxGeometry relative="1" as="geometry">
            <mxPoint x="260" y="1510" as="targetPoint" />
            <Array as="points" />
          </mxGeometry>
        </mxCell>
        <mxCell id="igJF8wx0j29mRrn_wtGt-2" value="" style="edgeStyle=none;orthogonalLoop=1;jettySize=auto;html=1;rounded=0;shadow=0;labelBackgroundColor=default;strokeColor=#000000;strokeWidth=3;align=center;verticalAlign=middle;fontFamily=Helvetica;fontSize=11;fontColor=default;shape=connector;curved=0;endArrow=open;endFill=0;endSize=10;fillColor=#e1d5e7;" parent="1" source="-47ig_28nj8kp7CaxMoa-38" target="olNX-A_yrcxHF1Cur9AX-41" edge="1">
          <mxGeometry width="80" relative="1" as="geometry">
            <mxPoint x="419.5041322314049" y="1150.3305785123966" as="sourcePoint" />
            <mxPoint x="420.5041322314049" y="1190.3305785123966" as="targetPoint" />
            <Array as="points" />
          </mxGeometry>
        </mxCell>
      </root>
    </mxGraphModel>
  </diagram>
  <diagram id="n-Dsi91Z7k5n_fO1pFiI" name="regex">
    <mxGraphModel dx="3034" dy="1736" grid="1" gridSize="10" guides="1" tooltips="1" connect="1" arrows="1" fold="1" page="1" pageScale="1" pageWidth="1600" pageHeight="900" math="0" shadow="0">
      <root>
        <mxCell id="0" />
        <mxCell id="1" parent="0" />
        <mxCell id="cWPUTDk-0F07ngU3VYky-9" value="enter function" style="whiteSpace=wrap;html=1;" parent="1" vertex="1">
          <mxGeometry x="720" y="-840" width="120" height="80" as="geometry" />
        </mxCell>
        <mxCell id="cWPUTDk-0F07ngU3VYky-10" value="" style="edgeStyle=none;orthogonalLoop=1;jettySize=auto;html=1;rounded=0;shadow=0;labelBackgroundColor=default;strokeColor=#000000;strokeWidth=3;align=center;verticalAlign=middle;fontFamily=Helvetica;fontSize=11;fontColor=default;shape=connector;curved=0;endArrow=open;endFill=0;endSize=10;fillColor=#e1d5e7;" parent="1" source="cWPUTDk-0F07ngU3VYky-9" target="pMrtrNa-W5XAD92lEqUC-2" edge="1">
          <mxGeometry width="80" relative="1" as="geometry">
            <mxPoint x="950" y="-560" as="sourcePoint" />
            <mxPoint x="780" y="-680" as="targetPoint" />
          </mxGeometry>
        </mxCell>
        <mxCell id="K0IDoOXKWO9ZwHZOIm7M-4" value="" style="edgeStyle=none;orthogonalLoop=1;jettySize=auto;html=1;rounded=0;shadow=0;labelBackgroundColor=default;strokeColor=#00FF00;strokeWidth=3;align=center;verticalAlign=middle;fontFamily=Helvetica;fontSize=11;fontColor=default;shape=connector;curved=0;endArrow=open;endFill=0;endSize=10;fillColor=#e1d5e7;" parent="1" source="K0IDoOXKWO9ZwHZOIm7M-2" target="K0IDoOXKWO9ZwHZOIm7M-5" edge="1">
          <mxGeometry width="80" relative="1" as="geometry">
            <mxPoint x="949.5041322314049" y="-549.6694214876034" as="sourcePoint" />
            <mxPoint x="880" y="-540" as="targetPoint" />
          </mxGeometry>
        </mxCell>
        <mxCell id="K0IDoOXKWO9ZwHZOIm7M-5" value="expr_index++;" style="whiteSpace=wrap;html=1;" parent="1" vertex="1">
          <mxGeometry x="1040" y="-600" width="120" height="80" as="geometry" />
        </mxCell>
        <mxCell id="K0IDoOXKWO9ZwHZOIm7M-6" value="" style="orthogonalLoop=1;jettySize=auto;html=1;rounded=0;shadow=0;labelBackgroundColor=default;strokeColor=#FF0000;strokeWidth=3;align=center;verticalAlign=middle;fontFamily=Helvetica;fontSize=11;fontColor=default;shape=connector;endArrow=open;endFill=0;endSize=10;fillColor=#e1d5e7;jumpStyle=none;startFill=0;perimeterSpacing=0;fixDash=0;snapToPoint=0;anchorPointDirection=1;editable=1;movable=1;resizable=1;rotatable=1;deletable=1;locked=0;connectable=1;noJump=0;flowAnimation=0;ignoreEdge=0;orthogonal=0;enumerate=0;comic=0;" parent="1" source="K0IDoOXKWO9ZwHZOIm7M-2" target="_Qh-26nUSpiDtWEDh_ZP-8" edge="1">
          <mxGeometry width="80" relative="1" as="geometry">
            <mxPoint x="779.7785977859778" y="-499.85239852398536" as="sourcePoint" />
            <mxPoint x="780" y="-480" as="targetPoint" />
          </mxGeometry>
        </mxCell>
        <mxCell id="K0IDoOXKWO9ZwHZOIm7M-11" value="" style="edgeStyle=none;orthogonalLoop=1;jettySize=auto;html=1;rounded=0;shadow=0;labelBackgroundColor=default;strokeColor=#000000;strokeWidth=3;align=center;verticalAlign=middle;fontFamily=Helvetica;fontSize=11;fontColor=default;shape=connector;curved=0;endArrow=open;endFill=0;endSize=10;fillColor=#e1d5e7;" parent="1" source="K0IDoOXKWO9ZwHZOIm7M-5" target="K0IDoOXKWO9ZwHZOIm7M-7" edge="1">
          <mxGeometry width="80" relative="1" as="geometry">
            <mxPoint x="1100" y="-520" as="sourcePoint" />
            <mxPoint x="1100" y="-480" as="targetPoint" />
          </mxGeometry>
        </mxCell>
        <mxCell id="K0IDoOXKWO9ZwHZOIm7M-12" value="" style="orthogonalLoop=1;jettySize=auto;html=1;rounded=0;shadow=0;labelBackgroundColor=default;strokeColor=#00FF00;strokeWidth=3;align=center;verticalAlign=middle;fontFamily=Helvetica;fontSize=11;fontColor=default;shape=connector;endArrow=open;endFill=0;endSize=10;fillColor=#e1d5e7;" parent="1" source="K0IDoOXKWO9ZwHZOIm7M-7" target="pMrtrNa-W5XAD92lEqUC-17" edge="1">
          <mxGeometry width="80" relative="1" as="geometry">
            <mxPoint x="1229.504132231405" y="-429.66942148760336" as="sourcePoint" />
            <mxPoint x="780" y="-324.9999999999998" as="targetPoint" />
          </mxGeometry>
        </mxCell>
        <mxCell id="K0IDoOXKWO9ZwHZOIm7M-16" value="" style="edgeStyle=none;orthogonalLoop=1;jettySize=auto;html=1;rounded=0;shadow=0;labelBackgroundColor=default;strokeColor=#00FF00;strokeWidth=3;align=center;verticalAlign=middle;fontFamily=Helvetica;fontSize=11;fontColor=default;shape=connector;curved=0;endArrow=open;endFill=0;endSize=10;fillColor=#e1d5e7;" parent="1" source="K0IDoOXKWO9ZwHZOIm7M-14" target="K0IDoOXKWO9ZwHZOIm7M-17" edge="1">
          <mxGeometry width="80" relative="1" as="geometry">
            <mxPoint x="1229.504132231405" y="-309.66942148760336" as="sourcePoint" />
            <mxPoint x="1200" y="-320" as="targetPoint" />
          </mxGeometry>
        </mxCell>
        <mxCell id="K0IDoOXKWO9ZwHZOIm7M-17" value="check if src char matches backslash;" style="whiteSpace=wrap;html=1;" parent="1" vertex="1">
          <mxGeometry x="1200" y="-360" width="120" height="80" as="geometry" />
        </mxCell>
        <mxCell id="K0IDoOXKWO9ZwHZOIm7M-20" value="" style="edgeStyle=none;orthogonalLoop=1;jettySize=auto;html=1;rounded=0;shadow=0;labelBackgroundColor=default;strokeColor=#00FF00;strokeWidth=3;align=center;verticalAlign=middle;fontFamily=Helvetica;fontSize=11;fontColor=default;shape=connector;curved=0;endArrow=open;endFill=0;endSize=10;fillColor=#e1d5e7;" parent="1" source="K0IDoOXKWO9ZwHZOIm7M-18" target="K0IDoOXKWO9ZwHZOIm7M-21" edge="1">
          <mxGeometry width="80" relative="1" as="geometry">
            <mxPoint x="1229.504132231405" y="-189.66942148760336" as="sourcePoint" />
            <mxPoint x="1200" y="-200" as="targetPoint" />
          </mxGeometry>
        </mxCell>
        <mxCell id="K0IDoOXKWO9ZwHZOIm7M-21" value="check if src char matches newline;" style="whiteSpace=wrap;html=1;" parent="1" vertex="1">
          <mxGeometry x="1200" y="-240" width="120" height="80" as="geometry" />
        </mxCell>
        <mxCell id="K0IDoOXKWO9ZwHZOIm7M-24" value="" style="edgeStyle=none;orthogonalLoop=1;jettySize=auto;html=1;rounded=0;shadow=0;labelBackgroundColor=default;strokeColor=#00FF00;strokeWidth=3;align=center;verticalAlign=middle;fontFamily=Helvetica;fontSize=11;fontColor=default;shape=connector;curved=0;endArrow=open;endFill=0;endSize=10;fillColor=#e1d5e7;" parent="1" source="K0IDoOXKWO9ZwHZOIm7M-22" target="K0IDoOXKWO9ZwHZOIm7M-25" edge="1">
          <mxGeometry width="80" relative="1" as="geometry">
            <mxPoint x="1229.504132231405" y="-69.66942148760336" as="sourcePoint" />
            <mxPoint x="1200" y="-80" as="targetPoint" />
          </mxGeometry>
        </mxCell>
        <mxCell id="K0IDoOXKWO9ZwHZOIm7M-25" value="check if src char matches tab;" style="whiteSpace=wrap;html=1;" parent="1" vertex="1">
          <mxGeometry x="1200" y="-120" width="120" height="80" as="geometry" />
        </mxCell>
        <mxCell id="K0IDoOXKWO9ZwHZOIm7M-28" value="" style="edgeStyle=none;orthogonalLoop=1;jettySize=auto;html=1;rounded=0;shadow=0;labelBackgroundColor=default;strokeColor=#00FF00;strokeWidth=3;align=center;verticalAlign=middle;fontFamily=Helvetica;fontSize=11;fontColor=default;shape=connector;curved=0;endArrow=open;endFill=0;endSize=10;fillColor=#e1d5e7;" parent="1" source="K0IDoOXKWO9ZwHZOIm7M-26" target="K0IDoOXKWO9ZwHZOIm7M-29" edge="1">
          <mxGeometry width="80" relative="1" as="geometry">
            <mxPoint x="1180" y="-20" as="sourcePoint" />
            <mxPoint x="1200" y="40" as="targetPoint" />
          </mxGeometry>
        </mxCell>
        <mxCell id="K0IDoOXKWO9ZwHZOIm7M-29" value="check if src char matches null;" style="whiteSpace=wrap;html=1;" parent="1" vertex="1">
          <mxGeometry x="1200" width="120" height="80" as="geometry" />
        </mxCell>
        <mxCell id="K0IDoOXKWO9ZwHZOIm7M-30" value="" style="edgeStyle=elbowEdgeStyle;orthogonalLoop=1;jettySize=auto;html=1;rounded=0;shadow=0;labelBackgroundColor=default;strokeColor=#FF0000;strokeWidth=3;align=center;verticalAlign=middle;fontFamily=Helvetica;fontSize=11;fontColor=default;shape=connector;endArrow=open;endFill=0;endSize=10;fillColor=#e1d5e7;jumpStyle=none;startFill=0;perimeterSpacing=0;fixDash=0;snapToPoint=0;anchorPointDirection=1;editable=1;movable=1;resizable=1;rotatable=1;deletable=1;locked=0;connectable=1;noJump=0;flowAnimation=0;ignoreEdge=0;orthogonal=0;enumerate=0;comic=0;" parent="1" source="K0IDoOXKWO9ZwHZOIm7M-7" target="K0IDoOXKWO9ZwHZOIm7M-14" edge="1">
          <mxGeometry width="80" relative="1" as="geometry">
            <mxPoint x="1099.7785977859778" y="-399.85239852398536" as="sourcePoint" />
            <mxPoint x="1099.7785977859778" y="-359.85239852398536" as="targetPoint" />
          </mxGeometry>
        </mxCell>
        <mxCell id="K0IDoOXKWO9ZwHZOIm7M-31" value="" style="edgeStyle=elbowEdgeStyle;orthogonalLoop=1;jettySize=auto;html=1;rounded=0;shadow=0;labelBackgroundColor=default;strokeColor=#FF0000;strokeWidth=3;align=center;verticalAlign=middle;fontFamily=Helvetica;fontSize=11;fontColor=default;shape=connector;endArrow=open;endFill=0;endSize=10;fillColor=#e1d5e7;jumpStyle=none;startFill=0;perimeterSpacing=0;fixDash=0;snapToPoint=0;anchorPointDirection=1;editable=1;movable=1;resizable=1;rotatable=1;deletable=1;locked=0;connectable=1;noJump=0;flowAnimation=0;ignoreEdge=0;orthogonal=0;enumerate=0;comic=0;" parent="1" source="K0IDoOXKWO9ZwHZOIm7M-14" target="K0IDoOXKWO9ZwHZOIm7M-18" edge="1">
          <mxGeometry width="80" relative="1" as="geometry">
            <mxPoint x="1089.7785977859778" y="-269.85239852398536" as="sourcePoint" />
            <mxPoint x="1089.7785977859778" y="-229.85239852398536" as="targetPoint" />
          </mxGeometry>
        </mxCell>
        <mxCell id="K0IDoOXKWO9ZwHZOIm7M-32" value="" style="edgeStyle=elbowEdgeStyle;orthogonalLoop=1;jettySize=auto;html=1;rounded=0;shadow=0;labelBackgroundColor=default;strokeColor=#FF0000;strokeWidth=3;align=center;verticalAlign=middle;fontFamily=Helvetica;fontSize=11;fontColor=default;shape=connector;endArrow=open;endFill=0;endSize=10;fillColor=#e1d5e7;jumpStyle=none;startFill=0;perimeterSpacing=0;fixDash=0;snapToPoint=0;anchorPointDirection=1;editable=1;movable=1;resizable=1;rotatable=1;deletable=1;locked=0;connectable=1;noJump=0;flowAnimation=0;ignoreEdge=0;orthogonal=0;enumerate=0;comic=0;" parent="1" source="K0IDoOXKWO9ZwHZOIm7M-18" target="K0IDoOXKWO9ZwHZOIm7M-22" edge="1">
          <mxGeometry width="80" relative="1" as="geometry">
            <mxPoint x="999.7785977859778" y="-159.85239852398536" as="sourcePoint" />
            <mxPoint x="999.7785977859778" y="-119.85239852398536" as="targetPoint" />
          </mxGeometry>
        </mxCell>
        <mxCell id="K0IDoOXKWO9ZwHZOIm7M-33" value="" style="edgeStyle=elbowEdgeStyle;orthogonalLoop=1;jettySize=auto;html=1;rounded=0;shadow=0;labelBackgroundColor=default;strokeColor=#FF0000;strokeWidth=3;align=center;verticalAlign=middle;fontFamily=Helvetica;fontSize=11;fontColor=default;shape=connector;endArrow=open;endFill=0;endSize=10;fillColor=#e1d5e7;jumpStyle=none;startFill=0;perimeterSpacing=0;fixDash=0;snapToPoint=0;anchorPointDirection=1;editable=1;movable=1;resizable=1;rotatable=1;deletable=1;locked=0;connectable=1;noJump=0;flowAnimation=0;ignoreEdge=0;orthogonal=0;enumerate=0;comic=0;" parent="1" source="K0IDoOXKWO9ZwHZOIm7M-22" target="K0IDoOXKWO9ZwHZOIm7M-26" edge="1">
          <mxGeometry width="80" relative="1" as="geometry">
            <mxPoint x="999.7785977859778" y="-29.852398523985357" as="sourcePoint" />
            <mxPoint x="999.7785977859778" y="10.147601476014643" as="targetPoint" />
          </mxGeometry>
        </mxCell>
        <mxCell id="K0IDoOXKWO9ZwHZOIm7M-45" value="" style="orthogonalLoop=1;jettySize=auto;html=1;rounded=0;shadow=0;labelBackgroundColor=default;strokeColor=#00FF00;strokeWidth=3;align=center;verticalAlign=middle;fontFamily=Helvetica;fontSize=11;fontColor=default;shape=connector;endArrow=open;endFill=0;endSize=10;fillColor=#e1d5e7;elbow=vertical;" parent="1" source="K0IDoOXKWO9ZwHZOIm7M-43" target="K0IDoOXKWO9ZwHZOIm7M-48" edge="1">
          <mxGeometry width="80" relative="1" as="geometry">
            <mxPoint x="1469.504132231405" y="-599.6694214876034" as="sourcePoint" />
            <mxPoint x="1410" y="-580" as="targetPoint" />
          </mxGeometry>
        </mxCell>
        <mxCell id="K0IDoOXKWO9ZwHZOIm7M-48" value="decrease expression index back to whatever comes after most recent wildcard" style="whiteSpace=wrap;html=1;" parent="1" vertex="1">
          <mxGeometry x="1160" y="-720" width="120" height="80" as="geometry" />
        </mxCell>
        <mxCell id="K0IDoOXKWO9ZwHZOIm7M-50" value="expr_index++;" style="whiteSpace=wrap;html=1;" parent="1" vertex="1">
          <mxGeometry x="1440" y="-600" width="120" height="80" as="geometry" />
        </mxCell>
        <mxCell id="K0IDoOXKWO9ZwHZOIm7M-57" value="" style="orthogonalLoop=1;jettySize=auto;html=1;rounded=0;shadow=0;labelBackgroundColor=default;strokeColor=#000000;strokeWidth=3;align=center;verticalAlign=middle;fontFamily=Helvetica;fontSize=11;fontColor=default;shape=connector;endArrow=open;endFill=0;endSize=10;fillColor=#e1d5e7;entryX=0.5;entryY=1;entryDx=0;entryDy=0;" parent="1" source="iJj9vJ7JR3mfp1t2i5Jt-7" target="K0IDoOXKWO9ZwHZOIm7M-50" edge="1">
          <mxGeometry width="80" relative="1" as="geometry">
            <mxPoint x="1500" y="-480" as="sourcePoint" />
            <mxPoint x="1490" y="-500" as="targetPoint" />
          </mxGeometry>
        </mxCell>
        <mxCell id="iZvxD1WqvHBSJ7Z55byQ-7" value="" style="edgeStyle=none;orthogonalLoop=1;jettySize=auto;html=1;rounded=0;endArrow=none;endFill=0;strokeWidth=3;strokeColor=#FF0000;jumpStyle=sharp;jumpSize=10;" parent="1" source="K0IDoOXKWO9ZwHZOIm7M-17" target="pMrtrNa-W5XAD92lEqUC-8" edge="1">
          <mxGeometry width="80" relative="1" as="geometry">
            <mxPoint x="1320" y="-300" as="sourcePoint" />
            <mxPoint x="1370" y="-300" as="targetPoint" />
          </mxGeometry>
        </mxCell>
        <mxCell id="iZvxD1WqvHBSJ7Z55byQ-9" value="" style="edgeStyle=none;orthogonalLoop=1;jettySize=auto;html=1;rounded=0;endArrow=none;endFill=0;strokeWidth=3;strokeColor=#FF0000;jumpStyle=sharp;jumpSize=10;" parent="1" source="K0IDoOXKWO9ZwHZOIm7M-21" target="pMrtrNa-W5XAD92lEqUC-7" edge="1">
          <mxGeometry width="80" relative="1" as="geometry">
            <mxPoint x="1320" y="-180" as="sourcePoint" />
            <mxPoint x="1370" y="-180" as="targetPoint" />
          </mxGeometry>
        </mxCell>
        <mxCell id="iZvxD1WqvHBSJ7Z55byQ-10" value="" style="edgeStyle=none;orthogonalLoop=1;jettySize=auto;html=1;rounded=0;endArrow=none;endFill=0;strokeWidth=3;strokeColor=#FF0000;jumpStyle=sharp;jumpSize=10;" parent="1" source="K0IDoOXKWO9ZwHZOIm7M-25" target="pMrtrNa-W5XAD92lEqUC-6" edge="1">
          <mxGeometry width="80" relative="1" as="geometry">
            <mxPoint x="1320" y="-60" as="sourcePoint" />
            <mxPoint x="1370" y="-60" as="targetPoint" />
          </mxGeometry>
        </mxCell>
        <mxCell id="iZvxD1WqvHBSJ7Z55byQ-11" value="" style="edgeStyle=none;orthogonalLoop=1;jettySize=auto;html=1;rounded=0;endArrow=none;endFill=0;strokeWidth=3;strokeColor=#FF0000;" parent="1" source="K0IDoOXKWO9ZwHZOIm7M-29" target="pMrtrNa-W5XAD92lEqUC-5" edge="1">
          <mxGeometry width="80" relative="1" as="geometry">
            <mxPoint x="1320" y="60" as="sourcePoint" />
            <mxPoint x="1370" y="60" as="targetPoint" />
          </mxGeometry>
        </mxCell>
        <mxCell id="_Qh-26nUSpiDtWEDh_ZP-2" value="" style="edgeStyle=none;orthogonalLoop=1;jettySize=auto;html=1;rounded=0;shadow=0;labelBackgroundColor=default;strokeColor=#00FF00;strokeWidth=3;align=center;verticalAlign=middle;fontFamily=Helvetica;fontSize=11;fontColor=default;shape=connector;curved=0;endArrow=open;endFill=0;endSize=10;fillColor=#e1d5e7;" parent="1" source="pMrtrNa-W5XAD92lEqUC-17" target="_Qh-26nUSpiDtWEDh_ZP-14" edge="1">
          <mxGeometry width="80" relative="1" as="geometry">
            <mxPoint x="780.0899274741441" y="-275.0001621879037" as="sourcePoint" />
            <mxPoint x="781" y="-120" as="targetPoint" />
          </mxGeometry>
        </mxCell>
        <mxCell id="_Qh-26nUSpiDtWEDh_ZP-10" value="" style="orthogonalLoop=1;jettySize=auto;html=1;rounded=0;shadow=0;labelBackgroundColor=default;strokeColor=#FF0000;strokeWidth=3;align=center;verticalAlign=middle;fontFamily=Helvetica;fontSize=11;fontColor=default;shape=connector;endArrow=open;endFill=0;endSize=10;fillColor=#e1d5e7;" parent="1" source="_Qh-26nUSpiDtWEDh_ZP-8" target="_Qh-26nUSpiDtWEDh_ZP-27" edge="1">
          <mxGeometry width="80" relative="1" as="geometry">
            <mxPoint x="300" y="-390" as="sourcePoint" />
            <mxPoint x="414" y="-680" as="targetPoint" />
          </mxGeometry>
        </mxCell>
        <mxCell id="_Qh-26nUSpiDtWEDh_ZP-14" value="expr_type = none;&lt;br&gt;store index of &#39;{&#39;;&lt;br&gt;index++;" style="whiteSpace=wrap;html=1;" parent="1" vertex="1">
          <mxGeometry x="720" y="-120" width="120" height="80" as="geometry" />
        </mxCell>
        <mxCell id="_Qh-26nUSpiDtWEDh_ZP-17" value="" style="edgeStyle=orthogonalEdgeStyle;orthogonalLoop=1;jettySize=auto;html=1;rounded=0;shadow=0;labelBackgroundColor=default;strokeColor=#000000;strokeWidth=3;align=center;verticalAlign=middle;fontFamily=Helvetica;fontSize=11;fontColor=default;shape=connector;endArrow=open;endFill=0;endSize=10;fillColor=#e1d5e7;" parent="1" source="_Qh-26nUSpiDtWEDh_ZP-14" target="_Qh-26nUSpiDtWEDh_ZP-15" edge="1">
          <mxGeometry width="80" relative="1" as="geometry">
            <mxPoint x="690" y="-30" as="sourcePoint" />
            <mxPoint x="690" y="10" as="targetPoint" />
          </mxGeometry>
        </mxCell>
        <mxCell id="_Qh-26nUSpiDtWEDh_ZP-19" value="" style="edgeStyle=none;orthogonalLoop=1;jettySize=auto;html=1;rounded=0;shadow=0;labelBackgroundColor=default;strokeColor=#00FF00;strokeWidth=3;align=center;verticalAlign=middle;fontFamily=Helvetica;fontSize=11;fontColor=default;shape=connector;curved=0;endArrow=open;endFill=0;endSize=10;fillColor=#e1d5e7;" parent="1" source="_Qh-26nUSpiDtWEDh_ZP-15" target="_Qh-26nUSpiDtWEDh_ZP-20" edge="1">
          <mxGeometry width="80" relative="1" as="geometry">
            <mxPoint x="779.5041322314049" y="100.33057851239664" as="sourcePoint" />
            <mxPoint x="781" y="130" as="targetPoint" />
          </mxGeometry>
        </mxCell>
        <mxCell id="_Qh-26nUSpiDtWEDh_ZP-22" value="" style="edgeStyle=none;orthogonalLoop=1;jettySize=auto;html=1;rounded=0;shadow=0;labelBackgroundColor=default;strokeColor=#00FF00;strokeWidth=3;align=center;verticalAlign=middle;fontFamily=Helvetica;fontSize=11;fontColor=default;shape=connector;curved=0;endArrow=open;endFill=0;endSize=10;fillColor=#e1d5e7;" parent="1" source="_Qh-26nUSpiDtWEDh_ZP-20" target="_Qh-26nUSpiDtWEDh_ZP-23" edge="1">
          <mxGeometry width="80" relative="1" as="geometry">
            <mxPoint x="779.5041322314049" y="210.33057851239664" as="sourcePoint" />
            <mxPoint x="780" y="240" as="targetPoint" />
          </mxGeometry>
        </mxCell>
        <mxCell id="_Qh-26nUSpiDtWEDh_ZP-26" value="" style="orthogonalLoop=1;jettySize=auto;html=1;rounded=0;shadow=0;labelBackgroundColor=default;strokeColor=#00FF00;strokeWidth=3;align=center;verticalAlign=middle;fontFamily=Helvetica;fontSize=11;fontColor=default;shape=connector;endArrow=open;endFill=0;endSize=10;fillColor=#e1d5e7;" parent="1" source="_Qh-26nUSpiDtWEDh_ZP-8" target="_Qh-26nUSpiDtWEDh_ZP-32" edge="1">
          <mxGeometry width="80" relative="1" as="geometry">
            <mxPoint x="369.5041322314049" y="-269.66942148760336" as="sourcePoint" />
            <mxPoint x="560" y="-440" as="targetPoint" />
          </mxGeometry>
        </mxCell>
        <mxCell id="_Qh-26nUSpiDtWEDh_ZP-27" value="/*not match*/expr_index = 0;&lt;br&gt;src_index = src_index_base + 1;&lt;br&gt;src_index = src_index_base;" style="whiteSpace=wrap;html=1;" parent="1" vertex="1">
          <mxGeometry x="280" y="-600" width="120" height="120" as="geometry" />
        </mxCell>
        <mxCell id="_Qh-26nUSpiDtWEDh_ZP-32" value="src_index++;&lt;div&gt;expr_index++;&lt;/div&gt;" style="whiteSpace=wrap;html=1;" parent="1" vertex="1">
          <mxGeometry x="440" y="-600" width="120" height="80" as="geometry" />
        </mxCell>
        <mxCell id="_Qh-26nUSpiDtWEDh_ZP-35" value="" style="edgeStyle=none;orthogonalLoop=1;jettySize=auto;html=1;rounded=0;shadow=0;labelBackgroundColor=default;strokeColor=#FF0000;strokeWidth=3;align=center;verticalAlign=middle;fontFamily=Helvetica;fontSize=11;fontColor=default;shape=connector;curved=0;endArrow=open;endFill=0;endSize=10;fillColor=#e1d5e7;" parent="1" source="_Qh-26nUSpiDtWEDh_ZP-15" target="_Qh-26nUSpiDtWEDh_ZP-39" edge="1">
          <mxGeometry width="80" relative="1" as="geometry">
            <mxPoint x="640" y="80" as="sourcePoint" />
            <mxPoint x="680" y="60" as="targetPoint" />
          </mxGeometry>
        </mxCell>
        <mxCell id="_Qh-26nUSpiDtWEDh_ZP-39" value="expr_index++;" style="whiteSpace=wrap;html=1;" parent="1" vertex="1">
          <mxGeometry x="360" width="120" height="80" as="geometry" />
        </mxCell>
        <mxCell id="_Qh-26nUSpiDtWEDh_ZP-42" value="" style="edgeStyle=none;orthogonalLoop=1;jettySize=auto;html=1;rounded=0;shadow=0;labelBackgroundColor=default;strokeColor=#000000;strokeWidth=3;align=center;verticalAlign=middle;fontFamily=Helvetica;fontSize=11;fontColor=default;shape=connector;curved=0;endArrow=open;endFill=0;endSize=10;fillColor=#e1d5e7;" parent="1" source="_Qh-26nUSpiDtWEDh_ZP-39" target="_Qh-26nUSpiDtWEDh_ZP-52" edge="1">
          <mxGeometry width="80" relative="1" as="geometry">
            <mxPoint x="310.00000000000006" y="170" as="sourcePoint" />
            <mxPoint x="350" y="120" as="targetPoint" />
          </mxGeometry>
        </mxCell>
        <mxCell id="_Qh-26nUSpiDtWEDh_ZP-46" value="" style="whiteSpace=wrap;html=1;shape=mxgraph.basic.oval_callout;fillColor=#FF0000;strokeWidth=3;perimeterSpacing=0;" parent="1" vertex="1">
          <mxGeometry x="640" y="140.00000000000045" width="40" height="40" as="geometry" />
        </mxCell>
        <mxCell id="_Qh-26nUSpiDtWEDh_ZP-48" value="" style="edgeStyle=none;orthogonalLoop=1;jettySize=auto;html=1;rounded=0;shadow=0;labelBackgroundColor=default;strokeColor=#FF0000;strokeWidth=3;align=center;verticalAlign=middle;fontFamily=Helvetica;fontSize=11;fontColor=default;shape=connector;curved=0;endArrow=open;endFill=0;endSize=10;fillColor=#e1d5e7;" parent="1" source="_Qh-26nUSpiDtWEDh_ZP-20" target="_Qh-26nUSpiDtWEDh_ZP-46" edge="1">
          <mxGeometry width="80" relative="1" as="geometry">
            <mxPoint x="480" y="200" as="sourcePoint" />
            <mxPoint x="620" y="153" as="targetPoint" />
          </mxGeometry>
        </mxCell>
        <mxCell id="_Qh-26nUSpiDtWEDh_ZP-49" value="return false" style="whiteSpace=wrap;html=1;" parent="1" vertex="1">
          <mxGeometry x="480" y="120" width="120" height="80" as="geometry" />
        </mxCell>
        <mxCell id="_Qh-26nUSpiDtWEDh_ZP-54" value="" style="edgeStyle=none;orthogonalLoop=1;jettySize=auto;html=1;rounded=0;shadow=0;labelBackgroundColor=default;strokeColor=#00FF00;strokeWidth=3;align=center;verticalAlign=middle;fontFamily=Helvetica;fontSize=11;fontColor=default;shape=connector;curved=0;endArrow=open;endFill=0;endSize=10;fillColor=#e1d5e7;" parent="1" source="_Qh-26nUSpiDtWEDh_ZP-52" target="_Qh-26nUSpiDtWEDh_ZP-61" edge="1">
          <mxGeometry width="80" relative="1" as="geometry">
            <mxPoint x="89.50413223140492" y="110.33057851239664" as="sourcePoint" />
            <mxPoint x="100" y="120" as="targetPoint" />
          </mxGeometry>
        </mxCell>
        <mxCell id="_Qh-26nUSpiDtWEDh_ZP-58" value="" style="edgeStyle=none;orthogonalLoop=1;jettySize=auto;html=1;rounded=0;shadow=0;labelBackgroundColor=default;strokeColor=#FF0000;strokeWidth=3;align=center;verticalAlign=middle;fontFamily=Helvetica;fontSize=11;fontColor=default;shape=connector;curved=0;endArrow=open;endFill=0;endSize=10;fillColor=#e1d5e7;" parent="1" source="_Qh-26nUSpiDtWEDh_ZP-95" target="_Qh-26nUSpiDtWEDh_ZP-64" edge="1">
          <mxGeometry width="80" relative="1" as="geometry">
            <mxPoint x="40" y="160" as="sourcePoint" />
            <mxPoint y="160" as="targetPoint" />
          </mxGeometry>
        </mxCell>
        <mxCell id="_Qh-26nUSpiDtWEDh_ZP-63" value="" style="edgeStyle=none;orthogonalLoop=1;jettySize=auto;html=1;rounded=0;shadow=0;labelBackgroundColor=default;strokeColor=#00FF00;strokeWidth=3;align=center;verticalAlign=middle;fontFamily=Helvetica;fontSize=11;fontColor=default;shape=connector;curved=0;endArrow=open;endFill=0;endSize=10;fillColor=#e1d5e7;" parent="1" source="_Qh-26nUSpiDtWEDh_ZP-61" target="_Qh-26nUSpiDtWEDh_ZP-89" edge="1">
          <mxGeometry width="80" relative="1" as="geometry">
            <mxPoint x="369.5041322314049" y="460.33057851239664" as="sourcePoint" />
            <mxPoint x="260" y="240" as="targetPoint" />
          </mxGeometry>
        </mxCell>
        <mxCell id="_Qh-26nUSpiDtWEDh_ZP-69" value="" style="edgeStyle=none;orthogonalLoop=1;jettySize=auto;html=1;rounded=0;shadow=0;labelBackgroundColor=default;strokeColor=#00FF00;strokeWidth=3;align=center;verticalAlign=middle;fontFamily=Helvetica;fontSize=11;fontColor=default;shape=connector;curved=0;endArrow=open;endFill=0;endSize=10;fillColor=#e1d5e7;" parent="1" source="_Qh-26nUSpiDtWEDh_ZP-64" target="_Qh-26nUSpiDtWEDh_ZP-70" edge="1">
          <mxGeometry width="80" relative="1" as="geometry">
            <mxPoint x="-200.49586776859508" y="210.33057851239664" as="sourcePoint" />
            <mxPoint x="-60" y="240" as="targetPoint" />
          </mxGeometry>
        </mxCell>
        <mxCell id="_Qh-26nUSpiDtWEDh_ZP-74" value="assign attribute data, add dynamic value to expr_index" style="whiteSpace=wrap;html=1;" parent="1" vertex="1">
          <mxGeometry x="-120" y="360" width="120" height="80" as="geometry" />
        </mxCell>
        <mxCell id="_Qh-26nUSpiDtWEDh_ZP-75" value="" style="edgeStyle=none;orthogonalLoop=1;jettySize=auto;html=1;rounded=0;shadow=0;labelBackgroundColor=default;strokeColor=#00FF00;strokeWidth=3;align=center;verticalAlign=middle;fontFamily=Helvetica;fontSize=11;fontColor=default;shape=connector;curved=0;endArrow=open;endFill=0;endSize=10;fillColor=#e1d5e7;" parent="1" source="_Qh-26nUSpiDtWEDh_ZP-70" target="_Qh-26nUSpiDtWEDh_ZP-74" edge="1">
          <mxGeometry width="80" relative="1" as="geometry">
            <mxPoint x="-230.49586776859508" y="370.33057851239664" as="sourcePoint" />
            <mxPoint x="-229.49586776859508" y="410.33057851239664" as="targetPoint" />
          </mxGeometry>
        </mxCell>
        <mxCell id="_Qh-26nUSpiDtWEDh_ZP-77" value="" style="whiteSpace=wrap;html=1;shape=mxgraph.basic.oval_callout;fillColor=#FF0000;strokeWidth=3;perimeterSpacing=0;" parent="1" vertex="1">
          <mxGeometry x="-200" y="260.00000000000045" width="40" height="40" as="geometry" />
        </mxCell>
        <mxCell id="_Qh-26nUSpiDtWEDh_ZP-78" value="return false" style="whiteSpace=wrap;html=1;" parent="1" vertex="1">
          <mxGeometry x="-360" y="240" width="120" height="80" as="geometry" />
        </mxCell>
        <mxCell id="_Qh-26nUSpiDtWEDh_ZP-79" value="" style="edgeStyle=none;orthogonalLoop=1;jettySize=auto;html=1;rounded=0;shadow=0;labelBackgroundColor=default;strokeColor=#FF0000;strokeWidth=3;align=center;verticalAlign=middle;fontFamily=Helvetica;fontSize=11;fontColor=default;shape=connector;curved=0;endArrow=open;endFill=0;endSize=10;fillColor=#e1d5e7;" parent="1" source="_Qh-26nUSpiDtWEDh_ZP-70" target="_Qh-26nUSpiDtWEDh_ZP-77" edge="1">
          <mxGeometry width="80" relative="1" as="geometry">
            <mxPoint x="-170" y="370" as="sourcePoint" />
            <mxPoint x="-190" y="420" as="targetPoint" />
          </mxGeometry>
        </mxCell>
        <mxCell id="_Qh-26nUSpiDtWEDh_ZP-80" value="" style="orthogonalLoop=1;jettySize=auto;html=1;rounded=0;shadow=0;labelBackgroundColor=default;strokeColor=#000000;strokeWidth=3;align=center;verticalAlign=middle;fontFamily=Helvetica;fontSize=11;fontColor=default;shape=connector;endArrow=open;endFill=0;endSize=10;fillColor=#e1d5e7;" parent="1" source="_Qh-26nUSpiDtWEDh_ZP-74" target="0bFvaPaFXLquj2E95Kf6-1" edge="1">
          <mxGeometry width="80" relative="1" as="geometry">
            <mxPoint x="-120" y="420" as="sourcePoint" />
            <mxPoint x="-110" y="570.0000000000002" as="targetPoint" />
          </mxGeometry>
        </mxCell>
        <mxCell id="_Qh-26nUSpiDtWEDh_ZP-81" value="" style="edgeStyle=none;orthogonalLoop=1;jettySize=auto;html=1;rounded=0;shadow=0;labelBackgroundColor=default;strokeColor=#FF0000;strokeWidth=3;align=center;verticalAlign=middle;fontFamily=Helvetica;fontSize=11;fontColor=default;shape=connector;curved=0;endArrow=open;endFill=0;endSize=10;fillColor=#e1d5e7;" parent="1" source="_Qh-26nUSpiDtWEDh_ZP-61" target="_Qh-26nUSpiDtWEDh_ZP-95" edge="1">
          <mxGeometry width="80" relative="1" as="geometry">
            <mxPoint x="60" y="130" as="sourcePoint" />
            <mxPoint x="150" y="160" as="targetPoint" />
          </mxGeometry>
        </mxCell>
        <mxCell id="_Qh-26nUSpiDtWEDh_ZP-85" value="" style="edgeStyle=orthogonalEdgeStyle;orthogonalLoop=1;jettySize=auto;html=1;rounded=0;shadow=0;labelBackgroundColor=default;strokeColor=#FF0000;strokeWidth=3;align=center;verticalAlign=middle;fontFamily=Helvetica;fontSize=11;fontColor=default;shape=connector;endArrow=open;endFill=0;endSize=10;fillColor=#e1d5e7;" parent="1" source="_Qh-26nUSpiDtWEDh_ZP-89" target="_Qh-26nUSpiDtWEDh_ZP-87" edge="1">
          <mxGeometry width="80" relative="1" as="geometry">
            <mxPoint x="320" y="280.0000000000002" as="sourcePoint" />
            <mxPoint x="400" y="280" as="targetPoint" />
          </mxGeometry>
        </mxCell>
        <mxCell id="_Qh-26nUSpiDtWEDh_ZP-86" value="return false" style="whiteSpace=wrap;html=1;" parent="1" vertex="1">
          <mxGeometry x="440" y="240" width="120" height="80" as="geometry" />
        </mxCell>
        <mxCell id="_Qh-26nUSpiDtWEDh_ZP-87" value="" style="whiteSpace=wrap;html=1;shape=mxgraph.basic.oval_callout;fillColor=#FF0000;strokeWidth=3;perimeterSpacing=0;" parent="1" vertex="1">
          <mxGeometry x="360" y="260.00000000000045" width="40" height="40" as="geometry" />
        </mxCell>
        <mxCell id="_Qh-26nUSpiDtWEDh_ZP-91" value="" style="edgeStyle=none;orthogonalLoop=1;jettySize=auto;html=1;rounded=0;shadow=0;labelBackgroundColor=default;strokeColor=#00FF00;strokeWidth=3;align=center;verticalAlign=middle;fontFamily=Helvetica;fontSize=11;fontColor=default;shape=connector;curved=0;endArrow=open;endFill=0;endSize=10;fillColor=#e1d5e7;" parent="1" source="_Qh-26nUSpiDtWEDh_ZP-89" target="_Qh-26nUSpiDtWEDh_ZP-92" edge="1">
          <mxGeometry width="80" relative="1" as="geometry">
            <mxPoint x="69.50413223140492" y="400.33057851239664" as="sourcePoint" />
            <mxPoint x="260" y="360" as="targetPoint" />
          </mxGeometry>
        </mxCell>
        <mxCell id="_Qh-26nUSpiDtWEDh_ZP-92" value="expr type = range" style="whiteSpace=wrap;html=1;" parent="1" vertex="1">
          <mxGeometry x="200" y="360" width="120" height="80" as="geometry" />
        </mxCell>
        <mxCell id="_Qh-26nUSpiDtWEDh_ZP-97" value="" style="edgeStyle=none;orthogonalLoop=1;jettySize=auto;html=1;rounded=0;shadow=0;labelBackgroundColor=default;strokeColor=#00FF00;strokeWidth=3;align=center;verticalAlign=middle;fontFamily=Helvetica;fontSize=11;fontColor=default;shape=connector;curved=0;endArrow=open;endFill=0;endSize=10;fillColor=#e1d5e7;" parent="1" source="_Qh-26nUSpiDtWEDh_ZP-95" target="_Qh-26nUSpiDtWEDh_ZP-98" edge="1">
          <mxGeometry width="80" relative="1" as="geometry">
            <mxPoint x="99.50413223140492" y="210.33057851239664" as="sourcePoint" />
            <mxPoint x="100" y="240" as="targetPoint" />
          </mxGeometry>
        </mxCell>
        <mxCell id="_Qh-26nUSpiDtWEDh_ZP-98" value="TODO: find additional valid condition" style="whiteSpace=wrap;html=1;fillColor=#3802E7;strokeColor=#9673a6;fontColor=#F7FF00;" parent="1" vertex="1">
          <mxGeometry x="40" y="520" width="120" height="80" as="geometry" />
        </mxCell>
        <mxCell id="_Qh-26nUSpiDtWEDh_ZP-103" value="" style="edgeStyle=none;orthogonalLoop=1;jettySize=auto;html=1;rounded=0;shadow=0;labelBackgroundColor=default;strokeColor=#00FF00;strokeWidth=3;align=center;verticalAlign=middle;fontFamily=Helvetica;fontSize=11;fontColor=default;shape=connector;curved=0;endArrow=open;endFill=0;endSize=10;fillColor=#e1d5e7;" parent="1" source="_Qh-26nUSpiDtWEDh_ZP-101" target="_Qh-26nUSpiDtWEDh_ZP-104" edge="1">
          <mxGeometry width="80" relative="1" as="geometry">
            <mxPoint x="-470" y="80" as="sourcePoint" />
            <mxPoint x="-470" y="120" as="targetPoint" />
          </mxGeometry>
        </mxCell>
        <mxCell id="_Qh-26nUSpiDtWEDh_ZP-104" value="append expr char to expr_L_value string" style="whiteSpace=wrap;html=1;" parent="1" vertex="1">
          <mxGeometry x="-560" y="-120" width="120" height="80" as="geometry" />
        </mxCell>
        <mxCell id="_Qh-26nUSpiDtWEDh_ZP-105" value="" style="edgeStyle=none;orthogonalLoop=1;jettySize=auto;html=1;rounded=0;shadow=0;labelBackgroundColor=default;strokeColor=#FF0000;strokeWidth=3;align=center;verticalAlign=middle;fontFamily=Helvetica;fontSize=11;fontColor=default;shape=connector;curved=0;endArrow=open;endFill=0;endSize=10;fillColor=#e1d5e7;" parent="1" source="_Qh-26nUSpiDtWEDh_ZP-52" target="_Qh-26nUSpiDtWEDh_ZP-101" edge="1">
          <mxGeometry width="80" relative="1" as="geometry">
            <mxPoint x="-400" y="40" as="sourcePoint" />
            <mxPoint x="-360" y="50" as="targetPoint" />
          </mxGeometry>
        </mxCell>
        <mxCell id="_Qh-26nUSpiDtWEDh_ZP-107" value="" style="orthogonalLoop=1;jettySize=auto;html=1;rounded=0;shadow=0;labelBackgroundColor=default;strokeColor=#FF0000;strokeWidth=3;align=center;verticalAlign=middle;fontFamily=Helvetica;fontSize=11;fontColor=default;shape=connector;endArrow=open;endFill=0;endSize=10;fillColor=#e1d5e7;" parent="1" source="_Qh-26nUSpiDtWEDh_ZP-101" target="_Qh-26nUSpiDtWEDh_ZP-109" edge="1">
          <mxGeometry width="80" relative="1" as="geometry">
            <mxPoint x="-530" y="40" as="sourcePoint" />
            <mxPoint x="-600" y="40" as="targetPoint" />
          </mxGeometry>
        </mxCell>
        <mxCell id="_Qh-26nUSpiDtWEDh_ZP-109" value="append expr char to expr_R_value string" style="whiteSpace=wrap;html=1;" parent="1" vertex="1">
          <mxGeometry x="-720" y="-120" width="120" height="80" as="geometry" />
        </mxCell>
        <mxCell id="_Qh-26nUSpiDtWEDh_ZP-117" value="" style="edgeStyle=none;orthogonalLoop=1;jettySize=auto;html=1;rounded=0;shadow=0;labelBackgroundColor=default;strokeColor=#FF0000;strokeWidth=3;align=center;verticalAlign=middle;fontFamily=Helvetica;fontSize=11;fontColor=default;shape=connector;curved=0;endArrow=open;endFill=0;endSize=10;fillColor=#e1d5e7;" parent="1" source="_Qh-26nUSpiDtWEDh_ZP-98" target="_Qh-26nUSpiDtWEDh_ZP-118" edge="1">
          <mxGeometry width="80" relative="1" as="geometry">
            <mxPoint x="90" y="620" as="sourcePoint" />
            <mxPoint x="100" y="640" as="targetPoint" />
          </mxGeometry>
        </mxCell>
        <mxCell id="_Qh-26nUSpiDtWEDh_ZP-118" value="/*ignore &#39;|&#39; */ expr_index++;" style="whiteSpace=wrap;html=1;" parent="1" vertex="1">
          <mxGeometry x="40" y="640" width="120" height="80" as="geometry" />
        </mxCell>
        <mxCell id="_Qh-26nUSpiDtWEDh_ZP-119" value="" style="orthogonalLoop=1;jettySize=auto;html=1;rounded=0;shadow=0;labelBackgroundColor=default;strokeColor=#00FF00;strokeWidth=3;align=center;verticalAlign=middle;fontFamily=Helvetica;fontSize=11;fontColor=default;shape=connector;endArrow=open;endFill=0;endSize=10;fillColor=#e1d5e7;" parent="1" source="_Qh-26nUSpiDtWEDh_ZP-98" target="0bFvaPaFXLquj2E95Kf6-1" edge="1">
          <mxGeometry width="80" relative="1" as="geometry">
            <mxPoint x="-80.49586776859508" y="620.3305785123966" as="sourcePoint" />
            <mxPoint x="-95.85786437626939" y="575.8578643762692" as="targetPoint" />
          </mxGeometry>
        </mxCell>
        <mxCell id="_Qh-26nUSpiDtWEDh_ZP-120" value="" style="orthogonalLoop=1;jettySize=auto;html=1;rounded=0;shadow=0;labelBackgroundColor=default;strokeColor=#000000;strokeWidth=3;align=center;verticalAlign=middle;fontFamily=Helvetica;fontSize=11;fontColor=default;shape=connector;endArrow=open;endFill=0;endSize=10;fillColor=#e1d5e7;" parent="1" source="wjHBH-QL_tbnoy2PB-K--9" target="0bFvaPaFXLquj2E95Kf6-1" edge="1">
          <mxGeometry width="80" relative="1" as="geometry">
            <mxPoint x="-49.99999999999994" y="670" as="sourcePoint" />
            <mxPoint x="-95.85786437626939" y="604.1421356237308" as="targetPoint" />
          </mxGeometry>
        </mxCell>
        <mxCell id="_Qh-26nUSpiDtWEDh_ZP-123" value="" style="orthogonalLoop=1;jettySize=auto;html=1;rounded=0;shadow=0;labelBackgroundColor=default;strokeColor=#000000;strokeWidth=3;align=center;verticalAlign=middle;fontFamily=Helvetica;fontSize=11;fontColor=default;shape=connector;endArrow=open;endFill=0;endSize=10;fillColor=#e1d5e7;jumpStyle=sharp;jumpSize=10;" parent="1" source="0bFvaPaFXLquj2E95Kf6-1" target="iJj9vJ7JR3mfp1t2i5Jt-5" edge="1">
          <mxGeometry width="80" relative="1" as="geometry">
            <mxPoint x="-130" y="590" as="sourcePoint" />
            <mxPoint x="-340" y="-155" as="targetPoint" />
          </mxGeometry>
        </mxCell>
        <mxCell id="_Qh-26nUSpiDtWEDh_ZP-126" value="" style="edgeStyle=orthogonalEdgeStyle;orthogonalLoop=1;jettySize=auto;html=1;rounded=0;shadow=0;labelBackgroundColor=default;strokeColor=#000000;strokeWidth=3;align=center;verticalAlign=middle;fontFamily=Helvetica;fontSize=11;fontColor=default;shape=connector;endArrow=open;endFill=0;endSize=10;fillColor=#e1d5e7;" parent="1" source="_Qh-26nUSpiDtWEDh_ZP-104" target="iJj9vJ7JR3mfp1t2i5Jt-4" edge="1">
          <mxGeometry width="80" relative="1" as="geometry">
            <mxPoint x="-379.99999999999994" y="-80" as="sourcePoint" />
            <mxPoint x="-500" y="-160" as="targetPoint" />
          </mxGeometry>
        </mxCell>
        <mxCell id="_Qh-26nUSpiDtWEDh_ZP-127" value="" style="orthogonalLoop=1;jettySize=auto;html=1;rounded=0;shadow=0;labelBackgroundColor=default;strokeColor=#000000;strokeWidth=3;align=center;verticalAlign=middle;fontFamily=Helvetica;fontSize=11;fontColor=default;shape=connector;endArrow=open;endFill=0;endSize=10;fillColor=#e1d5e7;" parent="1" source="_Qh-26nUSpiDtWEDh_ZP-109" target="iJj9vJ7JR3mfp1t2i5Jt-4" edge="1">
          <mxGeometry width="80" relative="1" as="geometry">
            <mxPoint x="-580" y="-230" as="sourcePoint" />
            <mxPoint x="-520" y="-179.9677419354839" as="targetPoint" />
          </mxGeometry>
        </mxCell>
        <mxCell id="_Qh-26nUSpiDtWEDh_ZP-129" value="" style="orthogonalLoop=1;jettySize=auto;html=1;rounded=0;shadow=0;labelBackgroundColor=default;strokeColor=#000000;strokeWidth=3;align=center;verticalAlign=middle;fontFamily=Helvetica;fontSize=11;fontColor=default;shape=connector;endArrow=open;endFill=0;endSize=10;fillColor=#e1d5e7;" parent="1" source="iJj9vJ7JR3mfp1t2i5Jt-5" target="_Qh-26nUSpiDtWEDh_ZP-39" edge="1">
          <mxGeometry width="80" relative="1" as="geometry">
            <mxPoint x="-315" y="-180" as="sourcePoint" />
            <mxPoint x="-59.99999999999994" y="-120" as="targetPoint" />
          </mxGeometry>
        </mxCell>
        <mxCell id="r7APXoHLZM09F-EixCEE-2" value="" style="edgeStyle=none;orthogonalLoop=1;jettySize=auto;html=1;rounded=0;shadow=0;labelBackgroundColor=default;strokeColor=#000000;strokeWidth=3;align=center;verticalAlign=middle;fontFamily=Helvetica;fontSize=11;fontColor=default;shape=connector;curved=0;endArrow=open;endFill=0;endSize=10;fillColor=#e1d5e7;" parent="1" source="K0IDoOXKWO9ZwHZOIm7M-48" target="pMrtrNa-W5XAD92lEqUC-4" edge="1">
          <mxGeometry width="80" relative="1" as="geometry">
            <mxPoint x="1310" y="-820" as="sourcePoint" />
            <mxPoint x="1228.1667139234842" y="-785.0673093593865" as="targetPoint" />
          </mxGeometry>
        </mxCell>
        <mxCell id="r7APXoHLZM09F-EixCEE-3" value="" style="edgeStyle=none;orthogonalLoop=1;jettySize=auto;html=1;rounded=0;shadow=0;labelBackgroundColor=default;strokeColor=#000000;strokeWidth=3;align=center;verticalAlign=middle;fontFamily=Helvetica;fontSize=11;fontColor=default;shape=connector;curved=0;endArrow=open;endFill=0;endSize=10;fillColor=#e1d5e7;" parent="1" source="K0IDoOXKWO9ZwHZOIm7M-50" target="pMrtrNa-W5XAD92lEqUC-4" edge="1">
          <mxGeometry width="80" relative="1" as="geometry">
            <mxPoint x="1400" y="-770" as="sourcePoint" />
            <mxPoint x="1248.3452137043669" y="-793.0160919062039" as="targetPoint" />
          </mxGeometry>
        </mxCell>
        <mxCell id="r7APXoHLZM09F-EixCEE-5" value="" style="edgeStyle=none;orthogonalLoop=1;jettySize=auto;html=1;rounded=0;shadow=0;labelBackgroundColor=default;strokeColor=#000000;strokeWidth=3;align=center;verticalAlign=middle;fontFamily=Helvetica;fontSize=11;fontColor=default;shape=connector;curved=0;endArrow=open;endFill=0;endSize=10;fillColor=#e1d5e7;" parent="1" source="pMrtrNa-W5XAD92lEqUC-4" target="pMrtrNa-W5XAD92lEqUC-2" edge="1">
          <mxGeometry width="80" relative="1" as="geometry">
            <mxPoint x="1208.1410280079062" y="-797.868003319791" as="sourcePoint" />
            <mxPoint x="850" y="-630" as="targetPoint" />
          </mxGeometry>
        </mxCell>
        <mxCell id="r7APXoHLZM09F-EixCEE-13" value="" style="edgeStyle=orthogonalEdgeStyle;orthogonalLoop=1;jettySize=auto;html=1;rounded=0;shadow=0;labelBackgroundColor=default;strokeColor=#000000;strokeWidth=3;align=center;verticalAlign=middle;fontFamily=Helvetica;fontSize=11;fontColor=default;shape=connector;endArrow=open;endFill=0;endSize=10;fillColor=#e1d5e7;" parent="1" source="_Qh-26nUSpiDtWEDh_ZP-32" target="pMrtrNa-W5XAD92lEqUC-1" edge="1">
          <mxGeometry width="80" relative="1" as="geometry">
            <mxPoint x="590" y="-770" as="sourcePoint" />
            <mxPoint x="500" y="-634.9999999999998" as="targetPoint" />
          </mxGeometry>
        </mxCell>
        <mxCell id="r7APXoHLZM09F-EixCEE-14" value="" style="orthogonalLoop=1;jettySize=auto;html=1;rounded=0;shadow=0;labelBackgroundColor=default;strokeColor=#000000;strokeWidth=3;align=center;verticalAlign=middle;fontFamily=Helvetica;fontSize=11;fontColor=default;shape=connector;endArrow=open;endFill=0;endSize=10;fillColor=#e1d5e7;" parent="1" source="_Qh-26nUSpiDtWEDh_ZP-27" target="pMrtrNa-W5XAD92lEqUC-1" edge="1">
          <mxGeometry width="80" relative="1" as="geometry">
            <mxPoint x="430" y="-610" as="sourcePoint" />
            <mxPoint x="475.00001081666005" y="-660.0232558139535" as="targetPoint" />
          </mxGeometry>
        </mxCell>
        <mxCell id="r7APXoHLZM09F-EixCEE-15" value="" style="orthogonalLoop=1;jettySize=auto;html=1;rounded=0;shadow=0;labelBackgroundColor=default;strokeColor=#000000;strokeWidth=3;align=center;verticalAlign=middle;fontFamily=Helvetica;fontSize=11;fontColor=default;shape=connector;endArrow=open;endFill=0;endSize=10;fillColor=#e1d5e7;" parent="1" source="pMrtrNa-W5XAD92lEqUC-1" target="pMrtrNa-W5XAD92lEqUC-2" edge="1">
          <mxGeometry width="80" relative="1" as="geometry">
            <mxPoint x="524.9999891833404" y="-660.0232558139535" as="sourcePoint" />
            <mxPoint x="750" y="-660" as="targetPoint" />
          </mxGeometry>
        </mxCell>
        <mxCell id="r7APXoHLZM09F-EixCEE-16" value="" style="edgeStyle=none;orthogonalLoop=1;jettySize=auto;html=1;rounded=0;shadow=0;labelBackgroundColor=default;strokeColor=#FF0000;strokeWidth=3;align=center;verticalAlign=middle;fontFamily=Helvetica;fontSize=11;fontColor=default;shape=connector;curved=0;endArrow=open;endFill=0;endSize=10;fillColor=#e1d5e7;" parent="1" source="_Qh-26nUSpiDtWEDh_ZP-64" target="wjHBH-QL_tbnoy2PB-K--1" edge="1">
          <mxGeometry width="80" relative="1" as="geometry">
            <mxPoint x="-150" y="110" as="sourcePoint" />
            <mxPoint x="-160" y="160" as="targetPoint" />
          </mxGeometry>
        </mxCell>
        <mxCell id="r7APXoHLZM09F-EixCEE-20" value="" style="edgeStyle=orthogonalEdgeStyle;orthogonalLoop=1;jettySize=auto;html=1;rounded=0;shadow=0;labelBackgroundColor=default;strokeColor=#000000;strokeWidth=3;align=center;verticalAlign=middle;fontFamily=Helvetica;fontSize=11;fontColor=default;shape=connector;endArrow=open;endFill=0;endSize=10;fillColor=#e1d5e7;" parent="1" source="iJj9vJ7JR3mfp1t2i5Jt-4" target="iJj9vJ7JR3mfp1t2i5Jt-5" edge="1">
          <mxGeometry width="80" relative="1" as="geometry">
            <mxPoint x="-480" y="-179.9677419354839" as="sourcePoint" />
            <mxPoint x="-365" y="-180" as="targetPoint" />
          </mxGeometry>
        </mxCell>
        <mxCell id="iJj9vJ7JR3mfp1t2i5Jt-4" value="" style="ellipse;whiteSpace=wrap;html=1;gradientColor=#FFFFFF;gradientDirection=radial;strokeColor=#3D3D3D;perimeterSpacing=0;shadow=0;fillColor=#a0a0a0;noLabel=1;overflow=hidden;strokeOpacity=50;fillOpacity=75;container=0;recursiveResize=0;editable=1;movable=1;resizable=0;rotatable=1;deletable=1;locked=0;connectable=1;comic=0;fixedWidth=0;metaEdit=0;expand=0;" parent="1" vertex="1">
          <mxGeometry x="-510" y="-190" width="20" height="20" as="geometry" />
        </mxCell>
        <mxCell id="iJj9vJ7JR3mfp1t2i5Jt-5" value="" style="ellipse;whiteSpace=wrap;html=1;gradientColor=#FFFFFF;gradientDirection=radial;strokeColor=#3D3D3D;perimeterSpacing=0;shadow=0;fillColor=#a0a0a0;noLabel=1;overflow=hidden;strokeOpacity=50;fillOpacity=75;container=0;recursiveResize=0;editable=1;movable=1;resizable=0;rotatable=1;deletable=1;locked=0;connectable=1;comic=0;fixedWidth=0;metaEdit=0;expand=0;" parent="1" vertex="1">
          <mxGeometry x="-390" y="-190" width="20" height="20" as="geometry" />
        </mxCell>
        <mxCell id="iJj9vJ7JR3mfp1t2i5Jt-6" value="" style="ellipse;whiteSpace=wrap;html=1;gradientColor=#FFFFFF;gradientDirection=radial;strokeColor=#3D3D3D;perimeterSpacing=0;shadow=0;fillColor=#a0a0a0;noLabel=1;overflow=hidden;strokeOpacity=50;fillOpacity=75;container=0;recursiveResize=0;editable=1;movable=1;resizable=0;rotatable=1;deletable=1;locked=0;connectable=1;comic=0;fixedWidth=0;metaEdit=0;expand=0;" parent="1" vertex="1">
          <mxGeometry x="1410" y="-230" width="20" height="20" as="geometry" />
        </mxCell>
        <mxCell id="iJj9vJ7JR3mfp1t2i5Jt-7" value="" style="ellipse;whiteSpace=wrap;html=1;gradientColor=#FFFFFF;gradientDirection=radial;strokeColor=#3D3D3D;perimeterSpacing=0;shadow=0;fillColor=#a0a0a0;noLabel=1;overflow=hidden;strokeOpacity=50;fillOpacity=75;container=0;recursiveResize=0;editable=1;movable=1;resizable=0;rotatable=1;deletable=1;locked=0;connectable=1;comic=0;fixedWidth=0;metaEdit=0;expand=0;" parent="1" vertex="1">
          <mxGeometry x="1410" y="-350" width="20" height="20" as="geometry" />
        </mxCell>
        <mxCell id="iJj9vJ7JR3mfp1t2i5Jt-8" value="" style="ellipse;whiteSpace=wrap;html=1;gradientColor=#FFFFFF;gradientDirection=radial;strokeColor=#3D3D3D;perimeterSpacing=0;shadow=0;fillColor=#a0a0a0;noLabel=1;overflow=hidden;strokeOpacity=50;fillOpacity=75;container=0;recursiveResize=0;editable=1;movable=1;resizable=0;rotatable=1;deletable=1;locked=0;connectable=1;comic=0;fixedWidth=0;metaEdit=0;expand=0;" parent="1" vertex="1">
          <mxGeometry x="1410" y="-110" width="20" height="20" as="geometry" />
        </mxCell>
        <mxCell id="iJj9vJ7JR3mfp1t2i5Jt-9" value="" style="edgeStyle=none;orthogonalLoop=1;jettySize=auto;html=1;rounded=0;shadow=0;labelBackgroundColor=default;strokeColor=#00FF00;strokeWidth=3;align=center;verticalAlign=middle;fontFamily=Helvetica;fontSize=11;fontColor=default;shape=connector;curved=0;endArrow=open;endFill=0;endSize=10;fillColor=#e1d5e7;jumpStyle=sharp;jumpSize=10;" parent="1" source="K0IDoOXKWO9ZwHZOIm7M-29" target="iJj9vJ7JR3mfp1t2i5Jt-8" edge="1">
          <mxGeometry width="80" relative="1" as="geometry">
            <mxPoint x="1419.504132231405" y="-39.66942148760336" as="sourcePoint" />
            <mxPoint x="1420.504132231405" y="0.3305785123966416" as="targetPoint" />
          </mxGeometry>
        </mxCell>
        <mxCell id="iJj9vJ7JR3mfp1t2i5Jt-10" value="" style="edgeStyle=none;orthogonalLoop=1;jettySize=auto;html=1;rounded=0;shadow=0;labelBackgroundColor=default;strokeColor=#000000;strokeWidth=3;align=center;verticalAlign=middle;fontFamily=Helvetica;fontSize=11;fontColor=default;shape=connector;curved=0;endArrow=open;endFill=0;endSize=10;fillColor=#e1d5e7;" parent="1" source="iJj9vJ7JR3mfp1t2i5Jt-8" target="iJj9vJ7JR3mfp1t2i5Jt-6" edge="1">
          <mxGeometry width="80" relative="1" as="geometry">
            <mxPoint x="1489.504132231405" y="-169.66942148760336" as="sourcePoint" />
            <mxPoint x="1490.504132231405" y="-129.66942148760336" as="targetPoint" />
          </mxGeometry>
        </mxCell>
        <mxCell id="iJj9vJ7JR3mfp1t2i5Jt-11" value="" style="edgeStyle=none;orthogonalLoop=1;jettySize=auto;html=1;rounded=0;shadow=0;labelBackgroundColor=default;strokeColor=#000000;strokeWidth=3;align=center;verticalAlign=middle;fontFamily=Helvetica;fontSize=11;fontColor=default;shape=connector;curved=0;endArrow=open;endFill=0;endSize=10;fillColor=#e1d5e7;" parent="1" source="iJj9vJ7JR3mfp1t2i5Jt-6" target="iJj9vJ7JR3mfp1t2i5Jt-7" edge="1">
          <mxGeometry width="80" relative="1" as="geometry">
            <mxPoint x="1469.504132231405" y="-279.66942148760336" as="sourcePoint" />
            <mxPoint x="1470.504132231405" y="-239.66942148760336" as="targetPoint" />
          </mxGeometry>
        </mxCell>
        <mxCell id="0bFvaPaFXLquj2E95Kf6-1" value="" style="ellipse;whiteSpace=wrap;html=1;gradientColor=#FFFFFF;gradientDirection=radial;strokeColor=#3D3D3D;perimeterSpacing=0;shadow=0;fillColor=#a0a0a0;noLabel=1;overflow=hidden;strokeOpacity=50;fillOpacity=75;container=0;recursiveResize=0;editable=1;movable=1;resizable=0;rotatable=1;deletable=1;locked=0;connectable=1;comic=0;fixedWidth=0;metaEdit=0;expand=0;" parent="1" vertex="1">
          <mxGeometry x="-110" y="530" width="20" height="20" as="geometry" />
        </mxCell>
        <mxCell id="pMrtrNa-W5XAD92lEqUC-1" value="" style="ellipse;whiteSpace=wrap;html=1;gradientColor=#FFFFFF;gradientDirection=radial;strokeColor=#3D3D3D;perimeterSpacing=0;shadow=0;fillColor=#a0a0a0;noLabel=1;overflow=hidden;strokeOpacity=50;fillOpacity=75;container=0;recursiveResize=0;editable=1;movable=1;resizable=0;rotatable=1;deletable=1;locked=0;connectable=1;comic=0;fixedWidth=0;metaEdit=0;expand=0;" parent="1" vertex="1">
          <mxGeometry x="490" y="-670" width="20" height="20" as="geometry" />
        </mxCell>
        <mxCell id="pMrtrNa-W5XAD92lEqUC-2" value="" style="ellipse;whiteSpace=wrap;html=1;gradientColor=#FFFFFF;gradientDirection=radial;strokeColor=#3D3D3D;perimeterSpacing=0;shadow=0;fillColor=#a0a0a0;noLabel=1;overflow=hidden;strokeOpacity=50;fillOpacity=75;container=0;recursiveResize=0;editable=1;movable=1;resizable=0;rotatable=1;deletable=1;locked=0;connectable=1;comic=0;fixedWidth=0;metaEdit=0;expand=0;" parent="1" vertex="1">
          <mxGeometry x="770" y="-670" width="20" height="20" as="geometry" />
        </mxCell>
        <mxCell id="pMrtrNa-W5XAD92lEqUC-3" value="" style="edgeStyle=none;orthogonalLoop=1;jettySize=auto;html=1;rounded=0;shadow=0;labelBackgroundColor=default;strokeColor=#000000;strokeWidth=3;align=center;verticalAlign=middle;fontFamily=Helvetica;fontSize=11;fontColor=default;shape=connector;curved=0;endArrow=open;endFill=0;endSize=10;fillColor=#e1d5e7;" parent="1" source="pMrtrNa-W5XAD92lEqUC-2" target="K0IDoOXKWO9ZwHZOIm7M-2" edge="1">
          <mxGeometry width="80" relative="1" as="geometry">
            <mxPoint x="650" y="-730" as="sourcePoint" />
            <mxPoint x="650" y="-690" as="targetPoint" />
          </mxGeometry>
        </mxCell>
        <mxCell id="pMrtrNa-W5XAD92lEqUC-4" value="" style="ellipse;whiteSpace=wrap;html=1;gradientColor=#FFFFFF;gradientDirection=radial;strokeColor=#3D3D3D;perimeterSpacing=0;shadow=0;fillColor=#a0a0a0;noLabel=1;overflow=hidden;strokeOpacity=50;fillOpacity=75;container=0;recursiveResize=0;editable=1;movable=1;resizable=0;rotatable=1;deletable=1;locked=0;connectable=1;comic=0;fixedWidth=0;metaEdit=0;expand=0;" parent="1" vertex="1">
          <mxGeometry x="1210" y="-790" width="20" height="20" as="geometry" />
        </mxCell>
        <mxCell id="pMrtrNa-W5XAD92lEqUC-5" value="" style="ellipse;whiteSpace=wrap;html=1;gradientColor=#FFFFFF;gradientDirection=radial;strokeColor=#3D3D3D;perimeterSpacing=0;shadow=0;fillColor=#a0a0a0;noLabel=1;overflow=hidden;strokeOpacity=50;fillOpacity=75;container=0;recursiveResize=0;editable=1;movable=1;resizable=0;rotatable=1;deletable=1;locked=0;connectable=1;comic=0;fixedWidth=0;metaEdit=0;expand=0;" parent="1" vertex="1">
          <mxGeometry x="1370" y="50" width="20" height="20" as="geometry" />
        </mxCell>
        <mxCell id="pMrtrNa-W5XAD92lEqUC-6" value="" style="ellipse;whiteSpace=wrap;html=1;gradientColor=#FFFFFF;gradientDirection=radial;strokeColor=#3D3D3D;perimeterSpacing=0;shadow=0;fillColor=#a0a0a0;noLabel=1;overflow=hidden;strokeOpacity=50;fillOpacity=75;container=0;recursiveResize=0;editable=1;movable=1;resizable=0;rotatable=1;deletable=1;locked=0;connectable=1;comic=0;fixedWidth=0;metaEdit=0;expand=0;" parent="1" vertex="1">
          <mxGeometry x="1370" y="-70" width="20" height="20" as="geometry" />
        </mxCell>
        <mxCell id="pMrtrNa-W5XAD92lEqUC-7" value="" style="ellipse;whiteSpace=wrap;html=1;gradientColor=#FFFFFF;gradientDirection=radial;strokeColor=#3D3D3D;perimeterSpacing=0;shadow=0;fillColor=#a0a0a0;noLabel=1;overflow=hidden;strokeOpacity=50;fillOpacity=75;container=0;recursiveResize=0;editable=1;movable=1;resizable=0;rotatable=1;deletable=1;locked=0;connectable=1;comic=0;fixedWidth=0;metaEdit=0;expand=0;" parent="1" vertex="1">
          <mxGeometry x="1370" y="-190" width="20" height="20" as="geometry" />
        </mxCell>
        <mxCell id="pMrtrNa-W5XAD92lEqUC-8" value="" style="ellipse;whiteSpace=wrap;html=1;gradientColor=#FFFFFF;gradientDirection=radial;strokeColor=#3D3D3D;perimeterSpacing=0;shadow=0;fillColor=#a0a0a0;noLabel=1;overflow=hidden;strokeOpacity=50;fillOpacity=75;container=0;recursiveResize=0;editable=1;movable=1;resizable=0;rotatable=1;deletable=1;locked=0;connectable=1;comic=0;fixedWidth=0;metaEdit=0;expand=0;" parent="1" vertex="1">
          <mxGeometry x="1370" y="-310" width="20" height="20" as="geometry" />
        </mxCell>
        <mxCell id="pMrtrNa-W5XAD92lEqUC-10" value="" style="edgeStyle=none;orthogonalLoop=1;jettySize=auto;html=1;rounded=0;shadow=0;labelBackgroundColor=default;strokeColor=#000000;strokeWidth=3;align=center;verticalAlign=middle;fontFamily=Helvetica;fontSize=11;fontColor=default;shape=connector;curved=0;endArrow=open;endFill=0;endSize=10;fillColor=#e1d5e7;jumpStyle=sharp;jumpSize=10;" parent="1" source="pMrtrNa-W5XAD92lEqUC-5" target="pMrtrNa-W5XAD92lEqUC-6" edge="1">
          <mxGeometry width="80" relative="1" as="geometry">
            <mxPoint x="1430" as="sourcePoint" />
            <mxPoint x="1430" y="40" as="targetPoint" />
          </mxGeometry>
        </mxCell>
        <mxCell id="pMrtrNa-W5XAD92lEqUC-11" value="" style="edgeStyle=none;orthogonalLoop=1;jettySize=auto;html=1;rounded=0;shadow=0;labelBackgroundColor=default;strokeColor=#000000;strokeWidth=3;align=center;verticalAlign=middle;fontFamily=Helvetica;fontSize=11;fontColor=default;shape=connector;curved=0;endArrow=open;endFill=0;endSize=10;fillColor=#e1d5e7;jumpStyle=sharp;jumpSize=10;" parent="1" source="pMrtrNa-W5XAD92lEqUC-6" target="pMrtrNa-W5XAD92lEqUC-7" edge="1">
          <mxGeometry width="80" relative="1" as="geometry">
            <mxPoint x="1380" y="-150" as="sourcePoint" />
            <mxPoint x="1380" y="-110" as="targetPoint" />
          </mxGeometry>
        </mxCell>
        <mxCell id="pMrtrNa-W5XAD92lEqUC-12" value="" style="edgeStyle=none;orthogonalLoop=1;jettySize=auto;html=1;rounded=0;shadow=0;labelBackgroundColor=default;strokeColor=#000000;strokeWidth=3;align=center;verticalAlign=middle;fontFamily=Helvetica;fontSize=11;fontColor=default;shape=connector;curved=0;endArrow=open;endFill=0;endSize=10;fillColor=#e1d5e7;jumpStyle=sharp;jumpSize=10;" parent="1" source="pMrtrNa-W5XAD92lEqUC-7" target="pMrtrNa-W5XAD92lEqUC-8" edge="1">
          <mxGeometry width="80" relative="1" as="geometry">
            <mxPoint x="1380" y="-280" as="sourcePoint" />
            <mxPoint x="1380" y="-240" as="targetPoint" />
          </mxGeometry>
        </mxCell>
        <mxCell id="pMrtrNa-W5XAD92lEqUC-13" value="" style="edgeStyle=none;orthogonalLoop=1;jettySize=auto;html=1;rounded=0;shadow=0;labelBackgroundColor=default;strokeColor=#000000;strokeWidth=3;align=center;verticalAlign=middle;fontFamily=Helvetica;fontSize=11;fontColor=default;shape=connector;curved=0;endArrow=open;endFill=0;endSize=10;fillColor=#e1d5e7;jumpStyle=sharp;jumpSize=10;" parent="1" source="pMrtrNa-W5XAD92lEqUC-8" target="K0IDoOXKWO9ZwHZOIm7M-43" edge="1">
          <mxGeometry width="80" relative="1" as="geometry">
            <mxPoint x="1390" y="-400" as="sourcePoint" />
            <mxPoint x="1380" y="-390" as="targetPoint" />
          </mxGeometry>
        </mxCell>
        <mxCell id="pMrtrNa-W5XAD92lEqUC-14" value="" style="edgeStyle=none;orthogonalLoop=1;jettySize=auto;html=1;rounded=0;shadow=0;labelBackgroundColor=default;strokeColor=#00FF00;strokeWidth=3;align=center;verticalAlign=middle;fontFamily=Helvetica;fontSize=11;fontColor=default;shape=connector;curved=0;endArrow=open;endFill=0;endSize=10;fillColor=#e1d5e7;jumpStyle=sharp;jumpSize=10;" parent="1" source="K0IDoOXKWO9ZwHZOIm7M-25" target="iJj9vJ7JR3mfp1t2i5Jt-8" edge="1">
          <mxGeometry width="80" relative="1" as="geometry">
            <mxPoint x="1489.504132231405" y="-209.66942148760336" as="sourcePoint" />
            <mxPoint x="1490.504132231405" y="-169.66942148760336" as="targetPoint" />
          </mxGeometry>
        </mxCell>
        <mxCell id="pMrtrNa-W5XAD92lEqUC-15" value="" style="edgeStyle=none;orthogonalLoop=1;jettySize=auto;html=1;rounded=0;shadow=0;labelBackgroundColor=default;strokeColor=#00FF00;strokeWidth=3;align=center;verticalAlign=middle;fontFamily=Helvetica;fontSize=11;fontColor=default;shape=connector;curved=0;endArrow=open;endFill=0;endSize=10;fillColor=#e1d5e7;jumpStyle=sharp;jumpSize=10;" parent="1" source="K0IDoOXKWO9ZwHZOIm7M-21" target="iJj9vJ7JR3mfp1t2i5Jt-6" edge="1">
          <mxGeometry width="80" relative="1" as="geometry">
            <mxPoint x="1479.504132231405" y="-259.66942148760336" as="sourcePoint" />
            <mxPoint x="1480.504132231405" y="-219.66942148760336" as="targetPoint" />
          </mxGeometry>
        </mxCell>
        <mxCell id="pMrtrNa-W5XAD92lEqUC-16" value="" style="edgeStyle=none;orthogonalLoop=1;jettySize=auto;html=1;rounded=0;shadow=0;labelBackgroundColor=default;strokeColor=#00FF00;strokeWidth=3;align=center;verticalAlign=middle;fontFamily=Helvetica;fontSize=11;fontColor=default;shape=connector;curved=0;endArrow=open;endFill=0;endSize=10;fillColor=#e1d5e7;jumpStyle=sharp;jumpSize=10;" parent="1" source="K0IDoOXKWO9ZwHZOIm7M-17" target="iJj9vJ7JR3mfp1t2i5Jt-7" edge="1">
          <mxGeometry width="80" relative="1" as="geometry">
            <mxPoint x="1479.504132231405" y="-329.66942148760336" as="sourcePoint" />
            <mxPoint x="1480.504132231405" y="-289.66942148760336" as="targetPoint" />
          </mxGeometry>
        </mxCell>
        <mxCell id="pMrtrNa-W5XAD92lEqUC-17" value="" style="ellipse;whiteSpace=wrap;html=1;gradientColor=#FFFFFF;gradientDirection=radial;strokeColor=#3D3D3D;perimeterSpacing=0;shadow=0;fillColor=#a0a0a0;noLabel=1;overflow=hidden;strokeOpacity=50;fillOpacity=75;container=0;recursiveResize=0;editable=1;movable=1;resizable=0;rotatable=1;deletable=1;locked=0;connectable=1;comic=0;fixedWidth=0;metaEdit=0;expand=0;" parent="1" vertex="1">
          <mxGeometry x="770" y="-310" width="20" height="20" as="geometry" />
        </mxCell>
        <mxCell id="wjHBH-QL_tbnoy2PB-K--1" value="???" style="whiteSpace=wrap;html=1;" parent="1" vertex="1">
          <mxGeometry x="-280" y="120" width="120" height="80" as="geometry" />
        </mxCell>
        <mxCell id="wjHBH-QL_tbnoy2PB-K--3" value="" style="group" parent="1" connectable="0" vertex="1">
          <mxGeometry x="-560" width="120" height="80" as="geometry" />
        </mxCell>
        <mxCell id="_Qh-26nUSpiDtWEDh_ZP-101" value="" style="whiteSpace=wrap;html=1;fillColor=#eeeedd;shadow=0;" parent="wjHBH-QL_tbnoy2PB-K--3" vertex="1">
          <mxGeometry width="120" height="80" as="geometry" />
        </mxCell>
        <mxCell id="_Qh-26nUSpiDtWEDh_ZP-102" value="expr_type == none" style="rhombus;whiteSpace=wrap;html=1;direction=south;fontSize=11;fillColor=#FFFFCC;gradientColor=none;fillStyle=auto;strokeWidth=1;shadow=0;rounded=0;comic=0;labelBackgroundColor=none;labelBorderColor=none;spacingTop=0;spacing=20;spacingLeft=0;spacingRight=0;strokeColor=none;" parent="wjHBH-QL_tbnoy2PB-K--3" vertex="1">
          <mxGeometry width="120" height="80" as="geometry" />
        </mxCell>
        <mxCell id="wjHBH-QL_tbnoy2PB-K--4" value="" style="group" parent="1" connectable="0" vertex="1">
          <mxGeometry x="-120" y="110" width="120" height="80" as="geometry" />
        </mxCell>
        <mxCell id="_Qh-26nUSpiDtWEDh_ZP-64" value="" style="whiteSpace=wrap;html=1;fillColor=#eeeedd;shadow=0;" parent="wjHBH-QL_tbnoy2PB-K--4" vertex="1">
          <mxGeometry width="120" height="80" as="geometry" />
        </mxCell>
        <mxCell id="_Qh-26nUSpiDtWEDh_ZP-65" value="expr[index + 1] == &#39;,&#39;" style="rhombus;whiteSpace=wrap;html=1;direction=south;fontSize=11;fillColor=#FFFFCC;gradientColor=none;fillStyle=auto;strokeWidth=1;shadow=0;rounded=0;comic=0;labelBackgroundColor=none;labelBorderColor=none;spacingTop=0;spacing=20;spacingLeft=0;spacingRight=0;strokeColor=none;" parent="wjHBH-QL_tbnoy2PB-K--4" vertex="1">
          <mxGeometry width="120" height="80" as="geometry" />
        </mxCell>
        <mxCell id="wjHBH-QL_tbnoy2PB-K--5" value="" style="group" parent="1" connectable="0" vertex="1">
          <mxGeometry x="-100" y="240" width="120" height="80" as="geometry" />
        </mxCell>
        <mxCell id="_Qh-26nUSpiDtWEDh_ZP-70" value="" style="whiteSpace=wrap;html=1;fillColor=#eeeedd;shadow=0;" parent="wjHBH-QL_tbnoy2PB-K--5" vertex="1">
          <mxGeometry width="120" height="80" as="geometry" />
        </mxCell>
        <mxCell id="_Qh-26nUSpiDtWEDh_ZP-71" value="find valid attribute name and value (max len, min len, etc.?)" style="rhombus;whiteSpace=wrap;html=1;direction=south;fontSize=11;fillColor=#FFFFCC;gradientColor=none;fillStyle=auto;strokeWidth=1;shadow=0;rounded=0;comic=0;labelBackgroundColor=none;labelBorderColor=none;spacingTop=0;spacing=20;spacingLeft=0;spacingRight=0;strokeColor=none;" parent="wjHBH-QL_tbnoy2PB-K--5" vertex="1">
          <mxGeometry width="120" height="80" as="geometry" />
        </mxCell>
        <mxCell id="wjHBH-QL_tbnoy2PB-K--6" value="" style="orthogonalLoop=1;jettySize=auto;html=1;rounded=0;shadow=0;labelBackgroundColor=default;strokeColor=#000000;strokeWidth=3;align=center;verticalAlign=middle;fontFamily=Helvetica;fontSize=11;fontColor=default;shape=connector;endArrow=open;endFill=0;endSize=10;fillColor=#e1d5e7;" parent="1" source="_Qh-26nUSpiDtWEDh_ZP-77" target="_Qh-26nUSpiDtWEDh_ZP-78" edge="1">
          <mxGeometry width="80" relative="1" as="geometry">
            <mxPoint x="-260" y="360" as="sourcePoint" />
            <mxPoint x="-260" y="310" as="targetPoint" />
          </mxGeometry>
        </mxCell>
        <mxCell id="wjHBH-QL_tbnoy2PB-K--9" value="" style="whiteSpace=wrap;html=1;shape=mxgraph.basic.oval_callout;fillColor=#FF0000;strokeWidth=3;perimeterSpacing=0;" parent="1" vertex="1">
          <mxGeometry x="-40" y="660" width="40" height="40" as="geometry" />
        </mxCell>
        <mxCell id="wjHBH-QL_tbnoy2PB-K--10" value="" style="orthogonalLoop=1;jettySize=auto;html=1;rounded=0;shadow=0;labelBackgroundColor=default;strokeColor=#000000;strokeWidth=3;align=center;verticalAlign=middle;fontFamily=Helvetica;fontSize=11;fontColor=default;shape=connector;endArrow=open;endFill=0;endSize=10;fillColor=#e1d5e7;" parent="1" source="_Qh-26nUSpiDtWEDh_ZP-118" target="wjHBH-QL_tbnoy2PB-K--9" edge="1">
          <mxGeometry width="80" relative="1" as="geometry">
            <mxPoint x="10" y="750" as="sourcePoint" />
            <mxPoint x="10" y="789.9999999999995" as="targetPoint" />
          </mxGeometry>
        </mxCell>
        <mxCell id="wjHBH-QL_tbnoy2PB-K--11" value="" style="edgeStyle=none;orthogonalLoop=1;jettySize=auto;html=1;rounded=0;shadow=0;labelBackgroundColor=default;strokeColor=#000000;strokeWidth=3;align=center;verticalAlign=middle;fontFamily=Helvetica;fontSize=11;fontColor=default;shape=connector;curved=0;endArrow=open;endFill=0;endSize=10;fillColor=#e1d5e7;" parent="1" source="_Qh-26nUSpiDtWEDh_ZP-87" target="_Qh-26nUSpiDtWEDh_ZP-86" edge="1">
          <mxGeometry width="80" relative="1" as="geometry">
            <mxPoint x="420" y="220" as="sourcePoint" />
            <mxPoint x="380" y="220" as="targetPoint" />
          </mxGeometry>
        </mxCell>
        <mxCell id="wjHBH-QL_tbnoy2PB-K--12" value="" style="edgeStyle=none;orthogonalLoop=1;jettySize=auto;html=1;rounded=0;shadow=0;labelBackgroundColor=default;strokeColor=#000000;strokeWidth=3;align=center;verticalAlign=middle;fontFamily=Helvetica;fontSize=11;fontColor=default;shape=connector;curved=0;endArrow=open;endFill=0;endSize=10;fillColor=#e1d5e7;" parent="1" source="_Qh-26nUSpiDtWEDh_ZP-46" target="_Qh-26nUSpiDtWEDh_ZP-49" edge="1">
          <mxGeometry width="80" relative="1" as="geometry">
            <mxPoint x="630" y="250" as="sourcePoint" />
            <mxPoint x="670" y="250" as="targetPoint" />
          </mxGeometry>
        </mxCell>
        <mxCell id="wjHBH-QL_tbnoy2PB-K--15" value="" style="group" parent="1" connectable="0" vertex="1">
          <mxGeometry x="200" y="120" width="120" height="80" as="geometry" />
        </mxCell>
        <mxCell id="_Qh-26nUSpiDtWEDh_ZP-61" value="" style="whiteSpace=wrap;html=1;fillColor=#eeeedd;shadow=0;" parent="wjHBH-QL_tbnoy2PB-K--15" vertex="1">
          <mxGeometry width="120" height="80" as="geometry" />
        </mxCell>
        <mxCell id="_Qh-26nUSpiDtWEDh_ZP-62" value="expr[index + 1] == &#39;-&#39;" style="rhombus;whiteSpace=wrap;html=1;direction=south;fontSize=11;fillColor=#FFFFCC;gradientColor=none;fillStyle=auto;strokeWidth=1;shadow=0;rounded=0;comic=0;labelBackgroundColor=none;labelBorderColor=none;spacingTop=0;spacing=20;spacingLeft=0;spacingRight=0;strokeColor=none;" parent="wjHBH-QL_tbnoy2PB-K--15" vertex="1">
          <mxGeometry width="120" height="80" as="geometry" />
        </mxCell>
        <mxCell id="wjHBH-QL_tbnoy2PB-K--16" value="" style="group" parent="1" connectable="0" vertex="1">
          <mxGeometry x="200" width="120" height="80" as="geometry" />
        </mxCell>
        <mxCell id="_Qh-26nUSpiDtWEDh_ZP-52" value="" style="whiteSpace=wrap;html=1;fillColor=#eeeedd;shadow=0;" parent="wjHBH-QL_tbnoy2PB-K--16" vertex="1">
          <mxGeometry width="120" height="80" as="geometry" />
        </mxCell>
        <mxCell id="_Qh-26nUSpiDtWEDh_ZP-53" value="expr char == &#39;\&#39;" style="rhombus;whiteSpace=wrap;html=1;direction=south;fontSize=11;fillColor=#FFFFCC;gradientColor=none;fillStyle=auto;strokeWidth=1;shadow=0;rounded=0;comic=0;labelBackgroundColor=none;labelBorderColor=none;spacingTop=0;spacing=20;spacingLeft=0;spacingRight=0;strokeColor=none;" parent="wjHBH-QL_tbnoy2PB-K--16" vertex="1">
          <mxGeometry width="120" height="80" as="geometry" />
        </mxCell>
        <mxCell id="wjHBH-QL_tbnoy2PB-K--17" value="" style="group" parent="1" connectable="0" vertex="1">
          <mxGeometry x="200" y="240" width="120" height="80" as="geometry" />
        </mxCell>
        <mxCell id="_Qh-26nUSpiDtWEDh_ZP-89" value="" style="whiteSpace=wrap;html=1;fillColor=#eeeedd;shadow=0;" parent="wjHBH-QL_tbnoy2PB-K--17" vertex="1">
          <mxGeometry width="120" height="80" as="geometry" />
        </mxCell>
        <mxCell id="_Qh-26nUSpiDtWEDh_ZP-90" value="expr type != range" style="rhombus;whiteSpace=wrap;html=1;direction=south;fontSize=11;fillColor=#FFFFCC;gradientColor=none;fillStyle=auto;strokeWidth=1;shadow=0;rounded=0;comic=0;labelBackgroundColor=none;labelBorderColor=none;spacingTop=0;spacing=20;spacingLeft=0;spacingRight=0;strokeColor=none;" parent="wjHBH-QL_tbnoy2PB-K--17" vertex="1">
          <mxGeometry width="120" height="80" as="geometry" />
        </mxCell>
        <mxCell id="wjHBH-QL_tbnoy2PB-K--18" value="" style="group" parent="1" connectable="0" vertex="1">
          <mxGeometry x="720" y="120" width="120" height="80" as="geometry" />
        </mxCell>
        <mxCell id="_Qh-26nUSpiDtWEDh_ZP-20" value="" style="whiteSpace=wrap;html=1;fillColor=#eeeedd;shadow=0;" parent="wjHBH-QL_tbnoy2PB-K--18" vertex="1">
          <mxGeometry width="120" height="80" as="geometry" />
        </mxCell>
        <mxCell id="_Qh-26nUSpiDtWEDh_ZP-21" value="check if expr is valid" style="rhombus;whiteSpace=wrap;html=1;direction=south;fontSize=11;fillColor=#FFFFCC;gradientColor=none;fillStyle=auto;strokeWidth=1;shadow=0;rounded=0;comic=0;labelBackgroundColor=none;labelBorderColor=none;spacingTop=0;spacing=20;spacingLeft=0;spacingRight=0;strokeColor=none;" parent="wjHBH-QL_tbnoy2PB-K--18" vertex="1">
          <mxGeometry width="120" height="80" as="geometry" />
        </mxCell>
        <mxCell id="wjHBH-QL_tbnoy2PB-K--19" value="" style="group" parent="1" connectable="0" vertex="1">
          <mxGeometry x="720" width="240" height="80" as="geometry" />
        </mxCell>
        <mxCell id="_Qh-26nUSpiDtWEDh_ZP-15" value="" style="whiteSpace=wrap;html=1;fillColor=#eeeedd;shadow=0;" parent="wjHBH-QL_tbnoy2PB-K--19" vertex="1">
          <mxGeometry width="120" height="80" as="geometry" />
        </mxCell>
        <mxCell id="_Qh-26nUSpiDtWEDh_ZP-16" value="expr char is &#39;}&#39;" style="rhombus;whiteSpace=wrap;html=1;direction=south;fontSize=11;fillColor=#FFFFCC;gradientColor=none;fillStyle=auto;strokeWidth=1;shadow=0;rounded=0;comic=0;labelBackgroundColor=none;labelBorderColor=none;spacingTop=0;spacing=20;spacingLeft=0;spacingRight=0;strokeColor=none;" parent="wjHBH-QL_tbnoy2PB-K--19" vertex="1">
          <mxGeometry width="120" height="80" as="geometry" />
        </mxCell>
        <mxCell id="_Qh-26nUSpiDtWEDh_ZP-18" value="end of expr" style="whiteSpace=wrap;html=1;shape=mxgraph.basic.cloud_rect;fillColor=#FF99FF;" parent="wjHBH-QL_tbnoy2PB-K--19" vertex="1">
          <mxGeometry x="120" width="120" height="80" as="geometry" />
        </mxCell>
        <mxCell id="wjHBH-QL_tbnoy2PB-K--20" value="" style="group" parent="1" connectable="0" vertex="1">
          <mxGeometry x="720" y="240" width="240" height="80" as="geometry" />
        </mxCell>
        <mxCell id="_Qh-26nUSpiDtWEDh_ZP-23" value="evaluate expression" style="whiteSpace=wrap;html=1;" parent="wjHBH-QL_tbnoy2PB-K--20" vertex="1">
          <mxGeometry width="120" height="80" as="geometry" />
        </mxCell>
        <mxCell id="_Qh-26nUSpiDtWEDh_ZP-24" value="" style="whiteSpace=wrap;html=1;shape=mxgraph.basic.cloud_rect;fillColor=#FF99FF;" parent="wjHBH-QL_tbnoy2PB-K--20" vertex="1">
          <mxGeometry x="120" width="120" height="80" as="geometry" />
        </mxCell>
        <mxCell id="wjHBH-QL_tbnoy2PB-K--21" value="" style="whiteSpace=wrap;html=1;shape=mxgraph.basic.oval_callout;fillColor=#FF0000;strokeWidth=3;perimeterSpacing=0;" parent="1" vertex="1">
          <mxGeometry x="1280" y="160.00000000000045" width="40" height="40" as="geometry" />
        </mxCell>
        <mxCell id="wjHBH-QL_tbnoy2PB-K--22" value="" style="edgeStyle=none;orthogonalLoop=1;jettySize=auto;html=1;rounded=0;shadow=0;labelBackgroundColor=default;strokeColor=#FF0000;strokeWidth=3;align=center;verticalAlign=middle;fontFamily=Helvetica;fontSize=11;fontColor=default;shape=connector;curved=0;endArrow=open;endFill=0;endSize=10;fillColor=#e1d5e7;" parent="1" source="K0IDoOXKWO9ZwHZOIm7M-26" target="wjHBH-QL_tbnoy2PB-K--21" edge="1">
          <mxGeometry width="80" relative="1" as="geometry">
            <mxPoint x="1080" y="130" as="sourcePoint" />
            <mxPoint x="1260" y="173" as="targetPoint" />
          </mxGeometry>
        </mxCell>
        <mxCell id="wjHBH-QL_tbnoy2PB-K--23" value="return false" style="whiteSpace=wrap;html=1;" parent="1" vertex="1">
          <mxGeometry x="1120" y="140" width="120" height="80" as="geometry" />
        </mxCell>
        <mxCell id="wjHBH-QL_tbnoy2PB-K--24" value="" style="edgeStyle=none;orthogonalLoop=1;jettySize=auto;html=1;rounded=0;shadow=0;labelBackgroundColor=default;strokeColor=#000000;strokeWidth=3;align=center;verticalAlign=middle;fontFamily=Helvetica;fontSize=11;fontColor=default;shape=connector;curved=0;endArrow=open;endFill=0;endSize=10;fillColor=#e1d5e7;" parent="1" source="wjHBH-QL_tbnoy2PB-K--21" target="wjHBH-QL_tbnoy2PB-K--23" edge="1">
          <mxGeometry width="80" relative="1" as="geometry">
            <mxPoint x="1270" y="270" as="sourcePoint" />
            <mxPoint x="1310" y="270" as="targetPoint" />
          </mxGeometry>
        </mxCell>
        <mxCell id="wjHBH-QL_tbnoy2PB-K--27" value="" style="group" parent="1" connectable="0" vertex="1">
          <mxGeometry x="1040" width="120" height="80" as="geometry" />
        </mxCell>
        <mxCell id="K0IDoOXKWO9ZwHZOIm7M-26" value="" style="whiteSpace=wrap;html=1;fillColor=#eeeedd;shadow=0;" parent="wjHBH-QL_tbnoy2PB-K--27" vertex="1">
          <mxGeometry width="120" height="80" as="geometry" />
        </mxCell>
        <mxCell id="K0IDoOXKWO9ZwHZOIm7M-27" value="expr char is &#39;0&#39;" style="rhombus;whiteSpace=wrap;html=1;direction=south;fontSize=11;fillColor=#FFFFCC;gradientColor=none;fillStyle=auto;strokeWidth=1;shadow=0;rounded=0;comic=0;labelBackgroundColor=none;labelBorderColor=none;spacingTop=0;spacing=20;spacingLeft=0;spacingRight=0;strokeColor=none;" parent="wjHBH-QL_tbnoy2PB-K--27" vertex="1">
          <mxGeometry width="120" height="80" as="geometry" />
        </mxCell>
        <mxCell id="wjHBH-QL_tbnoy2PB-K--28" value="" style="group" parent="1" connectable="0" vertex="1">
          <mxGeometry x="1040" y="-480" width="240" height="80" as="geometry" />
        </mxCell>
        <mxCell id="K0IDoOXKWO9ZwHZOIm7M-1" value="start of expr" style="whiteSpace=wrap;html=1;shape=mxgraph.basic.cloud_rect;fillColor=#FF99FF;" parent="wjHBH-QL_tbnoy2PB-K--28" vertex="1">
          <mxGeometry x="120" width="120" height="80" as="geometry" />
        </mxCell>
        <mxCell id="wjHBH-QL_tbnoy2PB-K--37" value="" style="group" parent="wjHBH-QL_tbnoy2PB-K--28" connectable="0" vertex="1">
          <mxGeometry width="120" height="80" as="geometry" />
        </mxCell>
        <mxCell id="K0IDoOXKWO9ZwHZOIm7M-7" value="" style="whiteSpace=wrap;html=1;fillColor=#eeeedd;shadow=0;" parent="wjHBH-QL_tbnoy2PB-K--37" vertex="1">
          <mxGeometry width="120" height="80" as="geometry" />
        </mxCell>
        <mxCell id="K0IDoOXKWO9ZwHZOIm7M-8" value="expr char is &#39;{&#39;" style="rhombus;whiteSpace=wrap;html=1;direction=south;fontSize=11;fillColor=#FFFFCC;gradientColor=none;fillStyle=auto;strokeWidth=1;shadow=0;rounded=0;comic=0;labelBackgroundColor=none;labelBorderColor=none;spacingTop=0;spacing=20;spacingLeft=0;spacingRight=0;strokeColor=none;" parent="wjHBH-QL_tbnoy2PB-K--37" vertex="1">
          <mxGeometry width="120" height="80" as="geometry" />
        </mxCell>
        <mxCell id="wjHBH-QL_tbnoy2PB-K--29" value="" style="group" parent="1" connectable="0" vertex="1">
          <mxGeometry x="1040" y="-360" width="120" height="80" as="geometry" />
        </mxCell>
        <mxCell id="K0IDoOXKWO9ZwHZOIm7M-14" value="" style="whiteSpace=wrap;html=1;fillColor=#eeeedd;shadow=0;" parent="wjHBH-QL_tbnoy2PB-K--29" vertex="1">
          <mxGeometry width="120" height="80" as="geometry" />
        </mxCell>
        <mxCell id="K0IDoOXKWO9ZwHZOIm7M-15" value="expr char is &#39;\&#39;" style="rhombus;whiteSpace=wrap;html=1;direction=south;fontSize=11;fillColor=#FFFFCC;gradientColor=none;fillStyle=auto;strokeWidth=1;shadow=0;rounded=0;comic=0;labelBackgroundColor=none;labelBorderColor=none;spacingTop=0;spacing=20;spacingLeft=0;spacingRight=0;strokeColor=none;" parent="wjHBH-QL_tbnoy2PB-K--29" vertex="1">
          <mxGeometry width="120" height="80" as="geometry" />
        </mxCell>
        <mxCell id="wjHBH-QL_tbnoy2PB-K--30" value="" style="group" parent="1" connectable="0" vertex="1">
          <mxGeometry x="1040" y="-240" width="120" height="80" as="geometry" />
        </mxCell>
        <mxCell id="K0IDoOXKWO9ZwHZOIm7M-18" value="" style="whiteSpace=wrap;html=1;fillColor=#eeeedd;shadow=0;" parent="wjHBH-QL_tbnoy2PB-K--30" vertex="1">
          <mxGeometry width="120" height="80" as="geometry" />
        </mxCell>
        <mxCell id="K0IDoOXKWO9ZwHZOIm7M-19" value="expr char is &#39;n&#39;" style="rhombus;whiteSpace=wrap;html=1;direction=south;fontSize=11;fillColor=#FFFFCC;gradientColor=none;fillStyle=auto;strokeWidth=1;shadow=0;rounded=0;comic=0;labelBackgroundColor=none;labelBorderColor=none;spacingTop=0;spacing=20;spacingLeft=0;spacingRight=0;strokeColor=none;" parent="wjHBH-QL_tbnoy2PB-K--30" vertex="1">
          <mxGeometry width="120" height="80" as="geometry" />
        </mxCell>
        <mxCell id="wjHBH-QL_tbnoy2PB-K--31" value="" style="group" parent="1" connectable="0" vertex="1">
          <mxGeometry x="1040" y="-120" width="120" height="80" as="geometry" />
        </mxCell>
        <mxCell id="K0IDoOXKWO9ZwHZOIm7M-22" value="" style="whiteSpace=wrap;html=1;fillColor=#eeeedd;shadow=0;" parent="wjHBH-QL_tbnoy2PB-K--31" vertex="1">
          <mxGeometry width="120" height="80" as="geometry" />
        </mxCell>
        <mxCell id="K0IDoOXKWO9ZwHZOIm7M-23" value="expr char is &#39;t&#39;" style="rhombus;whiteSpace=wrap;html=1;direction=south;fontSize=11;fillColor=#FFFFCC;gradientColor=none;fillStyle=auto;strokeWidth=1;shadow=0;rounded=0;comic=0;labelBackgroundColor=none;labelBorderColor=none;spacingTop=0;spacing=20;spacingLeft=0;spacingRight=0;strokeColor=none;" parent="wjHBH-QL_tbnoy2PB-K--31" vertex="1">
          <mxGeometry width="120" height="80" as="geometry" />
        </mxCell>
        <mxCell id="wjHBH-QL_tbnoy2PB-K--32" value="" style="group" parent="1" connectable="0" vertex="1">
          <mxGeometry x="1280" y="-600" width="120" height="80" as="geometry" />
        </mxCell>
        <mxCell id="K0IDoOXKWO9ZwHZOIm7M-43" value="" style="whiteSpace=wrap;html=1;fillColor=#eeeedd;shadow=0;" parent="wjHBH-QL_tbnoy2PB-K--32" vertex="1">
          <mxGeometry width="120" height="80" as="geometry" />
        </mxCell>
        <mxCell id="K0IDoOXKWO9ZwHZOIm7M-44" value="previous subexpression is wildcard and hasn&#39;t reached maximum length yet" style="rhombus;whiteSpace=wrap;html=1;direction=south;fontSize=11;fillColor=#FFFFCC;gradientColor=none;fillStyle=auto;strokeWidth=1;shadow=0;rounded=0;comic=0;labelBackgroundColor=none;labelBorderColor=none;spacingTop=0;spacing=20;spacingLeft=0;spacingRight=0;strokeColor=none;" parent="wjHBH-QL_tbnoy2PB-K--32" vertex="1">
          <mxGeometry width="120" height="80" as="geometry" />
        </mxCell>
        <mxCell id="wjHBH-QL_tbnoy2PB-K--33" value="" style="group" parent="1" connectable="0" vertex="1">
          <mxGeometry x="720" y="-600" width="120" height="80" as="geometry" />
        </mxCell>
        <mxCell id="K0IDoOXKWO9ZwHZOIm7M-2" value="" style="whiteSpace=wrap;html=1;fillColor=#eeeedd;shadow=0;" parent="wjHBH-QL_tbnoy2PB-K--33" vertex="1">
          <mxGeometry width="120" height="80" as="geometry" />
        </mxCell>
        <mxCell id="K0IDoOXKWO9ZwHZOIm7M-3" value="expr char is &#39;\&#39;" style="rhombus;whiteSpace=wrap;html=1;direction=south;fontSize=11;fillColor=#FFFFCC;gradientColor=none;fillStyle=auto;strokeWidth=1;shadow=0;rounded=0;comic=0;labelBackgroundColor=none;labelBorderColor=none;spacingTop=0;spacing=20;spacingLeft=0;spacingRight=0;strokeColor=none;" parent="wjHBH-QL_tbnoy2PB-K--33" vertex="1">
          <mxGeometry width="120" height="80" as="geometry" />
        </mxCell>
        <mxCell id="wjHBH-QL_tbnoy2PB-K--34" value="" style="group" parent="1" connectable="0" vertex="1">
          <mxGeometry x="320" y="-360" width="120" height="80" as="geometry" />
        </mxCell>
        <mxCell id="_Qh-26nUSpiDtWEDh_ZP-8" value="" style="whiteSpace=wrap;html=1;fillColor=#eeeedd;shadow=0;" parent="wjHBH-QL_tbnoy2PB-K--34" vertex="1">
          <mxGeometry width="120" height="80" as="geometry" />
        </mxCell>
        <mxCell id="_Qh-26nUSpiDtWEDh_ZP-9" value="raw src char == raw expr char" style="rhombus;whiteSpace=wrap;html=1;direction=south;fontSize=11;fillColor=#FFFFCC;gradientColor=none;fillStyle=auto;strokeWidth=1;shadow=0;rounded=0;comic=0;labelBackgroundColor=none;labelBorderColor=none;spacingTop=0;spacing=20;spacingLeft=0;spacingRight=0;strokeColor=none;" parent="wjHBH-QL_tbnoy2PB-K--34" vertex="1">
          <mxGeometry width="120" height="80" as="geometry" />
        </mxCell>
        <mxCell id="wjHBH-QL_tbnoy2PB-K--35" value="" style="group" parent="1" connectable="0" vertex="1">
          <mxGeometry x="30" y="130" width="120" height="80" as="geometry" />
        </mxCell>
        <mxCell id="_Qh-26nUSpiDtWEDh_ZP-95" value="" style="whiteSpace=wrap;html=1;fillColor=#eeeedd;shadow=0;container=0;" parent="wjHBH-QL_tbnoy2PB-K--35" vertex="1">
          <mxGeometry width="120" height="80" as="geometry" />
        </mxCell>
        <mxCell id="_Qh-26nUSpiDtWEDh_ZP-96" value="expr[index + 1] == &#39;|&#39;" style="rhombus;whiteSpace=wrap;html=1;direction=south;fontSize=11;fillColor=#FFFFCC;gradientColor=none;fillStyle=auto;strokeWidth=1;shadow=0;rounded=0;comic=0;labelBackgroundColor=none;labelBorderColor=none;spacingTop=0;spacing=20;spacingLeft=0;spacingRight=0;strokeColor=none;container=0;" parent="wjHBH-QL_tbnoy2PB-K--35" vertex="1">
          <mxGeometry width="120" height="80" as="geometry" />
        </mxCell>
      </root>
    </mxGraphModel>
  </diagram>
  <diagram id="gY8PC_5KSNzwMie1iZ8c" name="shapes">
    <mxGraphModel dx="1399" dy="820" grid="1" gridSize="10" guides="1" tooltips="1" connect="1" arrows="1" fold="1" page="1" pageScale="1" pageWidth="1600" pageHeight="900" math="0" shadow="0">
      <root>
        <mxCell id="0" />
        <mxCell id="1" parent="0" />
        <mxCell id="GFwMEUyfEloDIGmdnb7E-3" value="" style="group" parent="1" vertex="1" connectable="0">
          <mxGeometry x="80" y="120" width="120" height="80" as="geometry" />
        </mxCell>
        <mxCell id="GFwMEUyfEloDIGmdnb7E-1" value="" style="whiteSpace=wrap;html=1;fillColor=#eeeedd;shadow=0;" parent="GFwMEUyfEloDIGmdnb7E-3" vertex="1">
          <mxGeometry width="120" height="80" as="geometry" />
        </mxCell>
        <mxCell id="GFwMEUyfEloDIGmdnb7E-2" value="condition" style="rhombus;whiteSpace=wrap;html=1;direction=south;fontSize=11;fillColor=#FFFFCC;gradientColor=none;fillStyle=auto;strokeWidth=0;shadow=0;rounded=0;comic=0;labelBackgroundColor=none;labelBorderColor=none;spacingTop=0;spacing=20;spacingLeft=0;spacingRight=0;strokeColor=none;points=[];" parent="GFwMEUyfEloDIGmdnb7E-3" vertex="1">
          <mxGeometry width="120" height="80" as="geometry" />
        </mxCell>
        <mxCell id="nFvjT4eJp_SW4mpvW2th-1" value="boolean" style="rounded=0;whiteSpace=wrap;html=1;" parent="1" vertex="1">
          <mxGeometry x="80" y="40" width="120" height="60" as="geometry" />
        </mxCell>
        <mxCell id="nFvjT4eJp_SW4mpvW2th-2" value="connector" style="rounded=0;whiteSpace=wrap;html=1;" parent="1" vertex="1">
          <mxGeometry x="240" y="40" width="120" height="60" as="geometry" />
        </mxCell>
        <mxCell id="U4svSzR3CbTQPydk_xCZ-1" value="" style="ellipse;whiteSpace=wrap;html=1;gradientColor=#FFFFFF;gradientDirection=radial;strokeColor=#3D3D3D;perimeterSpacing=5;shadow=0;fillColor=#a0a0a0;noLabel=1;overflow=hidden;strokeOpacity=50;fillOpacity=75;container=0;recursiveResize=0;editable=1;movable=1;resizable=0;rotatable=1;deletable=1;locked=0;connectable=1;comic=0;fixedWidth=0;metaEdit=0;expand=0;points=[];" parent="1" vertex="1">
          <mxGeometry x="290" y="150" width="20" height="20" as="geometry" />
        </mxCell>
      </root>
    </mxGraphModel>
  </diagram>
  <diagram id="sY1B3ILMIEWS4-tHoMJ9" name="regex simple shapes">
    <mxGraphModel dx="1708" dy="1423" grid="1" gridSize="10" guides="1" tooltips="1" connect="1" arrows="1" fold="1" page="1" pageScale="1" pageWidth="827" pageHeight="1169" math="0" shadow="0">
      <root>
        <mxCell id="0" />
        <mxCell id="1" parent="0" />
        <mxCell id="Pz8Olxt-yS48J8MQuVk--1" value="enter function" style="whiteSpace=wrap;html=1;" parent="1" vertex="1">
          <mxGeometry x="200" y="680" width="120" height="80" as="geometry" />
        </mxCell>
        <mxCell id="Pz8Olxt-yS48J8MQuVk--2" value="src_index = 0, pattern_index = 0, expr_depth=0, xvalues[0].string=&quot;&quot;,&lt;div&gt;xvalues_index=0,&lt;/div&gt;&lt;div&gt;xvalues[0].type=string;&lt;/div&gt;&lt;div&gt;&lt;br&gt;&lt;/div&gt;" style="whiteSpace=wrap;html=1;" parent="1" vertex="1">
          <mxGeometry x="200" y="800" width="120" height="120" as="geometry" />
        </mxCell>
        <mxCell id="Pz8Olxt-yS48J8MQuVk--8" value="pattern char == &#39;\\&#39;" style="rhombus;whiteSpace=wrap;html=1;" parent="1" vertex="1">
          <mxGeometry x="200" y="960" width="120" height="80" as="geometry" />
        </mxCell>
        <mxCell id="Pz8Olxt-yS48J8MQuVk--9" value="" style="edgeStyle=none;orthogonalLoop=1;jettySize=auto;html=1;rounded=0;fillColor=#d5e8d4;strokeColor=#82b366;" parent="1" source="Pz8Olxt-yS48J8MQuVk--8" target="Pz8Olxt-yS48J8MQuVk--24" edge="1">
          <mxGeometry width="80" relative="1" as="geometry">
            <mxPoint x="370" y="940" as="sourcePoint" />
            <mxPoint x="360" y="960" as="targetPoint" />
            <Array as="points" />
          </mxGeometry>
        </mxCell>
        <mxCell id="Pz8Olxt-yS48J8MQuVk--11" value="" style="edgeStyle=none;orthogonalLoop=1;jettySize=auto;html=1;rounded=0;" parent="1" source="Pz8Olxt-yS48J8MQuVk--2" target="Pz8Olxt-yS48J8MQuVk--8" edge="1">
          <mxGeometry width="80" relative="1" as="geometry">
            <mxPoint x="350" y="950" as="sourcePoint" />
            <mxPoint x="430" y="950" as="targetPoint" />
            <Array as="points" />
          </mxGeometry>
        </mxCell>
        <mxCell id="Pz8Olxt-yS48J8MQuVk--12" value="pattern char&lt;div&gt;== &#39;\\&#39;&lt;/div&gt;" style="rhombus;whiteSpace=wrap;html=1;" parent="1" vertex="1">
          <mxGeometry x="520" y="960" width="120" height="80" as="geometry" />
        </mxCell>
        <mxCell id="Pz8Olxt-yS48J8MQuVk--13" value="" style="edgeStyle=none;orthogonalLoop=1;jettySize=auto;html=1;rounded=0;fillColor=#d5e8d4;strokeColor=#82b366;" parent="1" source="Pz8Olxt-yS48J8MQuVk--12" target="Pz8Olxt-yS48J8MQuVk--14" edge="1">
          <mxGeometry width="80" relative="1" as="geometry">
            <mxPoint x="630" y="1070" as="sourcePoint" />
            <mxPoint x="680" y="1000" as="targetPoint" />
            <Array as="points" />
          </mxGeometry>
        </mxCell>
        <mxCell id="Pz8Olxt-yS48J8MQuVk--14" value="xvalue append &#39;\\&#39;" style="whiteSpace=wrap;html=1;" parent="1" vertex="1">
          <mxGeometry x="680" y="960" width="120" height="80" as="geometry" />
        </mxCell>
        <mxCell id="Pz8Olxt-yS48J8MQuVk--15" value="" style="edgeStyle=none;orthogonalLoop=1;jettySize=auto;html=1;rounded=0;fillColor=#f8cecc;strokeColor=#b85450;" parent="1" source="Pz8Olxt-yS48J8MQuVk--12" target="Pz8Olxt-yS48J8MQuVk--16" edge="1">
          <mxGeometry width="80" relative="1" as="geometry">
            <mxPoint x="640" y="1080" as="sourcePoint" />
            <mxPoint x="580" y="1080" as="targetPoint" />
            <Array as="points" />
          </mxGeometry>
        </mxCell>
        <mxCell id="Pz8Olxt-yS48J8MQuVk--16" value="pattern char&amp;nbsp;&lt;div&gt;== &#39;n&#39;&lt;/div&gt;" style="rhombus;whiteSpace=wrap;html=1;" parent="1" vertex="1">
          <mxGeometry x="520" y="1080" width="120" height="80" as="geometry" />
        </mxCell>
        <mxCell id="Pz8Olxt-yS48J8MQuVk--17" value="" style="edgeStyle=none;orthogonalLoop=1;jettySize=auto;html=1;rounded=0;" parent="1" source="Pz8Olxt-yS48J8MQuVk--1" target="Pz8Olxt-yS48J8MQuVk--2" edge="1">
          <mxGeometry width="80" relative="1" as="geometry">
            <mxPoint x="290" y="830" as="sourcePoint" />
            <mxPoint x="370" y="830" as="targetPoint" />
            <Array as="points" />
          </mxGeometry>
        </mxCell>
        <mxCell id="Pz8Olxt-yS48J8MQuVk--18" value="" style="edgeStyle=none;orthogonalLoop=1;jettySize=auto;html=1;rounded=0;fillColor=#d5e8d4;strokeColor=#82b366;" parent="1" source="Pz8Olxt-yS48J8MQuVk--16" target="Pz8Olxt-yS48J8MQuVk--19" edge="1">
          <mxGeometry width="80" relative="1" as="geometry">
            <mxPoint x="640" y="1120" as="sourcePoint" />
            <mxPoint x="680" y="1120" as="targetPoint" />
            <Array as="points" />
          </mxGeometry>
        </mxCell>
        <mxCell id="Pz8Olxt-yS48J8MQuVk--19" value="xvalue append &#39;\n&#39;" style="whiteSpace=wrap;html=1;" parent="1" vertex="1">
          <mxGeometry x="680" y="1080" width="120" height="80" as="geometry" />
        </mxCell>
        <mxCell id="Pz8Olxt-yS48J8MQuVk--20" value="" style="edgeStyle=none;orthogonalLoop=1;jettySize=auto;html=1;rounded=0;fillColor=#f8cecc;strokeColor=#b85450;" parent="1" source="Pz8Olxt-yS48J8MQuVk--16" target="Pz8Olxt-yS48J8MQuVk--21" edge="1">
          <mxGeometry width="80" relative="1" as="geometry">
            <mxPoint x="580" y="1160" as="sourcePoint" />
            <mxPoint x="580" y="1200" as="targetPoint" />
            <Array as="points" />
          </mxGeometry>
        </mxCell>
        <mxCell id="Pz8Olxt-yS48J8MQuVk--21" value="pattern char&lt;div&gt;== &#39;0&#39;&lt;/div&gt;" style="rhombus;whiteSpace=wrap;html=1;" parent="1" vertex="1">
          <mxGeometry x="520" y="1200" width="120" height="80" as="geometry" />
        </mxCell>
        <mxCell id="Pz8Olxt-yS48J8MQuVk--22" value="" style="edgeStyle=none;orthogonalLoop=1;jettySize=auto;html=1;rounded=0;fillColor=#d5e8d4;strokeColor=#82b366;" parent="1" source="Pz8Olxt-yS48J8MQuVk--21" target="Pz8Olxt-yS48J8MQuVk--23" edge="1">
          <mxGeometry width="80" relative="1" as="geometry">
            <mxPoint x="640" y="1240" as="sourcePoint" />
            <mxPoint x="680" y="1240" as="targetPoint" />
            <Array as="points" />
          </mxGeometry>
        </mxCell>
        <mxCell id="Pz8Olxt-yS48J8MQuVk--23" value="xvalue append &#39;\0&#39;" style="whiteSpace=wrap;html=1;" parent="1" vertex="1">
          <mxGeometry x="680" y="1200" width="120" height="80" as="geometry" />
        </mxCell>
        <mxCell id="Pz8Olxt-yS48J8MQuVk--24" value="pattern index++;" style="whiteSpace=wrap;html=1;" parent="1" vertex="1">
          <mxGeometry x="360" y="960" width="120" height="80" as="geometry" />
        </mxCell>
        <mxCell id="Pz8Olxt-yS48J8MQuVk--25" value="" style="edgeStyle=none;orthogonalLoop=1;jettySize=auto;html=1;rounded=0;" parent="1" source="Pz8Olxt-yS48J8MQuVk--24" target="Pz8Olxt-yS48J8MQuVk--12" edge="1">
          <mxGeometry width="80" relative="1" as="geometry">
            <mxPoint x="450" y="1090" as="sourcePoint" />
            <mxPoint x="530" y="1090" as="targetPoint" />
            <Array as="points" />
          </mxGeometry>
        </mxCell>
        <mxCell id="Pz8Olxt-yS48J8MQuVk--26" value="" style="edgeStyle=none;orthogonalLoop=1;jettySize=auto;html=1;rounded=0;fillColor=#f8cecc;strokeColor=#b85450;" parent="1" source="Pz8Olxt-yS48J8MQuVk--21" target="Pz8Olxt-yS48J8MQuVk--27" edge="1">
          <mxGeometry width="80" relative="1" as="geometry">
            <mxPoint x="580" y="1280" as="sourcePoint" />
            <mxPoint x="580" y="1320" as="targetPoint" />
            <Array as="points" />
          </mxGeometry>
        </mxCell>
        <mxCell id="Pz8Olxt-yS48J8MQuVk--27" value="pattern char&lt;div&gt;== &#39;t&#39;&lt;/div&gt;" style="rhombus;whiteSpace=wrap;html=1;" parent="1" vertex="1">
          <mxGeometry x="520" y="1320" width="120" height="80" as="geometry" />
        </mxCell>
        <mxCell id="Pz8Olxt-yS48J8MQuVk--28" value="" style="edgeStyle=none;orthogonalLoop=1;jettySize=auto;html=1;rounded=0;fillColor=#d5e8d4;strokeColor=#82b366;" parent="1" source="Pz8Olxt-yS48J8MQuVk--27" target="Pz8Olxt-yS48J8MQuVk--29" edge="1">
          <mxGeometry width="80" relative="1" as="geometry">
            <mxPoint x="640" y="1360" as="sourcePoint" />
            <mxPoint x="680" y="1360" as="targetPoint" />
            <Array as="points" />
          </mxGeometry>
        </mxCell>
        <mxCell id="Pz8Olxt-yS48J8MQuVk--29" value="xvalue append &#39;\t&#39;" style="whiteSpace=wrap;html=1;" parent="1" vertex="1">
          <mxGeometry x="680" y="1320" width="120" height="80" as="geometry" />
        </mxCell>
        <mxCell id="Pz8Olxt-yS48J8MQuVk--31" value="" style="edgeStyle=none;orthogonalLoop=1;jettySize=auto;html=1;rounded=0;fillColor=#f8cecc;strokeColor=#b85450;" parent="1" source="Pz8Olxt-yS48J8MQuVk--27" target="Pz8Olxt-yS48J8MQuVk--32" edge="1">
          <mxGeometry width="80" relative="1" as="geometry">
            <mxPoint x="580" y="1400" as="sourcePoint" />
            <mxPoint x="580" y="1440" as="targetPoint" />
            <Array as="points" />
          </mxGeometry>
        </mxCell>
        <mxCell id="Pz8Olxt-yS48J8MQuVk--32" value="pattern char&lt;div&gt;== &#39;{&#39;&lt;/div&gt;" style="rhombus;whiteSpace=wrap;html=1;" parent="1" vertex="1">
          <mxGeometry x="520" y="1440" width="120" height="80" as="geometry" />
        </mxCell>
        <mxCell id="Pz8Olxt-yS48J8MQuVk--33" value="" style="edgeStyle=none;orthogonalLoop=1;jettySize=auto;html=1;rounded=0;fillColor=#d5e8d4;strokeColor=#82b366;" parent="1" source="Pz8Olxt-yS48J8MQuVk--32" target="Pz8Olxt-yS48J8MQuVk--36" edge="1">
          <mxGeometry width="80" relative="1" as="geometry">
            <mxPoint x="657" y="1474" as="sourcePoint" />
            <mxPoint x="680" y="1480" as="targetPoint" />
            <Array as="points" />
          </mxGeometry>
        </mxCell>
        <mxCell id="Pz8Olxt-yS48J8MQuVk--34" value="expr_depth++;" style="whiteSpace=wrap;html=1;" parent="1" vertex="1">
          <mxGeometry x="840" y="1440" width="120" height="80" as="geometry" />
        </mxCell>
        <mxCell id="Pz8Olxt-yS48J8MQuVk--36" value="expr_depth&lt;div&gt;&amp;lt;&lt;/div&gt;&lt;div&gt;ui32_max&lt;/div&gt;" style="rhombus;whiteSpace=wrap;html=1;" parent="1" vertex="1">
          <mxGeometry x="680" y="1440" width="120" height="80" as="geometry" />
        </mxCell>
        <mxCell id="Pz8Olxt-yS48J8MQuVk--38" value="" style="edgeStyle=none;orthogonalLoop=1;jettySize=auto;html=1;rounded=0;fillColor=#d5e8d4;strokeColor=#82b366;" parent="1" source="Pz8Olxt-yS48J8MQuVk--36" target="Pz8Olxt-yS48J8MQuVk--34" edge="1">
          <mxGeometry width="80" relative="1" as="geometry">
            <mxPoint x="730" y="1470" as="sourcePoint" />
            <mxPoint x="810" y="1470" as="targetPoint" />
            <Array as="points" />
          </mxGeometry>
        </mxCell>
        <mxCell id="Pz8Olxt-yS48J8MQuVk--39" value="" style="edgeStyle=none;orthogonalLoop=1;jettySize=auto;html=1;rounded=0;fillColor=#f8cecc;strokeColor=#b85450;" parent="1" source="Pz8Olxt-yS48J8MQuVk--36" target="Pz8Olxt-yS48J8MQuVk--40" edge="1">
          <mxGeometry width="80" relative="1" as="geometry">
            <mxPoint x="740" y="1520" as="sourcePoint" />
            <mxPoint x="740" y="1560" as="targetPoint" />
            <Array as="points" />
          </mxGeometry>
        </mxCell>
        <mxCell id="Pz8Olxt-yS48J8MQuVk--40" value="invalid expression. print warning and return nothing." style="whiteSpace=wrap;html=1;" parent="1" vertex="1">
          <mxGeometry x="680" y="1560" width="120" height="80" as="geometry" />
        </mxCell>
        <mxCell id="Pz8Olxt-yS48J8MQuVk--42" value="pattern char&lt;div&gt;== &#39;}&#39;&lt;/div&gt;" style="rhombus;whiteSpace=wrap;html=1;" parent="1" vertex="1">
          <mxGeometry x="680" y="1680" width="120" height="80" as="geometry" />
        </mxCell>
        <mxCell id="Pz8Olxt-yS48J8MQuVk--46" value="" style="edgeStyle=none;orthogonalLoop=1;jettySize=auto;html=1;rounded=0;fillColor=#d5e8d4;strokeColor=#82b366;" parent="1" source="Pz8Olxt-yS48J8MQuVk--42" target="eU-9lOjxNEsckzyafZD7-1" edge="1">
          <mxGeometry width="80" relative="1" as="geometry">
            <mxPoint x="810" y="1720" as="sourcePoint" />
            <mxPoint x="1040" y="1720" as="targetPoint" />
            <Array as="points">
              <mxPoint x="1080" y="1720" />
              <mxPoint x="1300" y="1940" />
            </Array>
          </mxGeometry>
        </mxCell>
        <mxCell id="Pz8Olxt-yS48J8MQuVk--47" value="" style="edgeStyle=none;orthogonalLoop=1;jettySize=auto;html=1;rounded=0;fillColor=#f8cecc;strokeColor=#b85450;" parent="1" source="Pz8Olxt-yS48J8MQuVk--54" target="Pz8Olxt-yS48J8MQuVk--48" edge="1">
          <mxGeometry width="80" relative="1" as="geometry">
            <mxPoint x="580" y="1760" as="sourcePoint" />
            <mxPoint x="580" y="1800" as="targetPoint" />
            <Array as="points" />
          </mxGeometry>
        </mxCell>
        <mxCell id="Pz8Olxt-yS48J8MQuVk--48" value="invalid expression. print warning and return no matches." style="whiteSpace=wrap;html=1;" parent="1" vertex="1">
          <mxGeometry x="520" y="1800" width="120" height="80" as="geometry" />
        </mxCell>
        <mxCell id="Pz8Olxt-yS48J8MQuVk--49" value="" style="edgeStyle=none;orthogonalLoop=1;jettySize=auto;html=1;rounded=0;" parent="1" source="Pz8Olxt-yS48J8MQuVk--32" target="Pz8Olxt-yS48J8MQuVk--54" edge="1">
          <mxGeometry width="80" relative="1" as="geometry">
            <mxPoint x="539.2315384615385" y="1538.8423076923077" as="sourcePoint" />
            <mxPoint x="560" y="1680" as="targetPoint" />
            <Array as="points" />
          </mxGeometry>
        </mxCell>
        <mxCell id="Pz8Olxt-yS48J8MQuVk--52" value="pattern char&lt;div&gt;== &#39;-&#39;&lt;/div&gt;" style="rhombus;whiteSpace=wrap;html=1;" parent="1" vertex="1">
          <mxGeometry x="680" y="1800" width="120" height="80" as="geometry" />
        </mxCell>
        <mxCell id="Pz8Olxt-yS48J8MQuVk--53" value="" style="edgeStyle=none;orthogonalLoop=1;jettySize=auto;html=1;rounded=0;fillColor=#d5e8d4;strokeColor=#82b366;" parent="1" source="Pz8Olxt-yS48J8MQuVk--54" target="Pz8Olxt-yS48J8MQuVk--42" edge="1">
          <mxGeometry width="80" relative="1" as="geometry">
            <mxPoint x="680" y="1720" as="sourcePoint" />
            <mxPoint x="720" y="1720" as="targetPoint" />
            <Array as="points" />
          </mxGeometry>
        </mxCell>
        <mxCell id="Pz8Olxt-yS48J8MQuVk--54" value="expr_depth&amp;gt;0" style="rhombus;whiteSpace=wrap;html=1;" parent="1" vertex="1">
          <mxGeometry x="520" y="1680" width="120" height="80" as="geometry" />
        </mxCell>
        <mxCell id="Pz8Olxt-yS48J8MQuVk--55" value="" style="edgeStyle=none;orthogonalLoop=1;jettySize=auto;html=1;rounded=0;fillColor=#f8cecc;strokeColor=#b85450;jumpStyle=sharp;jumpSize=10;" parent="1" source="Pz8Olxt-yS48J8MQuVk--52" target="Pz8Olxt-yS48J8MQuVk--61" edge="1">
          <mxGeometry width="80" relative="1" as="geometry">
            <mxPoint x="604" y="1824" as="sourcePoint" />
            <mxPoint x="740" y="1920" as="targetPoint" />
            <Array as="points" />
          </mxGeometry>
        </mxCell>
        <mxCell id="Pz8Olxt-yS48J8MQuVk--58" value="" style="edgeStyle=none;orthogonalLoop=1;jettySize=auto;html=1;rounded=0;fillColor=#d5e8d4;strokeColor=#82b366;" parent="1" source="Pz8Olxt-yS48J8MQuVk--52" target="MXQNLOqsnorsUrhFwTJA-1" edge="1">
          <mxGeometry width="80" relative="1" as="geometry">
            <mxPoint x="710" y="1830" as="sourcePoint" />
            <mxPoint x="840" y="1840" as="targetPoint" />
            <Array as="points" />
          </mxGeometry>
        </mxCell>
        <mxCell id="Pz8Olxt-yS48J8MQuVk--61" value="pattern char&lt;div&gt;== &#39;,&#39;&lt;/div&gt;" style="rhombus;whiteSpace=wrap;html=1;" parent="1" vertex="1">
          <mxGeometry x="680" y="2120" width="120" height="80" as="geometry" />
        </mxCell>
        <mxCell id="Pz8Olxt-yS48J8MQuVk--62" value="" style="edgeStyle=none;orthogonalLoop=1;jettySize=auto;html=1;rounded=0;fillColor=#d5e8d4;strokeColor=#82b366;" parent="1" source="Pz8Olxt-yS48J8MQuVk--61" target="Pz8Olxt-yS48J8MQuVk--64" edge="1">
          <mxGeometry width="80" relative="1" as="geometry">
            <mxPoint x="830" y="2150" as="sourcePoint" />
            <mxPoint x="840" y="2160" as="targetPoint" />
            <Array as="points" />
          </mxGeometry>
        </mxCell>
        <mxCell id="Pz8Olxt-yS48J8MQuVk--64" value="xvalues_index++; xvalue.type=attribute;&lt;div&gt;xvalue.string=&quot;&quot;;&lt;/div&gt;" style="whiteSpace=wrap;html=1;" parent="1" vertex="1">
          <mxGeometry x="840" y="2120" width="120" height="80" as="geometry" />
        </mxCell>
        <mxCell id="Pz8Olxt-yS48J8MQuVk--66" value="" style="edgeStyle=none;orthogonalLoop=1;jettySize=auto;html=1;rounded=0;fillColor=#f8cecc;strokeColor=#b85450;" parent="1" source="Pz8Olxt-yS48J8MQuVk--42" target="Pz8Olxt-yS48J8MQuVk--52" edge="1">
          <mxGeometry width="80" relative="1" as="geometry">
            <mxPoint x="750" y="1890" as="sourcePoint" />
            <mxPoint x="740" y="1830" as="targetPoint" />
            <Array as="points" />
          </mxGeometry>
        </mxCell>
        <mxCell id="MXQNLOqsnorsUrhFwTJA-1" value="xvalues[index-1].type == rangeL" style="rhombus;whiteSpace=wrap;html=1;" parent="1" vertex="1">
          <mxGeometry x="840" y="1800" width="120" height="80" as="geometry" />
        </mxCell>
        <mxCell id="MXQNLOqsnorsUrhFwTJA-3" value="&lt;div&gt;xvalue.type=rangeL;&lt;/div&gt;&lt;div&gt;xvalues_index++;&lt;/div&gt;&lt;div&gt;xvalues[index+1]=rangeR;&lt;/div&gt;" style="whiteSpace=wrap;html=1;" parent="1" vertex="1">
          <mxGeometry x="840" y="1920" width="120" height="80" as="geometry" />
        </mxCell>
        <mxCell id="MXQNLOqsnorsUrhFwTJA-4" value="" style="edgeStyle=none;orthogonalLoop=1;jettySize=auto;html=1;rounded=0;fillColor=#f8cecc;strokeColor=#b85450;" parent="1" source="MXQNLOqsnorsUrhFwTJA-1" target="MXQNLOqsnorsUrhFwTJA-3" edge="1">
          <mxGeometry width="80" relative="1" as="geometry">
            <mxPoint x="899.5" y="1890" as="sourcePoint" />
            <mxPoint x="900" y="1920" as="targetPoint" />
            <Array as="points" />
          </mxGeometry>
        </mxCell>
        <mxCell id="MXQNLOqsnorsUrhFwTJA-6" value="" style="edgeStyle=none;orthogonalLoop=1;jettySize=auto;html=1;rounded=0;fillColor=#d5e8d4;strokeColor=#82b366;jumpStyle=sharp;jumpSize=10;" parent="1" source="MXQNLOqsnorsUrhFwTJA-1" target="Pz8Olxt-yS48J8MQuVk--48" edge="1">
          <mxGeometry width="80" relative="1" as="geometry">
            <mxPoint x="799" y="1950" as="sourcePoint" />
            <mxPoint x="799" y="1990" as="targetPoint" />
            <Array as="points">
              <mxPoint x="800" y="1920" />
              <mxPoint x="740" y="1920" />
              <mxPoint x="680" y="1920" />
            </Array>
          </mxGeometry>
        </mxCell>
        <mxCell id="MXQNLOqsnorsUrhFwTJA-7" value="" style="edgeStyle=none;orthogonalLoop=1;jettySize=auto;html=1;rounded=0;fillColor=#f8cecc;strokeColor=#b85450;" parent="1" source="Pz8Olxt-yS48J8MQuVk--8" edge="1">
          <mxGeometry width="80" relative="1" as="geometry">
            <mxPoint x="259.5" y="1040" as="sourcePoint" />
            <mxPoint x="259.5" y="1080" as="targetPoint" />
            <Array as="points" />
          </mxGeometry>
        </mxCell>
        <mxCell id="MXQNLOqsnorsUrhFwTJA-12" value="" style="edgeStyle=none;orthogonalLoop=1;jettySize=auto;html=1;rounded=0;fillColor=#f8cecc;strokeColor=#b85450;" parent="1" source="eU-9lOjxNEsckzyafZD7-1" target="2nqgOhVoaRxBC__t8u-R-10" edge="1">
          <mxGeometry width="80" relative="1" as="geometry">
            <mxPoint x="1301" y="2000" as="sourcePoint" />
            <mxPoint x="1301" y="2120" as="targetPoint" />
            <Array as="points" />
          </mxGeometry>
        </mxCell>
        <mxCell id="MXQNLOqsnorsUrhFwTJA-23" value="src chars remaining &amp;gt;= min expression chars?" style="rhombus;whiteSpace=wrap;html=1;" parent="1" vertex="1">
          <mxGeometry x="800" y="720" width="120" height="80" as="geometry" />
        </mxCell>
        <mxCell id="MXQNLOqsnorsUrhFwTJA-24" value="" style="edgeStyle=none;orthogonalLoop=1;jettySize=auto;html=1;rounded=0;fillColor=#d5e8d4;strokeColor=#82b366;" parent="1" source="MXQNLOqsnorsUrhFwTJA-23" edge="1" target="Pz8Olxt-yS48J8MQuVk--8">
          <mxGeometry width="80" relative="1" as="geometry">
            <mxPoint x="800" y="760" as="sourcePoint" />
            <mxPoint x="760" y="760" as="targetPoint" />
            <Array as="points">
              <mxPoint x="520" y="760" />
            </Array>
          </mxGeometry>
        </mxCell>
        <mxCell id="pToa5pBcOSoU_Mv4zfX2-1" value="evaluate expression;" style="whiteSpace=wrap;html=1;" parent="1" vertex="1">
          <mxGeometry x="1401" y="2120" width="120" height="80" as="geometry" />
        </mxCell>
        <mxCell id="eU-9lOjxNEsckzyafZD7-1" value="expr type == range &amp;amp;&amp;amp;&lt;br&gt;&amp;nbsp;xvalues[index-1].type == range &amp;amp;&amp;amp;&lt;br&gt;&amp;nbsp;xvalues[index].type == range" style="rhombus;whiteSpace=wrap;html=1;portConstraintRotation=0;spacing=0;labelBackgroundColor=none;labelBorderColor=none;" parent="1" vertex="1">
          <mxGeometry x="1241" y="2000" width="120" height="80" as="geometry" />
        </mxCell>
        <mxCell id="sqL5UuupPqT9H0Ac8cJo-1" value="" style="edgeStyle=none;orthogonalLoop=1;jettySize=auto;html=1;rounded=0;fillColor=#f8cecc;strokeColor=#b85450;" parent="1" source="MXQNLOqsnorsUrhFwTJA-23" target="sqL5UuupPqT9H0Ac8cJo-2" edge="1">
          <mxGeometry width="80" relative="1" as="geometry">
            <mxPoint x="790" y="550" as="sourcePoint" />
            <mxPoint x="860" y="680" as="targetPoint" />
            <Array as="points" />
          </mxGeometry>
        </mxCell>
        <mxCell id="sqL5UuupPqT9H0Ac8cJo-2" value="exit function" style="whiteSpace=wrap;html=1;shadow=0;" parent="1" vertex="1">
          <mxGeometry x="800" y="600" width="120" height="80" as="geometry" />
        </mxCell>
        <mxCell id="2nqgOhVoaRxBC__t8u-R-10" value="..." style="rhombus;whiteSpace=wrap;html=1;portConstraintRotation=0;spacing=0;labelBackgroundColor=none;labelBorderColor=none;" vertex="1" parent="1">
          <mxGeometry x="1241" y="2120" width="120" height="80" as="geometry" />
        </mxCell>
        <mxCell id="2nqgOhVoaRxBC__t8u-R-11" value="" style="edgeStyle=none;orthogonalLoop=1;jettySize=auto;html=1;rounded=0;fillColor=#f8cecc;strokeColor=#b85450;" edge="1" parent="1" source="2nqgOhVoaRxBC__t8u-R-10" target="2nqgOhVoaRxBC__t8u-R-12">
          <mxGeometry width="80" relative="1" as="geometry">
            <mxPoint x="1300.58" y="2210" as="sourcePoint" />
            <mxPoint x="1301" y="2240" as="targetPoint" />
            <Array as="points" />
          </mxGeometry>
        </mxCell>
        <mxCell id="2nqgOhVoaRxBC__t8u-R-12" value="/* not a valid expression, thus not a match! */" style="whiteSpace=wrap;html=1;" vertex="1" parent="1">
          <mxGeometry x="1241" y="2240" width="120" height="80" as="geometry" />
        </mxCell>
        <mxCell id="2nqgOhVoaRxBC__t8u-R-14" value="/*prepare for next...*/&lt;br&gt;expr_index = 0;&lt;br style=&quot;border-color: var(--border-color);&quot;&gt;src_index_base++;&lt;br style=&quot;border-color: var(--border-color);&quot;&gt;expr_depth = 0;&lt;br style=&quot;border-color: var(--border-color);&quot;&gt;etc..." style="whiteSpace=wrap;html=1;" vertex="1" parent="1">
          <mxGeometry x="1241" y="2600" width="120" height="80" as="geometry" />
        </mxCell>
        <mxCell id="2nqgOhVoaRxBC__t8u-R-15" value="" style="edgeStyle=none;orthogonalLoop=1;jettySize=auto;html=1;rounded=0;" edge="1" parent="1" source="2nqgOhVoaRxBC__t8u-R-12" target="2nqgOhVoaRxBC__t8u-R-14">
          <mxGeometry width="80" relative="1" as="geometry">
            <mxPoint x="1177" y="2430" as="sourcePoint" />
            <mxPoint x="1081" y="2550" as="targetPoint" />
            <Array as="points" />
          </mxGeometry>
        </mxCell>
        <mxCell id="2nqgOhVoaRxBC__t8u-R-18" value="" style="edgeStyle=none;orthogonalLoop=1;jettySize=auto;html=1;rounded=0;fillColor=#d5e8d4;strokeColor=#82b366;" edge="1" parent="1" source="eU-9lOjxNEsckzyafZD7-1" target="pToa5pBcOSoU_Mv4zfX2-1">
          <mxGeometry width="80" relative="1" as="geometry">
            <mxPoint x="1471" y="2030" as="sourcePoint" />
            <mxPoint x="1511" y="2030" as="targetPoint" />
            <Array as="points">
              <mxPoint x="1421" y="2040" />
              <mxPoint x="1461" y="2080" />
            </Array>
          </mxGeometry>
        </mxCell>
        <mxCell id="2nqgOhVoaRxBC__t8u-R-19" value="is prefixed by &quot;\!&quot;" style="rhombus;whiteSpace=wrap;html=1;" vertex="1" parent="1">
          <mxGeometry x="1720" y="2240" width="120" height="80" as="geometry" />
        </mxCell>
        <mxCell id="2nqgOhVoaRxBC__t8u-R-20" value="" style="edgeStyle=none;orthogonalLoop=1;jettySize=auto;html=1;rounded=0;fillColor=#d5e8d4;strokeColor=#82b366;" edge="1" parent="1" source="pToa5pBcOSoU_Mv4zfX2-1" target="2nqgOhVoaRxBC__t8u-R-23">
          <mxGeometry width="80" relative="1" as="geometry">
            <mxPoint x="1521" y="2100" as="sourcePoint" />
            <mxPoint x="1461" y="2240" as="targetPoint" />
          </mxGeometry>
        </mxCell>
        <mxCell id="2nqgOhVoaRxBC__t8u-R-21" value="" style="edgeStyle=none;orthogonalLoop=1;jettySize=auto;html=1;rounded=0;fillColor=#f8cecc;strokeColor=#b85450;" edge="1" parent="1" source="2nqgOhVoaRxBC__t8u-R-19" target="2nqgOhVoaRxBC__t8u-R-22">
          <mxGeometry width="80" relative="1" as="geometry">
            <mxPoint x="1830" y="2360" as="sourcePoint" />
            <mxPoint x="1780" y="2360" as="targetPoint" />
            <Array as="points" />
          </mxGeometry>
        </mxCell>
        <mxCell id="2nqgOhVoaRxBC__t8u-R-22" value="result is true" style="whiteSpace=wrap;html=1;" vertex="1" parent="1">
          <mxGeometry x="1720" y="2360" width="120" height="80" as="geometry" />
        </mxCell>
        <mxCell id="2nqgOhVoaRxBC__t8u-R-23" value="result == true?" style="rhombus;whiteSpace=wrap;html=1;" vertex="1" parent="1">
          <mxGeometry x="1401" y="2240" width="120" height="80" as="geometry" />
        </mxCell>
        <mxCell id="2nqgOhVoaRxBC__t8u-R-24" value="" style="edgeStyle=none;orthogonalLoop=1;jettySize=auto;html=1;rounded=0;fillColor=#d5e8d4;strokeColor=#82b366;" edge="1" parent="1" source="2nqgOhVoaRxBC__t8u-R-23" target="2nqgOhVoaRxBC__t8u-R-19">
          <mxGeometry width="80" relative="1" as="geometry">
            <mxPoint x="1601" y="2330" as="sourcePoint" />
            <mxPoint x="1681" y="2330" as="targetPoint" />
            <Array as="points" />
          </mxGeometry>
        </mxCell>
        <mxCell id="2nqgOhVoaRxBC__t8u-R-25" value="" style="edgeStyle=none;orthogonalLoop=1;jettySize=auto;html=1;rounded=0;fillColor=#f8cecc;strokeColor=#b85450;" edge="1" parent="1" source="2nqgOhVoaRxBC__t8u-R-23" target="2nqgOhVoaRxBC__t8u-R-28">
          <mxGeometry width="80" relative="1" as="geometry">
            <mxPoint x="1460.66" y="2320" as="sourcePoint" />
            <mxPoint x="1460.66" y="2360" as="targetPoint" />
            <Array as="points" />
          </mxGeometry>
        </mxCell>
        <mxCell id="2nqgOhVoaRxBC__t8u-R-26" value="" style="edgeStyle=none;orthogonalLoop=1;jettySize=auto;html=1;rounded=0;fillColor=#d5e8d4;strokeColor=#82b366;entryX=1;entryY=0;entryDx=0;entryDy=0;exitX=0;exitY=1;exitDx=0;exitDy=0;" edge="1" parent="1" source="2nqgOhVoaRxBC__t8u-R-19" target="2nqgOhVoaRxBC__t8u-R-28">
          <mxGeometry width="80" relative="1" as="geometry">
            <mxPoint x="1581" y="2350" as="sourcePoint" />
            <mxPoint x="1521" y="2360" as="targetPoint" />
            <Array as="points">
              <mxPoint x="1720" y="2330" />
              <mxPoint x="1551" y="2330" />
            </Array>
          </mxGeometry>
        </mxCell>
        <mxCell id="2nqgOhVoaRxBC__t8u-R-28" value="result is false" style="whiteSpace=wrap;html=1;" vertex="1" parent="1">
          <mxGeometry x="1401" y="2360" width="120" height="80" as="geometry" />
        </mxCell>
        <mxCell id="2nqgOhVoaRxBC__t8u-R-29" value="" style="edgeStyle=none;orthogonalLoop=1;jettySize=auto;html=1;rounded=0;" edge="1" parent="1" source="2nqgOhVoaRxBC__t8u-R-28" target="2nqgOhVoaRxBC__t8u-R-30">
          <mxGeometry width="80" relative="1" as="geometry">
            <mxPoint x="1611" y="2420" as="sourcePoint" />
            <mxPoint x="1461" y="2480" as="targetPoint" />
            <Array as="points" />
          </mxGeometry>
        </mxCell>
        <mxCell id="2nqgOhVoaRxBC__t8u-R-30" value="is there an &quot;or&quot; operator next? (&quot;\|&quot;)" style="rhombus;whiteSpace=wrap;html=1;" vertex="1" parent="1">
          <mxGeometry x="1401" y="2480" width="120" height="80" as="geometry" />
        </mxCell>
        <mxCell id="2nqgOhVoaRxBC__t8u-R-32" value="is there an &quot;and&quot; operator next? (&quot;\&amp;amp;&quot;)" style="rhombus;whiteSpace=wrap;html=1;" vertex="1" parent="1">
          <mxGeometry x="1720" y="2480" width="120" height="80" as="geometry" />
        </mxCell>
        <mxCell id="2nqgOhVoaRxBC__t8u-R-33" value="" style="edgeStyle=none;orthogonalLoop=1;jettySize=auto;html=1;rounded=0;" edge="1" parent="1" source="2nqgOhVoaRxBC__t8u-R-22" target="2nqgOhVoaRxBC__t8u-R-32">
          <mxGeometry width="80" relative="1" as="geometry">
            <mxPoint x="1779.5" y="2440" as="sourcePoint" />
            <mxPoint x="1779.5" y="2480" as="targetPoint" />
            <Array as="points" />
          </mxGeometry>
        </mxCell>
        <mxCell id="2nqgOhVoaRxBC__t8u-R-36" value="" style="edgeStyle=none;orthogonalLoop=1;jettySize=auto;html=1;rounded=0;fillColor=#f8cecc;strokeColor=#b85450;" edge="1" parent="1" source="2nqgOhVoaRxBC__t8u-R-32" target="2nqgOhVoaRxBC__t8u-R-37">
          <mxGeometry width="80" relative="1" as="geometry">
            <mxPoint x="1900" y="2490" as="sourcePoint" />
            <mxPoint x="1880" y="2520" as="targetPoint" />
            <Array as="points" />
          </mxGeometry>
        </mxCell>
        <mxCell id="2nqgOhVoaRxBC__t8u-R-37" value="parent expression is true" style="whiteSpace=wrap;html=1;" vertex="1" parent="1">
          <mxGeometry x="1720" y="2600" width="120" height="80" as="geometry" />
        </mxCell>
        <mxCell id="2nqgOhVoaRxBC__t8u-R-38" value="parent expression is false" style="whiteSpace=wrap;html=1;" vertex="1" parent="1">
          <mxGeometry x="1400" y="2600" width="120" height="80" as="geometry" />
        </mxCell>
        <mxCell id="2nqgOhVoaRxBC__t8u-R-39" value="" style="edgeStyle=none;orthogonalLoop=1;jettySize=auto;html=1;rounded=0;fillColor=#f8cecc;strokeColor=#b85450;" edge="1" parent="1" source="2nqgOhVoaRxBC__t8u-R-30" target="2nqgOhVoaRxBC__t8u-R-38">
          <mxGeometry width="80" relative="1" as="geometry">
            <mxPoint x="1460.52" y="2560" as="sourcePoint" />
            <mxPoint x="1460.52" y="2600" as="targetPoint" />
            <Array as="points" />
          </mxGeometry>
        </mxCell>
        <mxCell id="2nqgOhVoaRxBC__t8u-R-40" value="" style="edgeStyle=none;orthogonalLoop=1;jettySize=auto;html=1;rounded=0;fillColor=#d5e8d4;strokeColor=#82b366;exitX=1;exitY=1;exitDx=0;exitDy=0;" edge="1" parent="1" source="2nqgOhVoaRxBC__t8u-R-30" target="2nqgOhVoaRxBC__t8u-R-41">
          <mxGeometry width="80" relative="1" as="geometry">
            <mxPoint x="1520" y="2550" as="sourcePoint" />
            <mxPoint x="1560" y="2520" as="targetPoint" />
            <Array as="points">
              <mxPoint x="1520" y="2570" />
              <mxPoint x="1580" y="2570" />
              <mxPoint x="1620" y="2610" />
            </Array>
          </mxGeometry>
        </mxCell>
        <mxCell id="2nqgOhVoaRxBC__t8u-R-41" value="evaluate next expression" style="whiteSpace=wrap;html=1;" vertex="1" parent="1">
          <mxGeometry x="1560" y="2760" width="120" height="80" as="geometry" />
        </mxCell>
        <mxCell id="2nqgOhVoaRxBC__t8u-R-42" value="" style="edgeStyle=none;orthogonalLoop=1;jettySize=auto;html=1;rounded=0;fillColor=#d5e8d4;strokeColor=#82b366;exitX=0;exitY=1;exitDx=0;exitDy=0;" edge="1" target="2nqgOhVoaRxBC__t8u-R-41" parent="1" source="2nqgOhVoaRxBC__t8u-R-32">
          <mxGeometry width="80" relative="1" as="geometry">
            <mxPoint x="1840" y="2520" as="sourcePoint" />
            <mxPoint x="1916.2857142857142" y="2760" as="targetPoint" />
            <Array as="points">
              <mxPoint x="1720" y="2570" />
              <mxPoint x="1670" y="2570" />
              <mxPoint x="1620" y="2610" />
            </Array>
          </mxGeometry>
        </mxCell>
      </root>
    </mxGraphModel>
  </diagram>
</mxfile>
